<svg viewBox="0,0,100,15" xmlns="http://www.w3.org/2000/svg" xmlns:xlink="http://www.w3.org/1999/xlink"><path stroke="none" fill="rgb(252, 154, 124)" d="M0,0L1,0L1,15L0,15L0,0"/><path stroke="none" fill="rgb(252, 157, 127)" d="M1,0L2,0L2,15L1,15L1,0"/><path stroke="none" fill="rgb(252, 159, 129)" d="M2,0L3,0L3,15L2,15L2,0"/><path stroke="none" fill="rgb(252, 161, 132)" d="M3,0L4,0L4,15L3,15L3,0"/><path stroke="none" fill="rgb(252, 163, 134)" d="M4,0L5,0L5,15L4,15L4,0"/><path stroke="none" fill="rgb(252, 166, 137)" d="M5,0L6,0L6,15L5,15L5,0"/><path stroke="none" fill="rgb(252, 168, 139)" d="M6,0L7,0L7,15L6,15L6,0"/><path stroke="none" fill="rgb(252, 170, 142)" d="M7,0L8,0L8,15L7,15L7,0"/><path stroke="none" fill="rgb(252, 172, 145)" d="M8,0L9,0L9,15L8,15L8,0"/><path stroke="none" fill="rgb(252, 175, 147)" d="M9,0L10,0L10,15L9,15L9,0"/><path stroke="none" fill="rgb(252, 177, 150)" d="M10,0L11,0L11,15L10,15L10,0"/><path stroke="none" fill="rgb(252, 179, 153)" d="M11,0L12,0L12,15L11,15L11,0"/><path stroke="none" fill="rgb(252, 181, 155)" d="M12,0L13,0L13,15L12,15L12,0"/><path stroke="none" fill="rgb(252, 184, 158)" d="M13,0L14,0L14,15L13,15L13,0"/><path stroke="none" fill="rgb(252, 186, 161)" d="M14,0L15,0L15,15L14,15L14,0"/><path stroke="none" fill="rgb(252, 188, 163)" d="M15,0L16,0L16,15L15,15L15,0"/><path stroke="none" fill="rgb(252, 190, 166)" d="M16,0L17,0L17,15L16,15L16,0"/><path stroke="none" fill="rgb(253, 192, 169)" d="M17,0L18,0L18,15L17,15L17,0"/><path stroke="none" fill="rgb(253, 194, 171)" d="M18,0L19,0L19,15L18,15L18,0"/><path stroke="none" fill="rgb(253, 196, 174)" d="M19,0L20,0L20,15L19,15L19,0"/><path stroke="none" fill="rgb(253, 199, 177)" d="M20,0L21,0L21,15L20,15L20,0"/><path stroke="none" fill="rgb(253, 201, 179)" d="M21,0L22,0L22,15L21,15L21,0"/><path stroke="none" fill="rgb(253, 203, 182)" d="M22,0L23,0L23,15L22,15L22,0"/><path stroke="none" fill="rgb(253, 205, 185)" d="M23,0L24,0L24,15L23,15L23,0"/><path stroke="none" fill="rgb(253, 207, 187)" d="M24,0L25,0L25,15L24,15L24,0"/><path stroke="none" fill="rgb(253, 209, 190)" d="M25,0L26,0L26,15L25,15L25,0"/><path stroke="none" fill="rgb(253, 210, 192)" d="M26,0L27,0L27,15L26,15L26,0"/><path stroke="none" fill="rgb(253, 212, 195)" d="M27,0L28,0L28,15L27,15L27,0"/><path stroke="none" fill="rgb(253, 214, 197)" d="M28,0L29,0L29,15L28,15L28,0"/><path stroke="none" fill="rgb(254, 216, 200)" d="M29,0L30,0L30,15L29,15L29,0"/><path stroke="none" fill="rgb(254, 218, 202)" d="M30,0L31,0L31,15L30,15L30,0"/><path stroke="none" fill="rgb(254, 219, 204)" d="M31,0L32,0L32,15L31,15L31,0"/><path stroke="none" fill="rgb(254, 221, 207)" d="M32,0L33,0L33,15L32,15L32,0"/><path stroke="none" fill="rgb(254, 223, 209)" d="M33,0L34,0L34,15L33,15L33,0"/><path stroke="none" fill="rgb(254, 224, 211)" d="M34,0L35,0L35,15L34,15L34,0"/><path stroke="none" fill="rgb(254, 226, 213)" d="M35,0L36,0L36,15L35,15L35,0"/><path stroke="none" fill="rgb(254, 227, 215)" d="M36,0L37,0L37,15L36,15L36,0"/><path stroke="none" fill="rgb(254, 229, 217)" d="M37,0L38,0L38,15L37,15L37,0"/><path stroke="none" fill="rgb(254, 230, 219)" d="M38,0L39,0L39,15L38,15L38,0"/><path stroke="none" fill="rgb(254, 231, 221)" d="M39,0L40,0L40,15L39,15L39,0"/><path stroke="none" fill="rgb(254, 233, 223)" d="M40,0L41,0L41,15L40,15L40,0"/><path stroke="none" fill="rgb(254, 234, 224)" d="M41,0L42,0L42,15L41,15L41,0"/><path stroke="none" fill="rgb(255, 235, 226)" d="M42,0L43,0L43,15L42,15L42,0"/><path stroke="none" fill="rgb(255, 237, 228)" d="M43,0L44,0L44,15L43,15L43,0"/><path stroke="none" fill="rgb(255, 238, 230)" d="M44,0L45,0L45,15L44,15L44,0"/><path stroke="none" fill="rgb(255, 239, 232)" d="M45,0L46,0L46,15L45,15L45,0"/><path stroke="none" fill="rgb(255, 240, 233)" d="M46,0L47,0L47,15L46,15L46,0"/><path stroke="none" fill="rgb(255, 241, 235)" d="M47,0L48,0L48,15L47,15L47,0"/><path stroke="none" fill="rgb(255, 243, 237)" d="M48,0L49,0L49,15L48,15L48,0"/><path stroke="none" fill="rgb(255, 244, 238)" d="M49,0L50,0L50,15L49,15L49,0"/><path stroke="none" fill="rgb(247, 251, 255)" d="M50,0L51,0L51,15L50,15L50,0"/><path stroke="none" fill="rgb(246, 250, 255)" d="M51,0L52,0L52,15L51,15L51,0"/><path stroke="none" fill="rgb(244, 249, 254)" d="M52,0L53,0L53,15L52,15L52,0"/><path stroke="none" fill="rgb(243, 248, 254)" d="M53,0L54,0L54,15L53,15L53,0"/><path stroke="none" fill="rgb(241, 247, 253)" d="M54,0L55,0L55,15L54,15L54,0"/><path stroke="none" fill="rgb(240, 247, 253)" d="M55,0L56,0L56,15L55,15L55,0"/><path stroke="none" fill="rgb(239, 246, 252)" d="M56,0L57,0L57,15L56,15L56,0"/><path stroke="none" fill="rgb(237, 245, 252)" d="M57,0L58,0L58,15L57,15L57,0"/><path stroke="none" fill="rgb(236, 244, 251)" d="M58,0L59,0L59,15L58,15L58,0"/><path stroke="none" fill="rgb(234, 243, 251)" d="M59,0L60,0L60,15L59,15L59,0"/><path stroke="none" fill="rgb(233, 242, 251)" d="M60,0L61,0L61,15L60,15L60,0"/><path stroke="none" fill="rgb(232, 241, 250)" d="M61,0L62,0L62,15L61,15L61,0"/><path stroke="none" fill="rgb(230, 240, 250)" d="M62,0L63,0L63,15L62,15L62,0"/><path stroke="none" fill="rgb(229, 239, 249)" d="M63,0L64,0L64,15L63,15L63,0"/><path stroke="none" fill="rgb(227, 238, 249)" d="M64,0L65,0L65,15L64,15L64,0"/><path stroke="none" fill="rgb(226, 238, 248)" d="M65,0L66,0L66,15L65,15L65,0"/><path stroke="none" fill="rgb(225, 237, 248)" d="M66,0L67,0L67,15L66,15L66,0"/><path stroke="none" fill="rgb(223, 236, 247)" d="M67,0L68,0L68,15L67,15L67,0"/><path stroke="none" fill="rgb(222, 235, 247)" d="M68,0L69,0L69,15L68,15L68,0"/><path stroke="none" fill="rgb(221, 234, 246)" d="M69,0L70,0L70,15L69,15L69,0"/><path stroke="none" fill="rgb(219, 233, 246)" d="M70,0L71,0L71,15L70,15L70,0"/><path stroke="none" fill="rgb(218, 232, 246)" d="M71,0L72,0L72,15L71,15L71,0"/><path stroke="none" fill="rgb(216, 231, 245)" d="M72,0L73,0L73,15L72,15L72,0"/><path stroke="none" fill="rgb(215, 230, 245)" d="M73,0L74,0L74,15L73,15L73,0"/><path stroke="none" fill="rgb(214, 229, 244)" d="M74,0L75,0L75,15L74,15L74,0"/><path stroke="none" fill="rgb(212, 229, 244)" d="M75,0L76,0L76,15L75,15L75,0"/><path stroke="none" fill="rgb(211, 228, 243)" d="M76,0L77,0L77,15L76,15L76,0"/><path stroke="none" fill="rgb(209, 227, 243)" d="M77,0L78,0L78,15L77,15L77,0"/><path stroke="none" fill="rgb(208, 226, 242)" d="M78,0L79,0L79,15L78,15L78,0"/><path stroke="none" fill="rgb(206, 225, 242)" d="M79,0L80,0L80,15L79,15L79,0"/><path stroke="none" fill="rgb(205, 224, 241)" d="M80,0L81,0L81,15L80,15L80,0"/><path stroke="none" fill="rgb(203, 223, 241)" d="M81,0L82,0L82,15L81,15L81,0"/><path stroke="none" fill="rgb(202, 222, 240)" d="M82,0L83,0L83,15L82,15L82,0"/><path stroke="none" fill="rgb(200, 221, 240)" d="M83,0L84,0L84,15L83,15L83,0"/><path stroke="none" fill="rgb(198, 220, 239)" d="M84,0L85,0L85,15L84,15L84,0"/><path stroke="none" fill="rgb(197, 219, 238)" d="M85,0L86,0L86,15L85,15L85,0"/><path stroke="none" fill="rgb(195, 219, 238)" d="M86,0L87,0L87,15L86,15L86,0"/><path stroke="none" fill="rgb(193, 218, 237)" d="M87,0L88,0L88,15L87,15L87,0"/><path stroke="none" fill="rgb(191, 217, 237)" d="M88,0L89,0L89,15L88,15L88,0"/><path stroke="none" fill="rgb(189, 216, 236)" d="M89,0L90,0L90,15L89,15L89,0"/><path stroke="none" fill="rgb(187, 215, 235)" d="M90,0L91,0L91,15L90,15L90,0"/><path stroke="none" fill="rgb(185, 214, 235)" d="M91,0L92,0L92,15L91,15L91,0"/><path stroke="none" fill="rgb(183, 213, 234)" d="M92,0L93,0L93,15L92,15L92,0"/><path stroke="none" fill="rgb(181, 212, 233)" d="M93,0L94,0L94,15L93,15L93,0"/><path stroke="none" fill="rgb(179, 211, 232)" d="M94,0L95,0L95,15L94,15L94,0"/><path stroke="none" fill="rgb(177, 210, 232)" d="M95,0L96,0L96,15L95,15L95,0"/><path stroke="none" fill="rgb(174, 209, 231)" d="M96,0L97,0L97,15L96,15L96,0"/><path stroke="none" fill="rgb(172, 208, 230)" d="M97,0L98,0L98,15L97,15L97,0"/><path stroke="none" fill="rgb(170, 207, 230)" d="M98,0L99,0L99,15L98,15L98,0"/><path stroke="none" fill="rgb(167, 206, 229)" d="M99,0L100,0L100,15L99,15L99,0"/><path stroke="none" fill="rgb(165, 204, 228)" d="M100,0L101,0L101,15L100,15L100,0"/></svg>
