<svg viewBox="0,0,900,800" color="rgba(5, 5, 38, 0.5)" width="600" xmlns="http://www.w3.org/2000/svg" xmlns:xlink="http://www.w3.org/1999/xlink"><g transform="translate(40,5)"><rect fill="#F7FBFB" x="0" y="0" width="845" height="765"/></g><g transform="translate(40,770)" fill="none" font-size="10" font-family="sans-serif" text-anchor="middle"><g class="tick" opacity="1" transform="translate(0.5,0)"><line stroke="currentColor" y2="6"/><text fill="currentColor" y="9" dy="0.71em" font-size="12">6</text></g><g class="tick" opacity="1" transform="translate(75.95454545454545,0)"><line stroke="currentColor" y2="6"/><text fill="currentColor" y="9" dy="0.71em" font-size="12">7</text></g><g class="tick" opacity="1" transform="translate(151.4090909090909,0)"><line stroke="currentColor" y2="6"/><text fill="currentColor" y="9" dy="0.71em" font-size="12">8</text></g><g class="tick" opacity="1" transform="translate(226.86363636363635,0)"><line stroke="currentColor" y2="6"/><text fill="currentColor" y="9" dy="0.71em" font-size="12">9</text></g><g class="tick" opacity="1" transform="translate(302.3181818181818,0)"><line stroke="currentColor" y2="6"/><text fill="currentColor" y="9" dy="0.71em" font-size="12">10</text></g><g class="tick" opacity="1" transform="translate(377.77272727272725,0)"><line stroke="currentColor" y2="6"/><text fill="currentColor" y="9" dy="0.71em" font-size="12">11</text></g><g class="tick" opacity="1" transform="translate(453.2272727272727,0)"><line stroke="currentColor" y2="6"/><text fill="currentColor" y="9" dy="0.71em" font-size="12">12</text></g><g class="tick" opacity="1" transform="translate(528.6818181818181,0)"><line stroke="currentColor" y2="6"/><text fill="currentColor" y="9" dy="0.71em" font-size="12">13</text></g><g class="tick" opacity="1" transform="translate(604.1363636363636,0)"><line stroke="currentColor" y2="6"/><text fill="currentColor" y="9" dy="0.71em" font-size="12">14</text></g><g class="tick" opacity="1" transform="translate(679.5909090909091,0)"><line stroke="currentColor" y2="6"/><text fill="currentColor" y="9" dy="0.71em" font-size="12">15</text></g><g class="tick" opacity="1" transform="translate(755.0454545454545,0)"><line stroke="currentColor" y2="6"/><text fill="currentColor" y="9" dy="0.71em" font-size="12">16</text></g><g class="tick" opacity="1" transform="translate(830.5,0)"><line stroke="currentColor" y2="6"/><text fill="currentColor" y="9" dy="0.71em" font-size="12">17</text></g><text fill="rgba(5, 5, 38, 0.5)" font-weight="bold" text-anchor="end" font-size="12" x="830" y="-12">Diabetes</text></g><g transform="translate(40,20)" fill="none" font-size="10" font-family="sans-serif" text-anchor="end"><g class="tick" opacity="1" transform="translate(0,750.5)"><line stroke="currentColor" x2="-6"/><text fill="currentColor" x="-9" dy="0.32em" font-size="12">1.5</text></g><g class="tick" opacity="1" transform="translate(0,643.3571428571429)"><line stroke="currentColor" x2="-6"/><text fill="currentColor" x="-9" dy="0.32em" font-size="12">2.0</text></g><g class="tick" opacity="1" transform="translate(0,536.2142857142858)"><line stroke="currentColor" x2="-6"/><text fill="currentColor" x="-9" dy="0.32em" font-size="12">2.5</text></g><g class="tick" opacity="1" transform="translate(0,429.07142857142856)"><line stroke="currentColor" x2="-6"/><text fill="currentColor" x="-9" dy="0.32em" font-size="12">3.0</text></g><g class="tick" opacity="1" transform="translate(0,321.92857142857144)"><line stroke="currentColor" x2="-6"/><text fill="currentColor" x="-9" dy="0.32em" font-size="12">3.5</text></g><g class="tick" opacity="1" transform="translate(0,214.78571428571428)"><line stroke="currentColor" x2="-6"/><text fill="currentColor" x="-9" dy="0.32em" font-size="12">4.0</text></g><g class="tick" opacity="1" transform="translate(0,107.64285714285718)"><line stroke="currentColor" x2="-6"/><text fill="currentColor" x="-9" dy="0.32em" font-size="12">4.5</text></g><g class="tick" opacity="1" transform="translate(0,0.5)"><line stroke="currentColor" x2="-6"/><text fill="currentColor" x="-9" dy="0.32em" font-size="12">5.0</text><text fill="rgba(5, 5, 38, 0.5)" x="8" dy="0.32em" font-size="12" text-anchor="start" font-weight="bold">Kidney disease</text></g></g><g transform="translate(40,20)"><circle r="3" cx="143.3636363636364" cy="0" stroke="none" fill="rgba(111, 214, 214, 0.4)"/><circle r="3" cx="437.6363636363637" cy="492.8571428571428" stroke="none" fill="rgba(111, 214, 214, 0.4)"/><circle r="3" cx="332" cy="428.57142857142856" stroke="none" fill="rgba(111, 214, 214, 0.4)"/><circle r="3" cx="264.09090909090907" cy="321.42857142857144" stroke="none" fill="rgba(111, 214, 214, 0.4)"/><circle r="3" cx="218.81818181818184" cy="514.2857142857143" stroke="none" fill="rgba(111, 214, 214, 0.4)"/><circle r="3" cx="52.818181818181834" cy="600" stroke="none" fill="rgba(111, 214, 214, 0.4)"/><circle r="3" cx="249.00000000000003" cy="664.2857142857143" stroke="none" fill="rgba(111, 214, 214, 0.4)"/><circle r="3" cx="233.9090909090909" cy="492.8571428571428" stroke="none" fill="rgba(111, 214, 214, 0.4)"/><circle r="3" cx="279.18181818181813" cy="535.7142857142858" stroke="none" fill="rgba(111, 214, 214, 0.4)"/><circle r="3" cx="332" cy="385.71428571428567" stroke="none" fill="rgba(111, 214, 214, 0.4)"/><circle r="3" cx="316.9090909090909" cy="471.42857142857144" stroke="none" fill="rgba(111, 214, 214, 0.4)"/><circle r="3" cx="294.27272727272725" cy="471.42857142857144" stroke="none" fill="rgba(111, 214, 214, 0.4)"/><circle r="3" cx="181.09090909090912" cy="364.28571428571433" stroke="none" fill="rgba(111, 214, 214, 0.4)"/><circle r="3" cx="165.99999999999994" cy="750" stroke="none" fill="rgba(111, 214, 214, 0.4)"/><circle r="3" cx="256.54545454545456" cy="557.1428571428571" stroke="none" fill="rgba(111, 214, 214, 0.4)"/><circle r="3" cx="279.18181818181813" cy="471.42857142857144" stroke="none" fill="rgba(111, 214, 214, 0.4)"/><circle r="3" cx="316.9090909090909" cy="621.4285714285713" stroke="none" fill="rgba(111, 214, 214, 0.4)"/><circle r="3" cx="264.09090909090907" cy="578.5714285714286" stroke="none" fill="rgba(111, 214, 214, 0.4)"/><circle r="3" cx="362.18181818181824" cy="535.7142857142858" stroke="none" fill="rgba(111, 214, 214, 0.4)"/><circle r="3" cx="437.6363636363637" cy="514.2857142857143" stroke="none" fill="rgba(111, 214, 214, 0.4)"/><circle r="3" cx="150.9090909090909" cy="664.2857142857143" stroke="none" fill="rgba(111, 214, 214, 0.4)"/><circle r="3" cx="264.09090909090907" cy="664.2857142857143" stroke="none" fill="rgba(111, 214, 214, 0.4)"/><circle r="3" cx="271.63636363636357" cy="557.1428571428571" stroke="none" fill="rgba(111, 214, 214, 0.4)"/><circle r="3" cx="301.8181818181818" cy="428.57142857142856" stroke="none" fill="rgba(111, 214, 214, 0.4)"/><circle r="3" cx="98.09090909090908" cy="707.1428571428571" stroke="none" fill="rgba(111, 214, 214, 0.4)"/><circle r="3" cx="316.9090909090909" cy="578.5714285714286" stroke="none" fill="rgba(111, 214, 214, 0.4)"/><circle r="3" cx="475.3636363636364" cy="557.1428571428571" stroke="none" fill="rgba(111, 214, 214, 0.4)"/><circle r="3" cx="150.9090909090909" cy="535.7142857142858" stroke="none" fill="rgba(111, 214, 214, 0.4)"/><circle r="3" cx="369.72727272727275" cy="600" stroke="none" fill="rgba(111, 214, 214, 0.4)"/><circle r="3" cx="165.99999999999994" cy="664.2857142857143" stroke="none" fill="rgba(111, 214, 214, 0.4)"/><circle r="3" cx="181.09090909090912" cy="600" stroke="none" fill="rgba(111, 214, 214, 0.4)"/><circle r="3" cx="203.7272727272727" cy="557.1428571428571" stroke="none" fill="rgba(111, 214, 214, 0.4)"/><circle r="3" cx="211.27272727272734" cy="642.8571428571429" stroke="none" fill="rgba(111, 214, 214, 0.4)"/><circle r="3" cx="294.27272727272725" cy="428.57142857142856" stroke="none" fill="rgba(111, 214, 214, 0.4)"/><circle r="3" cx="324.4545454545455" cy="535.7142857142858" stroke="none" fill="rgba(111, 214, 214, 0.4)"/><circle r="3" cx="332" cy="450.00000000000006" stroke="none" fill="rgba(111, 214, 214, 0.4)"/><circle r="3" cx="301.8181818181818" cy="535.7142857142858" stroke="none" fill="rgba(111, 214, 214, 0.4)"/><circle r="3" cx="384.8181818181818" cy="407.1428571428571" stroke="none" fill="rgba(111, 214, 214, 0.4)"/><circle r="3" cx="249.00000000000003" cy="557.1428571428571" stroke="none" fill="rgba(111, 214, 214, 0.4)"/><circle r="3" cx="264.09090909090907" cy="535.7142857142858" stroke="none" fill="rgba(111, 214, 214, 0.4)"/><circle r="3" cx="565.9090909090909" cy="642.8571428571429" stroke="none" fill="rgba(111, 214, 214, 0.4)"/><circle r="3" cx="181.09090909090912" cy="578.5714285714286" stroke="none" fill="rgba(111, 214, 214, 0.4)"/><circle r="3" cx="460.2727272727273" cy="600" stroke="none" fill="rgba(111, 214, 214, 0.4)"/><circle r="3" cx="264.09090909090907" cy="642.8571428571429" stroke="none" fill="rgba(111, 214, 214, 0.4)"/><circle r="3" cx="392.3636363636363" cy="621.4285714285713" stroke="none" fill="rgba(111, 214, 214, 0.4)"/><circle r="3" cx="316.9090909090909" cy="514.2857142857143" stroke="none" fill="rgba(111, 214, 214, 0.4)"/><circle r="3" cx="264.09090909090907" cy="557.1428571428571" stroke="none" fill="rgba(111, 214, 214, 0.4)"/><circle r="3" cx="52.818181818181834" cy="471.42857142857144" stroke="none" fill="rgba(111, 214, 214, 0.4)"/><circle r="3" cx="332" cy="664.2857142857143" stroke="none" fill="rgba(111, 214, 214, 0.4)"/><circle r="3" cx="128.27272727272728" cy="600" stroke="none" fill="rgba(111, 214, 214, 0.4)"/><circle r="3" cx="218.81818181818184" cy="578.5714285714286" stroke="none" fill="rgba(111, 214, 214, 0.4)"/><circle r="3" cx="181.09090909090912" cy="621.4285714285713" stroke="none" fill="rgba(111, 214, 214, 0.4)"/><circle r="3" cx="452.7272727272727" cy="471.42857142857144" stroke="none" fill="rgba(111, 214, 214, 0.4)"/><circle r="3" cx="165.99999999999994" cy="600" stroke="none" fill="rgba(111, 214, 214, 0.4)"/><circle r="3" cx="75.45454545454545" cy="600" stroke="none" fill="rgba(111, 214, 214, 0.4)"/><circle r="3" cx="392.3636363636363" cy="557.1428571428571" stroke="none" fill="rgba(111, 214, 214, 0.4)"/><circle r="3" cx="399.90909090909093" cy="471.42857142857144" stroke="none" fill="rgba(111, 214, 214, 0.4)"/><circle r="3" cx="347.09090909090907" cy="278.5714285714285" stroke="none" fill="rgba(111, 214, 214, 0.4)"/><circle r="3" cx="286.7272727272728" cy="535.7142857142858" stroke="none" fill="rgba(111, 214, 214, 0.4)"/><circle r="3" cx="105.63636363636367" cy="664.2857142857143" stroke="none" fill="rgba(111, 214, 214, 0.4)"/><circle r="3" cx="233.9090909090909" cy="578.5714285714286" stroke="none" fill="rgba(111, 214, 214, 0.4)"/><circle r="3" cx="165.99999999999994" cy="535.7142857142858" stroke="none" fill="rgba(111, 214, 214, 0.4)"/><circle r="3" cx="271.63636363636357" cy="535.7142857142858" stroke="none" fill="rgba(111, 214, 214, 0.4)"/><circle r="3" cx="407.4545454545455" cy="321.42857142857144" stroke="none" fill="rgba(111, 214, 214, 0.4)"/><circle r="3" cx="294.27272727272725" cy="342.8571428571429" stroke="none" fill="rgba(111, 214, 214, 0.4)"/><circle r="3" cx="271.63636363636357" cy="214.28571428571428" stroke="none" fill="rgba(111, 214, 214, 0.4)"/><circle r="3" cx="135.81818181818178" cy="300" stroke="none" fill="rgba(111, 214, 214, 0.4)"/><circle r="3" cx="211.27272727272734" cy="621.4285714285713" stroke="none" fill="rgba(111, 214, 214, 0.4)"/><circle r="3" cx="188.63636363636363" cy="621.4285714285713" stroke="none" fill="rgba(111, 214, 214, 0.4)"/><circle r="3" cx="256.54545454545456" cy="492.8571428571428" stroke="none" fill="rgba(111, 214, 214, 0.4)"/><circle r="3" cx="369.72727272727275" cy="450.00000000000006" stroke="none" fill="rgba(111, 214, 214, 0.4)"/><circle r="3" cx="256.54545454545456" cy="642.8571428571429" stroke="none" fill="rgba(111, 214, 214, 0.4)"/><circle r="3" cx="354.63636363636357" cy="428.57142857142856" stroke="none" fill="rgba(111, 214, 214, 0.4)"/><circle r="3" cx="475.3636363636364" cy="535.7142857142858" stroke="none" fill="rgba(111, 214, 214, 0.4)"/><circle r="3" cx="173.5454545454546" cy="685.7142857142857" stroke="none" fill="rgba(111, 214, 214, 0.4)"/><circle r="3" cx="316.9090909090909" cy="557.1428571428571" stroke="none" fill="rgba(111, 214, 214, 0.4)"/><circle r="3" cx="279.18181818181813" cy="557.1428571428571" stroke="none" fill="rgba(111, 214, 214, 0.4)"/><circle r="3" cx="339.54545454545456" cy="342.8571428571429" stroke="none" fill="rgba(111, 214, 214, 0.4)"/><circle r="3" cx="98.09090909090908" cy="621.4285714285713" stroke="none" fill="rgba(111, 214, 214, 0.4)"/><circle r="3" cx="354.63636363636357" cy="471.42857142857144" stroke="none" fill="rgba(111, 214, 214, 0.4)"/><circle r="3" cx="490.4545454545455" cy="450.00000000000006" stroke="none" fill="rgba(111, 214, 214, 0.4)"/><circle r="3" cx="90.54545454545456" cy="578.5714285714286" stroke="none" fill="rgba(111, 214, 214, 0.4)"/><circle r="3" cx="332" cy="514.2857142857143" stroke="none" fill="rgba(111, 214, 214, 0.4)"/><circle r="3" cx="196.18181818181816" cy="621.4285714285713" stroke="none" fill="rgba(111, 214, 214, 0.4)"/><circle r="3" cx="158.45454545454544" cy="557.1428571428571" stroke="none" fill="rgba(111, 214, 214, 0.4)"/><circle r="3" cx="233.9090909090909" cy="471.42857142857144" stroke="none" fill="rgba(111, 214, 214, 0.4)"/><circle r="3" cx="249.00000000000003" cy="578.5714285714286" stroke="none" fill="rgba(111, 214, 214, 0.4)"/><circle r="3" cx="324.4545454545455" cy="300" stroke="none" fill="rgba(111, 214, 214, 0.4)"/><circle r="3" cx="188.63636363636363" cy="364.28571428571433" stroke="none" fill="rgba(111, 214, 214, 0.4)"/><circle r="3" cx="279.18181818181813" cy="578.5714285714286" stroke="none" fill="rgba(111, 214, 214, 0.4)"/><circle r="3" cx="430.090909090909" cy="535.7142857142858" stroke="none" fill="rgba(111, 214, 214, 0.4)"/><circle r="3" cx="415" cy="535.7142857142858" stroke="none" fill="rgba(111, 214, 214, 0.4)"/><circle r="3" cx="294.27272727272725" cy="492.8571428571428" stroke="none" fill="rgba(111, 214, 214, 0.4)"/><circle r="3" cx="316.9090909090909" cy="557.1428571428571" stroke="none" fill="rgba(111, 214, 214, 0.4)"/><circle r="3" cx="784.7272727272726" cy="535.7142857142858" stroke="none" fill="rgba(111, 214, 214, 0.4)"/><circle r="3" cx="286.7272727272728" cy="557.1428571428571" stroke="none" fill="rgba(111, 214, 214, 0.4)"/><circle r="3" cx="422.5454545454545" cy="514.2857142857143" stroke="none" fill="rgba(111, 214, 214, 0.4)"/><circle r="3" cx="135.81818181818178" cy="578.5714285714286" stroke="none" fill="rgba(111, 214, 214, 0.4)"/><circle r="3" cx="445.1818181818182" cy="535.7142857142858" stroke="none" fill="rgba(111, 214, 214, 0.4)"/><circle r="3" cx="347.09090909090907" cy="450.00000000000006" stroke="none" fill="rgba(111, 214, 214, 0.4)"/><circle r="3" cx="279.18181818181813" cy="535.7142857142858" stroke="none" fill="rgba(111, 214, 214, 0.4)"/><circle r="3" cx="90.54545454545456" cy="428.57142857142856" stroke="none" fill="rgba(111, 214, 214, 0.4)"/><circle r="3" cx="347.09090909090907" cy="664.2857142857143" stroke="none" fill="rgba(111, 214, 214, 0.4)"/><circle r="3" cx="98.09090909090908" cy="600" stroke="none" fill="rgba(111, 214, 214, 0.4)"/><circle r="3" cx="211.27272727272734" cy="385.71428571428567" stroke="none" fill="rgba(111, 214, 214, 0.4)"/><circle r="3" cx="173.5454545454546" cy="642.8571428571429" stroke="none" fill="rgba(111, 214, 214, 0.4)"/><circle r="3" cx="528.1818181818181" cy="300" stroke="none" fill="rgba(111, 214, 214, 0.4)"/><circle r="3" cx="233.9090909090909" cy="428.57142857142856" stroke="none" fill="rgba(111, 214, 214, 0.4)"/><circle r="3" cx="82.99999999999997" cy="707.1428571428571" stroke="none" fill="rgba(111, 214, 214, 0.4)"/><circle r="3" cx="588.5454545454545" cy="450.00000000000006" stroke="none" fill="rgba(111, 214, 214, 0.4)"/><circle r="3" cx="415" cy="407.1428571428571" stroke="none" fill="rgba(111, 214, 214, 0.4)"/><circle r="3" cx="354.63636363636357" cy="364.28571428571433" stroke="none" fill="rgba(111, 214, 214, 0.4)"/><circle r="3" cx="316.9090909090909" cy="471.42857142857144" stroke="none" fill="rgba(111, 214, 214, 0.4)"/><circle r="3" cx="37.72727272727273" cy="642.8571428571429" stroke="none" fill="rgba(111, 214, 214, 0.4)"/><circle r="3" cx="173.5454545454546" cy="621.4285714285713" stroke="none" fill="rgba(111, 214, 214, 0.4)"/><circle r="3" cx="135.81818181818178" cy="557.1428571428571" stroke="none" fill="rgba(111, 214, 214, 0.4)"/><circle r="3" cx="384.8181818181818" cy="514.2857142857143" stroke="none" fill="rgba(111, 214, 214, 0.4)"/><circle r="3" cx="392.3636363636363" cy="321.42857142857144" stroke="none" fill="rgba(111, 214, 214, 0.4)"/><circle r="3" cx="362.18181818181824" cy="492.8571428571428" stroke="none" fill="rgba(111, 214, 214, 0.4)"/><circle r="3" cx="611.1818181818181" cy="150.00000000000006" stroke="none" fill="rgba(111, 214, 214, 0.4)"/><circle r="3" cx="181.09090909090912" cy="407.1428571428571" stroke="none" fill="rgba(111, 214, 214, 0.4)"/><circle r="3" cx="249.00000000000003" cy="600" stroke="none" fill="rgba(111, 214, 214, 0.4)"/><circle r="3" cx="181.09090909090912" cy="642.8571428571429" stroke="none" fill="rgba(111, 214, 214, 0.4)"/><circle r="3" cx="294.27272727272725" cy="557.1428571428571" stroke="none" fill="rgba(111, 214, 214, 0.4)"/><circle r="3" cx="377.27272727272725" cy="535.7142857142858" stroke="none" fill="rgba(111, 214, 214, 0.4)"/><circle r="3" cx="271.63636363636357" cy="621.4285714285713" stroke="none" fill="rgba(111, 214, 214, 0.4)"/><circle r="3" cx="347.09090909090907" cy="492.8571428571428" stroke="none" fill="rgba(111, 214, 214, 0.4)"/><circle r="3" cx="422.5454545454545" cy="600" stroke="none" fill="rgba(111, 214, 214, 0.4)"/><circle r="3" cx="188.63636363636363" cy="621.4285714285713" stroke="none" fill="rgba(111, 214, 214, 0.4)"/><circle r="3" cx="286.7272727272728" cy="600" stroke="none" fill="rgba(111, 214, 214, 0.4)"/><circle r="3" cx="271.63636363636357" cy="578.5714285714286" stroke="none" fill="rgba(111, 214, 214, 0.4)"/><circle r="3" cx="332" cy="428.57142857142856" stroke="none" fill="rgba(111, 214, 214, 0.4)"/><circle r="3" cx="105.63636363636367" cy="664.2857142857143" stroke="none" fill="rgba(111, 214, 214, 0.4)"/><circle r="3" cx="271.63636363636357" cy="642.8571428571429" stroke="none" fill="rgba(111, 214, 214, 0.4)"/><circle r="3" cx="520.6363636363636" cy="471.42857142857144" stroke="none" fill="rgba(111, 214, 214, 0.4)"/><circle r="3" cx="128.27272727272728" cy="535.7142857142858" stroke="none" fill="rgba(111, 214, 214, 0.4)"/><circle r="3" cx="407.4545454545455" cy="514.2857142857143" stroke="none" fill="rgba(111, 214, 214, 0.4)"/><circle r="3" cx="218.81818181818184" cy="514.2857142857143" stroke="none" fill="rgba(111, 214, 214, 0.4)"/><circle r="3" cx="241.4545454545454" cy="642.8571428571429" stroke="none" fill="rgba(111, 214, 214, 0.4)"/><circle r="3" cx="241.4545454545454" cy="492.8571428571428" stroke="none" fill="rgba(111, 214, 214, 0.4)"/><circle r="3" cx="241.4545454545454" cy="557.1428571428571" stroke="none" fill="rgba(111, 214, 214, 0.4)"/><circle r="3" cx="354.63636363636357" cy="428.57142857142856" stroke="none" fill="rgba(111, 214, 214, 0.4)"/><circle r="3" cx="271.63636363636357" cy="278.5714285714285" stroke="none" fill="rgba(111, 214, 214, 0.4)"/><circle r="3" cx="347.09090909090907" cy="621.4285714285713" stroke="none" fill="rgba(111, 214, 214, 0.4)"/><circle r="3" cx="332" cy="557.1428571428571" stroke="none" fill="rgba(111, 214, 214, 0.4)"/><circle r="3" cx="377.27272727272725" cy="364.28571428571433" stroke="none" fill="rgba(111, 214, 214, 0.4)"/><circle r="3" cx="241.4545454545454" cy="428.57142857142856" stroke="none" fill="rgba(111, 214, 214, 0.4)"/><circle r="3" cx="309.3636363636363" cy="557.1428571428571" stroke="none" fill="rgba(111, 214, 214, 0.4)"/><circle r="3" cx="671.5454545454545" cy="492.8571428571428" stroke="none" fill="rgba(111, 214, 214, 0.4)"/><circle r="3" cx="249.00000000000003" cy="642.8571428571429" stroke="none" fill="rgba(111, 214, 214, 0.4)"/><circle r="3" cx="490.4545454545455" cy="578.5714285714286" stroke="none" fill="rgba(111, 214, 214, 0.4)"/><circle r="3" cx="233.9090909090909" cy="535.7142857142858" stroke="none" fill="rgba(111, 214, 214, 0.4)"/><circle r="3" cx="467.8181818181818" cy="578.5714285714286" stroke="none" fill="rgba(111, 214, 214, 0.4)"/><circle r="3" cx="369.72727272727275" cy="407.1428571428571" stroke="none" fill="rgba(111, 214, 214, 0.4)"/><circle r="3" cx="271.63636363636357" cy="535.7142857142858" stroke="none" fill="rgba(111, 214, 214, 0.4)"/><circle r="3" cx="82.99999999999997" cy="428.57142857142856" stroke="none" fill="rgba(111, 214, 214, 0.4)"/><circle r="3" cx="286.7272727272728" cy="557.1428571428571" stroke="none" fill="rgba(111, 214, 214, 0.4)"/><circle r="3" cx="135.81818181818178" cy="642.8571428571429" stroke="none" fill="rgba(111, 214, 214, 0.4)"/><circle r="3" cx="196.18181818181816" cy="342.8571428571429" stroke="none" fill="rgba(111, 214, 214, 0.4)"/><circle r="3" cx="165.99999999999994" cy="557.1428571428571" stroke="none" fill="rgba(111, 214, 214, 0.4)"/><circle r="3" cx="528.1818181818181" cy="364.28571428571433" stroke="none" fill="rgba(111, 214, 214, 0.4)"/><circle r="3" cx="196.18181818181816" cy="471.42857142857144" stroke="none" fill="rgba(111, 214, 214, 0.4)"/><circle r="3" cx="105.63636363636367" cy="621.4285714285713" stroke="none" fill="rgba(111, 214, 214, 0.4)"/><circle r="3" cx="520.6363636363636" cy="428.57142857142856" stroke="none" fill="rgba(111, 214, 214, 0.4)"/><circle r="3" cx="505.5454545454545" cy="428.57142857142856" stroke="none" fill="rgba(111, 214, 214, 0.4)"/><circle r="3" cx="301.8181818181818" cy="321.42857142857144" stroke="none" fill="rgba(111, 214, 214, 0.4)"/><circle r="3" cx="324.4545454545455" cy="557.1428571428571" stroke="none" fill="rgba(111, 214, 214, 0.4)"/><circle r="3" cx="98.09090909090908" cy="557.1428571428571" stroke="none" fill="rgba(111, 214, 214, 0.4)"/><circle r="3" cx="241.4545454545454" cy="535.7142857142858" stroke="none" fill="rgba(111, 214, 214, 0.4)"/><circle r="3" cx="181.09090909090912" cy="600" stroke="none" fill="rgba(111, 214, 214, 0.4)"/><circle r="3" cx="384.8181818181818" cy="321.42857142857144" stroke="none" fill="rgba(111, 214, 214, 0.4)"/><circle r="3" cx="392.3636363636363" cy="257.14285714285717" stroke="none" fill="rgba(111, 214, 214, 0.4)"/><circle r="3" cx="422.5454545454545" cy="428.57142857142856" stroke="none" fill="rgba(111, 214, 214, 0.4)"/><circle r="3" cx="362.18181818181824" cy="171.42857142857142" stroke="none" fill="rgba(111, 214, 214, 0.4)"/><circle r="3" cx="286.7272727272728" cy="171.42857142857142" stroke="none" fill="rgba(111, 214, 214, 0.4)"/><circle r="3" cx="264.09090909090907" cy="492.8571428571428" stroke="none" fill="rgba(111, 214, 214, 0.4)"/><circle r="3" cx="120.7272727272727" cy="535.7142857142858" stroke="none" fill="rgba(111, 214, 214, 0.4)"/><circle r="3" cx="309.3636363636363" cy="492.8571428571428" stroke="none" fill="rgba(111, 214, 214, 0.4)"/><circle r="3" cx="354.63636363636357" cy="492.8571428571428" stroke="none" fill="rgba(111, 214, 214, 0.4)"/><circle r="3" cx="324.4545454545455" cy="514.2857142857143" stroke="none" fill="rgba(111, 214, 214, 0.4)"/><circle r="3" cx="490.4545454545455" cy="321.42857142857144" stroke="none" fill="rgba(111, 214, 214, 0.4)"/><circle r="3" cx="399.90909090909093" cy="450.00000000000006" stroke="none" fill="rgba(111, 214, 214, 0.4)"/><circle r="3" cx="279.18181818181813" cy="407.1428571428571" stroke="none" fill="rgba(111, 214, 214, 0.4)"/><circle r="3" cx="309.3636363636363" cy="450.00000000000006" stroke="none" fill="rgba(111, 214, 214, 0.4)"/><circle r="3" cx="264.09090909090907" cy="578.5714285714286" stroke="none" fill="rgba(111, 214, 214, 0.4)"/><circle r="3" cx="332" cy="364.28571428571433" stroke="none" fill="rgba(111, 214, 214, 0.4)"/><circle r="3" cx="158.45454545454544" cy="621.4285714285713" stroke="none" fill="rgba(111, 214, 214, 0.4)"/><circle r="3" cx="384.8181818181818" cy="557.1428571428571" stroke="none" fill="rgba(111, 214, 214, 0.4)"/><circle r="3" cx="528.1818181818181" cy="450.00000000000006" stroke="none" fill="rgba(111, 214, 214, 0.4)"/><circle r="3" cx="211.27272727272734" cy="514.2857142857143" stroke="none" fill="rgba(111, 214, 214, 0.4)"/><circle r="3" cx="362.18181818181824" cy="514.2857142857143" stroke="none" fill="rgba(111, 214, 214, 0.4)"/><circle r="3" cx="196.18181818181816" cy="600" stroke="none" fill="rgba(111, 214, 214, 0.4)"/><circle r="3" cx="241.4545454545454" cy="621.4285714285713" stroke="none" fill="rgba(111, 214, 214, 0.4)"/><circle r="3" cx="233.9090909090909" cy="621.4285714285713" stroke="none" fill="rgba(111, 214, 214, 0.4)"/><circle r="3" cx="279.18181818181813" cy="557.1428571428571" stroke="none" fill="rgba(111, 214, 214, 0.4)"/><circle r="3" cx="415" cy="364.28571428571433" stroke="none" fill="rgba(111, 214, 214, 0.4)"/><circle r="3" cx="271.63636363636357" cy="385.71428571428567" stroke="none" fill="rgba(111, 214, 214, 0.4)"/><circle r="3" cx="301.8181818181818" cy="642.8571428571429" stroke="none" fill="rgba(111, 214, 214, 0.4)"/><circle r="3" cx="430.090909090909" cy="450.00000000000006" stroke="none" fill="rgba(111, 214, 214, 0.4)"/><circle r="3" cx="452.7272727272727" cy="514.2857142857143" stroke="none" fill="rgba(111, 214, 214, 0.4)"/><circle r="3" cx="226.36363636363635" cy="342.8571428571429" stroke="none" fill="rgba(111, 214, 214, 0.4)"/><circle r="3" cx="392.3636363636363" cy="492.8571428571428" stroke="none" fill="rgba(111, 214, 214, 0.4)"/><circle r="3" cx="731.9090909090909" cy="471.42857142857144" stroke="none" fill="rgba(111, 214, 214, 0.4)"/><circle r="3" cx="256.54545454545456" cy="557.1428571428571" stroke="none" fill="rgba(111, 214, 214, 0.4)"/><circle r="3" cx="452.7272727272727" cy="492.8571428571428" stroke="none" fill="rgba(111, 214, 214, 0.4)"/><circle r="3" cx="233.9090909090909" cy="621.4285714285713" stroke="none" fill="rgba(111, 214, 214, 0.4)"/><circle r="3" cx="528.1818181818181" cy="407.1428571428571" stroke="none" fill="rgba(111, 214, 214, 0.4)"/><circle r="3" cx="377.27272727272725" cy="450.00000000000006" stroke="none" fill="rgba(111, 214, 214, 0.4)"/><circle r="3" cx="301.8181818181818" cy="492.8571428571428" stroke="none" fill="rgba(111, 214, 214, 0.4)"/><circle r="3" cx="82.99999999999997" cy="514.2857142857143" stroke="none" fill="rgba(111, 214, 214, 0.4)"/><circle r="3" cx="279.18181818181813" cy="535.7142857142858" stroke="none" fill="rgba(111, 214, 214, 0.4)"/><circle r="3" cx="143.3636363636364" cy="471.42857142857144" stroke="none" fill="rgba(111, 214, 214, 0.4)"/><circle r="3" cx="218.81818181818184" cy="471.42857142857144" stroke="none" fill="rgba(111, 214, 214, 0.4)"/><circle r="3" cx="226.36363636363635" cy="600" stroke="none" fill="rgba(111, 214, 214, 0.4)"/><circle r="3" cx="611.1818181818181" cy="300" stroke="none" fill="rgba(111, 214, 214, 0.4)"/><circle r="3" cx="181.09090909090912" cy="471.42857142857144" stroke="none" fill="rgba(111, 214, 214, 0.4)"/><circle r="3" cx="120.7272727272727" cy="685.7142857142857" stroke="none" fill="rgba(111, 214, 214, 0.4)"/><circle r="3" cx="565.9090909090909" cy="471.42857142857144" stroke="none" fill="rgba(111, 214, 214, 0.4)"/><circle r="3" cx="498" cy="385.71428571428567" stroke="none" fill="rgba(111, 214, 214, 0.4)"/><circle r="3" cx="309.3636363636363" cy="257.14285714285717" stroke="none" fill="rgba(111, 214, 214, 0.4)"/><circle r="3" cx="301.8181818181818" cy="557.1428571428571" stroke="none" fill="rgba(111, 214, 214, 0.4)"/><circle r="3" cx="60.36363636363635" cy="535.7142857142858" stroke="none" fill="rgba(111, 214, 214, 0.4)"/><circle r="3" cx="249.00000000000003" cy="664.2857142857143" stroke="none" fill="rgba(111, 214, 214, 0.4)"/><circle r="3" cx="188.63636363636363" cy="514.2857142857143" stroke="none" fill="rgba(111, 214, 214, 0.4)"/><circle r="3" cx="415" cy="342.8571428571429" stroke="none" fill="rgba(111, 214, 214, 0.4)"/><circle r="3" cx="399.90909090909093" cy="428.57142857142856" stroke="none" fill="rgba(111, 214, 214, 0.4)"/><circle r="3" cx="399.90909090909093" cy="428.57142857142856" stroke="none" fill="rgba(111, 214, 214, 0.4)"/><circle r="3" cx="452.7272727272727" cy="214.28571428571428" stroke="none" fill="rgba(111, 214, 214, 0.4)"/><circle r="3" cx="188.63636363636363" cy="407.1428571428571" stroke="none" fill="rgba(111, 214, 214, 0.4)"/><circle r="3" cx="211.27272727272734" cy="664.2857142857143" stroke="none" fill="rgba(111, 214, 214, 0.4)"/><circle r="3" cx="158.45454545454544" cy="685.7142857142857" stroke="none" fill="rgba(111, 214, 214, 0.4)"/><circle r="3" cx="294.27272727272725" cy="514.2857142857143" stroke="none" fill="rgba(111, 214, 214, 0.4)"/><circle r="3" cx="407.4545454545455" cy="471.42857142857144" stroke="none" fill="rgba(111, 214, 214, 0.4)"/><circle r="3" cx="279.18181818181813" cy="450.00000000000006" stroke="none" fill="rgba(111, 214, 214, 0.4)"/><circle r="3" cx="558.3636363636364" cy="428.57142857142856" stroke="none" fill="rgba(111, 214, 214, 0.4)"/><circle r="3" cx="505.5454545454545" cy="471.42857142857144" stroke="none" fill="rgba(111, 214, 214, 0.4)"/><circle r="3" cx="218.81818181818184" cy="557.1428571428571" stroke="none" fill="rgba(111, 214, 214, 0.4)"/><circle r="3" cx="324.4545454545455" cy="578.5714285714286" stroke="none" fill="rgba(111, 214, 214, 0.4)"/><circle r="3" cx="294.27272727272725" cy="514.2857142857143" stroke="none" fill="rgba(111, 214, 214, 0.4)"/><circle r="3" cx="354.63636363636357" cy="342.8571428571429" stroke="none" fill="rgba(111, 214, 214, 0.4)"/><circle r="3" cx="120.7272727272727" cy="642.8571428571429" stroke="none" fill="rgba(111, 214, 214, 0.4)"/><circle r="3" cx="415" cy="492.8571428571428" stroke="none" fill="rgba(111, 214, 214, 0.4)"/><circle r="3" cx="656.4545454545455" cy="450.00000000000006" stroke="none" fill="rgba(111, 214, 214, 0.4)"/><circle r="3" cx="143.3636363636364" cy="535.7142857142858" stroke="none" fill="rgba(111, 214, 214, 0.4)"/><circle r="3" cx="354.63636363636357" cy="471.42857142857144" stroke="none" fill="rgba(111, 214, 214, 0.4)"/><circle r="3" cx="203.7272727272727" cy="578.5714285714286" stroke="none" fill="rgba(111, 214, 214, 0.4)"/><circle r="3" cx="211.27272727272734" cy="557.1428571428571" stroke="none" fill="rgba(111, 214, 214, 0.4)"/><circle r="3" cx="158.45454545454544" cy="492.8571428571428" stroke="none" fill="rgba(111, 214, 214, 0.4)"/><circle r="3" cx="226.36363636363635" cy="642.8571428571429" stroke="none" fill="rgba(111, 214, 214, 0.4)"/><circle r="3" cx="415" cy="428.57142857142856" stroke="none" fill="rgba(111, 214, 214, 0.4)"/><circle r="3" cx="279.18181818181813" cy="385.71428571428567" stroke="none" fill="rgba(111, 214, 214, 0.4)"/><circle r="3" cx="286.7272727272728" cy="621.4285714285713" stroke="none" fill="rgba(111, 214, 214, 0.4)"/><circle r="3" cx="377.27272727272725" cy="385.71428571428567" stroke="none" fill="rgba(111, 214, 214, 0.4)"/><circle r="3" cx="430.090909090909" cy="514.2857142857143" stroke="none" fill="rgba(111, 214, 214, 0.4)"/><circle r="3" cx="354.63636363636357" cy="407.1428571428571" stroke="none" fill="rgba(111, 214, 214, 0.4)"/><circle r="3" cx="332" cy="492.8571428571428" stroke="none" fill="rgba(111, 214, 214, 0.4)"/><circle r="3" cx="792.2727272727273" cy="492.8571428571428" stroke="none" fill="rgba(111, 214, 214, 0.4)"/><circle r="3" cx="226.36363636363635" cy="514.2857142857143" stroke="none" fill="rgba(111, 214, 214, 0.4)"/><circle r="3" cx="437.6363636363637" cy="450.00000000000006" stroke="none" fill="rgba(111, 214, 214, 0.4)"/><circle r="3" cx="249.00000000000003" cy="621.4285714285713" stroke="none" fill="rgba(111, 214, 214, 0.4)"/><circle r="3" cx="505.5454545454545" cy="321.42857142857144" stroke="none" fill="rgba(111, 214, 214, 0.4)"/><circle r="3" cx="407.4545454545455" cy="492.8571428571428" stroke="none" fill="rgba(111, 214, 214, 0.4)"/><circle r="3" cx="294.27272727272725" cy="492.8571428571428" stroke="none" fill="rgba(111, 214, 214, 0.4)"/><circle r="3" cx="75.45454545454545" cy="514.2857142857143" stroke="none" fill="rgba(111, 214, 214, 0.4)"/><circle r="3" cx="324.4545454545455" cy="578.5714285714286" stroke="none" fill="rgba(111, 214, 214, 0.4)"/><circle r="3" cx="165.99999999999994" cy="535.7142857142858" stroke="none" fill="rgba(111, 214, 214, 0.4)"/><circle r="3" cx="181.09090909090912" cy="364.28571428571433" stroke="none" fill="rgba(111, 214, 214, 0.4)"/><circle r="3" cx="181.09090909090912" cy="600" stroke="none" fill="rgba(111, 214, 214, 0.4)"/><circle r="3" cx="641.3636363636364" cy="300" stroke="none" fill="rgba(111, 214, 214, 0.4)"/><circle r="3" cx="181.09090909090912" cy="471.42857142857144" stroke="none" fill="rgba(111, 214, 214, 0.4)"/></g><g transform="translate(40,20)"><path fill="none" stroke="rgba(111, 214, 214, 0.8)" stroke-width="2" d="M37.72727272727273,595.6354747535139L52.818181818181834,590.900576046142L60.36363636363635,588.5079235690072L75.45454545454545,583.6679289673349L82.99999999999997,581.2197989916591L90.54545454545456,578.7527854853697L98.09090909090908,576.2675592925816L105.63636363636367,573.7654325369723L120.7272727272727,568.7110990676126L128.27272727272728,566.156906414772L135.81818181818178,563.5822999098025L143.3636363636364,560.9851326005653L150.9090909090909,558.364435912424L158.45454545454544,555.7219268185005L165.99999999999994,553.0597197375334L173.5454545454546,550.3792044646664L181.09090909090912,547.6801519741471L188.63636363636363,544.9608408255023L196.18181818181816,542.2199496672323L203.7272727272727,539.4566801002976L211.27272727272734,536.6701796780916L218.81818181818184,533.8582883307816L226.36363636363635,531.0162481960416L233.9090909090909,528.1362076736401L241.4545454545454,525.2061929553544L249.00000000000003,522.2096577408574L256.54545454545456,518.948945485444L264.09090909090907,515.8072150667314L271.63636363636357,512.4197867900465L279.18181818181813,509.1949073854245L286.7272727272728,505.9334023495887L294.27272727272725,502.7157549861318L301.8181818181818,499.5447791065214L309.3636363636363,496.4168218139689L316.9090909090909,493.32629503236365L324.4545454545455,490.6157890677313L332,487.9575545712851L339.54545454545456,485.0131476238352L347.09090909090907,482.0875454574609L354.63636363636357,479.49099509165285L362.18181818181824,476.93358354842104L369.72727272727275,474.1668356333221L377.27272727272725,471.7146574588352L384.8181818181818,469.2431739130922L392.3636363636363,466.7172704826558L399.90909090909093,464.10753665969366L407.4545454545455,461.5205678127359L415,458.8919455607206L422.5454545454545,456.2474721765948L430.090909090909,453.60581875094306L437.6363636363637,450.9795645987869L445.1818181818182,448.38202525340677L452.7272727272727,445.8245400702022L460.2727272727273,443.3119437638923L467.8181818181818,441.1898678475L475.3636363636364,438.8075556257111L490.4545454545455,434.20115358858516L498,431.968900167252L505.5454545454545,429.7762545381275L520.6363636363636,425.4872610277685L528.1818181818181,423.3810270065098L558.3636363636364,415.12489721039594L565.9090909090909,413.0915170647965L588.5454545454545,407.032036584153L611.1818181818181,400.98026931123667L641.3636363636364,392.84444492567593L656.4545454545455,388.7465009620611L671.5454545454545,384.6346488478893L731.9090909090909,368.11982560969864L784.7272727272726,353.67320197991097L792.2727272727273,351.61386416627676"/></g></svg>