<svg viewBox="0,0,900,800" color="rgba(5, 5, 38, 0.5)" width="600" xmlns="http://www.w3.org/2000/svg" xmlns:xlink="http://www.w3.org/1999/xlink"><g transform="translate(40,5)"><rect fill="#F7FBFB" x="0" y="0" width="845" height="765"/></g><g transform="translate(40,770)" fill="none" font-size="10" font-family="sans-serif" text-anchor="middle"><g class="tick" opacity="1" transform="translate(0.5,0)"><line stroke="currentColor" y2="6"/><text fill="currentColor" y="9" dy="0.71em" font-size="12">6</text></g><g class="tick" opacity="1" transform="translate(75.95454545454545,0)"><line stroke="currentColor" y2="6"/><text fill="currentColor" y="9" dy="0.71em" font-size="12">7</text></g><g class="tick" opacity="1" transform="translate(151.4090909090909,0)"><line stroke="currentColor" y2="6"/><text fill="currentColor" y="9" dy="0.71em" font-size="12">8</text></g><g class="tick" opacity="1" transform="translate(226.86363636363635,0)"><line stroke="currentColor" y2="6"/><text fill="currentColor" y="9" dy="0.71em" font-size="12">9</text></g><g class="tick" opacity="1" transform="translate(302.3181818181818,0)"><line stroke="currentColor" y2="6"/><text fill="currentColor" y="9" dy="0.71em" font-size="12">10</text></g><g class="tick" opacity="1" transform="translate(377.77272727272725,0)"><line stroke="currentColor" y2="6"/><text fill="currentColor" y="9" dy="0.71em" font-size="12">11</text></g><g class="tick" opacity="1" transform="translate(453.2272727272727,0)"><line stroke="currentColor" y2="6"/><text fill="currentColor" y="9" dy="0.71em" font-size="12">12</text></g><g class="tick" opacity="1" transform="translate(528.6818181818181,0)"><line stroke="currentColor" y2="6"/><text fill="currentColor" y="9" dy="0.71em" font-size="12">13</text></g><g class="tick" opacity="1" transform="translate(604.1363636363636,0)"><line stroke="currentColor" y2="6"/><text fill="currentColor" y="9" dy="0.71em" font-size="12">14</text></g><g class="tick" opacity="1" transform="translate(679.5909090909091,0)"><line stroke="currentColor" y2="6"/><text fill="currentColor" y="9" dy="0.71em" font-size="12">15</text></g><g class="tick" opacity="1" transform="translate(755.0454545454545,0)"><line stroke="currentColor" y2="6"/><text fill="currentColor" y="9" dy="0.71em" font-size="12">16</text></g><g class="tick" opacity="1" transform="translate(830.5,0)"><line stroke="currentColor" y2="6"/><text fill="currentColor" y="9" dy="0.71em" font-size="12">17</text></g><text fill="rgba(5, 5, 38, 0.5)" font-weight="bold" text-anchor="end" font-size="12" x="830" y="-12">Diabetes</text></g><g transform="translate(40,20)" fill="none" font-size="10" font-family="sans-serif" text-anchor="end"><g class="tick" opacity="1" transform="translate(0,750.5)"><line stroke="currentColor" x2="-6"/><text fill="currentColor" x="-9" dy="0.32em" font-size="12">50</text></g><g class="tick" opacity="1" transform="translate(0,682.3181818181818)"><line stroke="currentColor" x2="-6"/><text fill="currentColor" x="-9" dy="0.32em" font-size="12">52</text></g><g class="tick" opacity="1" transform="translate(0,614.1363636363636)"><line stroke="currentColor" x2="-6"/><text fill="currentColor" x="-9" dy="0.32em" font-size="12">54</text></g><g class="tick" opacity="1" transform="translate(0,545.9545454545455)"><line stroke="currentColor" x2="-6"/><text fill="currentColor" x="-9" dy="0.32em" font-size="12">56</text></g><g class="tick" opacity="1" transform="translate(0,477.77272727272725)"><line stroke="currentColor" x2="-6"/><text fill="currentColor" x="-9" dy="0.32em" font-size="12">58</text></g><g class="tick" opacity="1" transform="translate(0,409.59090909090907)"><line stroke="currentColor" x2="-6"/><text fill="currentColor" x="-9" dy="0.32em" font-size="12">60</text></g><g class="tick" opacity="1" transform="translate(0,341.40909090909093)"><line stroke="currentColor" x2="-6"/><text fill="currentColor" x="-9" dy="0.32em" font-size="12">62</text></g><g class="tick" opacity="1" transform="translate(0,273.22727272727275)"><line stroke="currentColor" x2="-6"/><text fill="currentColor" x="-9" dy="0.32em" font-size="12">64</text></g><g class="tick" opacity="1" transform="translate(0,205.04545454545453)"><line stroke="currentColor" x2="-6"/><text fill="currentColor" x="-9" dy="0.32em" font-size="12">66</text></g><g class="tick" opacity="1" transform="translate(0,136.86363636363632)"><line stroke="currentColor" x2="-6"/><text fill="currentColor" x="-9" dy="0.32em" font-size="12">68</text></g><g class="tick" opacity="1" transform="translate(0,68.6818181818182)"><line stroke="currentColor" x2="-6"/><text fill="currentColor" x="-9" dy="0.32em" font-size="12">70</text></g><g class="tick" opacity="1" transform="translate(0,0.5)"><line stroke="currentColor" x2="-6"/><text fill="currentColor" x="-9" dy="0.32em" font-size="12">72</text><text fill="rgba(5, 5, 38, 0.5)" x="8" dy="0.32em" font-size="12" text-anchor="start" font-weight="bold">Overweight</text></g></g><g transform="translate(40,20)"><circle r="3" cx="143.3636363636364" cy="194.31818181818196" stroke="none" fill="rgba(39, 181, 234, 0.4)"/><circle r="3" cx="437.6363636363637" cy="180.68181818181804" stroke="none" fill="rgba(39, 181, 234, 0.4)"/><circle r="3" cx="332" cy="242.0454545454543" stroke="none" fill="rgba(39, 181, 234, 0.4)"/><circle r="3" cx="264.09090909090907" cy="330.68181818181824" stroke="none" fill="rgba(39, 181, 234, 0.4)"/><circle r="3" cx="218.81818181818184" cy="402.27272727272714" stroke="none" fill="rgba(39, 181, 234, 0.4)"/><circle r="3" cx="52.818181818181834" cy="542.0454545454545" stroke="none" fill="rgba(39, 181, 234, 0.4)"/><circle r="3" cx="249.00000000000003" cy="422.72727272727263" stroke="none" fill="rgba(39, 181, 234, 0.4)"/><circle r="3" cx="233.9090909090909" cy="651.1363636363637" stroke="none" fill="rgba(39, 181, 234, 0.4)"/><circle r="3" cx="279.18181818181813" cy="279.5454545454547" stroke="none" fill="rgba(39, 181, 234, 0.4)"/><circle r="3" cx="332" cy="296.59090909090924" stroke="none" fill="rgba(39, 181, 234, 0.4)"/><circle r="3" cx="316.9090909090909" cy="317.04545454545445" stroke="none" fill="rgba(39, 181, 234, 0.4)"/><circle r="3" cx="294.27272727272725" cy="272.72727272727275" stroke="none" fill="rgba(39, 181, 234, 0.4)"/><circle r="3" cx="181.09090909090912" cy="555.681818181818" stroke="none" fill="rgba(39, 181, 234, 0.4)"/><circle r="3" cx="165.99999999999994" cy="245.45454545454552" stroke="none" fill="rgba(39, 181, 234, 0.4)"/><circle r="3" cx="256.54545454545456" cy="330.68181818181824" stroke="none" fill="rgba(39, 181, 234, 0.4)"/><circle r="3" cx="279.18181818181813" cy="269.318181818182" stroke="none" fill="rgba(39, 181, 234, 0.4)"/><circle r="3" cx="316.9090909090909" cy="218.18181818181833" stroke="none" fill="rgba(39, 181, 234, 0.4)"/><circle r="3" cx="264.09090909090907" cy="259.09090909090895" stroke="none" fill="rgba(39, 181, 234, 0.4)"/><circle r="3" cx="362.18181818181824" cy="187.5" stroke="none" fill="rgba(39, 181, 234, 0.4)"/><circle r="3" cx="437.6363636363637" cy="150.00000000000023" stroke="none" fill="rgba(39, 181, 234, 0.4)"/><circle r="3" cx="150.9090909090909" cy="432.95454545454555" stroke="none" fill="rgba(39, 181, 234, 0.4)"/><circle r="3" cx="264.09090909090907" cy="259.09090909090895" stroke="none" fill="rgba(39, 181, 234, 0.4)"/><circle r="3" cx="271.63636363636357" cy="238.63636363636368" stroke="none" fill="rgba(39, 181, 234, 0.4)"/><circle r="3" cx="301.8181818181818" cy="224.99999999999977" stroke="none" fill="rgba(39, 181, 234, 0.4)"/><circle r="3" cx="98.09090909090908" cy="327.2727272727273" stroke="none" fill="rgba(39, 181, 234, 0.4)"/><circle r="3" cx="316.9090909090909" cy="245.45454545454552" stroke="none" fill="rgba(39, 181, 234, 0.4)"/><circle r="3" cx="475.3636363636364" cy="105.68181818181799" stroke="none" fill="rgba(39, 181, 234, 0.4)"/><circle r="3" cx="150.9090909090909" cy="398.8636363636365" stroke="none" fill="rgba(39, 181, 234, 0.4)"/><circle r="3" cx="369.72727272727275" cy="235.22727272727295" stroke="none" fill="rgba(39, 181, 234, 0.4)"/><circle r="3" cx="165.99999999999994" cy="279.5454545454547" stroke="none" fill="rgba(39, 181, 234, 0.4)"/><circle r="3" cx="181.09090909090912" cy="242.0454545454543" stroke="none" fill="rgba(39, 181, 234, 0.4)"/><circle r="3" cx="203.7272727272727" cy="354.5454545454545" stroke="none" fill="rgba(39, 181, 234, 0.4)"/><circle r="3" cx="211.27272727272734" cy="357.9545454545455" stroke="none" fill="rgba(39, 181, 234, 0.4)"/><circle r="3" cx="294.27272727272725" cy="334.090909090909" stroke="none" fill="rgba(39, 181, 234, 0.4)"/><circle r="3" cx="324.4545454545455" cy="402.27272727272714" stroke="none" fill="rgba(39, 181, 234, 0.4)"/><circle r="3" cx="332" cy="398.8636363636365" stroke="none" fill="rgba(39, 181, 234, 0.4)"/><circle r="3" cx="301.8181818181818" cy="207.95454545454524" stroke="none" fill="rgba(39, 181, 234, 0.4)"/><circle r="3" cx="384.8181818181818" cy="224.99999999999977" stroke="none" fill="rgba(39, 181, 234, 0.4)"/><circle r="3" cx="249.00000000000003" cy="357.9545454545455" stroke="none" fill="rgba(39, 181, 234, 0.4)"/><circle r="3" cx="264.09090909090907" cy="255.68181818181822" stroke="none" fill="rgba(39, 181, 234, 0.4)"/><circle r="3" cx="565.9090909090909" cy="197.72727272727266" stroke="none" fill="rgba(39, 181, 234, 0.4)"/><circle r="3" cx="181.09090909090912" cy="327.2727272727273" stroke="none" fill="rgba(39, 181, 234, 0.4)"/><circle r="3" cx="460.2727272727273" cy="207.95454545454524" stroke="none" fill="rgba(39, 181, 234, 0.4)"/><circle r="3" cx="264.09090909090907" cy="259.09090909090895" stroke="none" fill="rgba(39, 181, 234, 0.4)"/><circle r="3" cx="392.3636363636363" cy="187.5" stroke="none" fill="rgba(39, 181, 234, 0.4)"/><circle r="3" cx="316.9090909090909" cy="211.3636363636365" stroke="none" fill="rgba(39, 181, 234, 0.4)"/><circle r="3" cx="264.09090909090907" cy="279.5454545454547" stroke="none" fill="rgba(39, 181, 234, 0.4)"/><circle r="3" cx="52.818181818181834" cy="446.5909090909091" stroke="none" fill="rgba(39, 181, 234, 0.4)"/><circle r="3" cx="332" cy="296.59090909090924" stroke="none" fill="rgba(39, 181, 234, 0.4)"/><circle r="3" cx="128.27272727272728" cy="415.909090909091" stroke="none" fill="rgba(39, 181, 234, 0.4)"/><circle r="3" cx="218.81818181818184" cy="375" stroke="none" fill="rgba(39, 181, 234, 0.4)"/><circle r="3" cx="181.09090909090912" cy="272.72727272727275" stroke="none" fill="rgba(39, 181, 234, 0.4)"/><circle r="3" cx="452.7272727272727" cy="105.68181818181799" stroke="none" fill="rgba(39, 181, 234, 0.4)"/><circle r="3" cx="165.99999999999994" cy="364.7727272727273" stroke="none" fill="rgba(39, 181, 234, 0.4)"/><circle r="3" cx="75.45454545454545" cy="245.45454545454552" stroke="none" fill="rgba(39, 181, 234, 0.4)"/><circle r="3" cx="392.3636363636363" cy="146.590909090909" stroke="none" fill="rgba(39, 181, 234, 0.4)"/><circle r="3" cx="399.90909090909093" cy="112.49999999999993" stroke="none" fill="rgba(39, 181, 234, 0.4)"/><circle r="3" cx="347.09090909090907" cy="340.90909090909093" stroke="none" fill="rgba(39, 181, 234, 0.4)"/><circle r="3" cx="286.7272727272728" cy="398.8636363636365" stroke="none" fill="rgba(39, 181, 234, 0.4)"/><circle r="3" cx="105.63636363636367" cy="555.681818181818" stroke="none" fill="rgba(39, 181, 234, 0.4)"/><circle r="3" cx="233.9090909090909" cy="330.68181818181824" stroke="none" fill="rgba(39, 181, 234, 0.4)"/><circle r="3" cx="165.99999999999994" cy="685.2272727272727" stroke="none" fill="rgba(39, 181, 234, 0.4)"/><circle r="3" cx="271.63636363636357" cy="204.54545454545453" stroke="none" fill="rgba(39, 181, 234, 0.4)"/><circle r="3" cx="407.4545454545455" cy="337.49999999999994" stroke="none" fill="rgba(39, 181, 234, 0.4)"/><circle r="3" cx="294.27272727272725" cy="252.27272727272748" stroke="none" fill="rgba(39, 181, 234, 0.4)"/><circle r="3" cx="271.63636363636357" cy="357.9545454545455" stroke="none" fill="rgba(39, 181, 234, 0.4)"/><circle r="3" cx="135.81818181818178" cy="545.4545454545455" stroke="none" fill="rgba(39, 181, 234, 0.4)"/><circle r="3" cx="211.27272727272734" cy="248.86363636363626" stroke="none" fill="rgba(39, 181, 234, 0.4)"/><circle r="3" cx="188.63636363636363" cy="323.8636363636363" stroke="none" fill="rgba(39, 181, 234, 0.4)"/><circle r="3" cx="256.54545454545456" cy="272.72727272727275" stroke="none" fill="rgba(39, 181, 234, 0.4)"/><circle r="3" cx="369.72727272727275" cy="221.59090909090907" stroke="none" fill="rgba(39, 181, 234, 0.4)"/><circle r="3" cx="256.54545454545456" cy="218.18181818181833" stroke="none" fill="rgba(39, 181, 234, 0.4)"/><circle r="3" cx="354.63636363636357" cy="173.8636363636362" stroke="none" fill="rgba(39, 181, 234, 0.4)"/><circle r="3" cx="475.3636363636364" cy="81.81818181818201" stroke="none" fill="rgba(39, 181, 234, 0.4)"/><circle r="3" cx="173.5454545454546" cy="450.00000000000006" stroke="none" fill="rgba(39, 181, 234, 0.4)"/><circle r="3" cx="316.9090909090909" cy="279.5454545454547" stroke="none" fill="rgba(39, 181, 234, 0.4)"/><circle r="3" cx="279.18181818181813" cy="265.90909090909076" stroke="none" fill="rgba(39, 181, 234, 0.4)"/><circle r="3" cx="339.54545454545456" cy="218.18181818181833" stroke="none" fill="rgba(39, 181, 234, 0.4)"/><circle r="3" cx="98.09090909090908" cy="306.8181818181818" stroke="none" fill="rgba(39, 181, 234, 0.4)"/><circle r="3" cx="354.63636363636357" cy="214.7727272727272" stroke="none" fill="rgba(39, 181, 234, 0.4)"/><circle r="3" cx="490.4545454545455" cy="105.68181818181799" stroke="none" fill="rgba(39, 181, 234, 0.4)"/><circle r="3" cx="90.54545454545456" cy="364.7727272727273" stroke="none" fill="rgba(39, 181, 234, 0.4)"/><circle r="3" cx="332" cy="211.3636363636365" stroke="none" fill="rgba(39, 181, 234, 0.4)"/><circle r="3" cx="196.18181818181816" cy="197.72727272727266" stroke="none" fill="rgba(39, 181, 234, 0.4)"/><circle r="3" cx="158.45454545454544" cy="238.63636363636368" stroke="none" fill="rgba(39, 181, 234, 0.4)"/><circle r="3" cx="233.9090909090909" cy="337.49999999999994" stroke="none" fill="rgba(39, 181, 234, 0.4)"/><circle r="3" cx="249.00000000000003" cy="354.5454545454545" stroke="none" fill="rgba(39, 181, 234, 0.4)"/><circle r="3" cx="324.4545454545455" cy="313.63636363636374" stroke="none" fill="rgba(39, 181, 234, 0.4)"/><circle r="3" cx="188.63636363636363" cy="323.8636363636363" stroke="none" fill="rgba(39, 181, 234, 0.4)"/><circle r="3" cx="279.18181818181813" cy="388.63636363636357" stroke="none" fill="rgba(39, 181, 234, 0.4)"/><circle r="3" cx="430.090909090909" cy="228.409090909091" stroke="none" fill="rgba(39, 181, 234, 0.4)"/><circle r="3" cx="415" cy="143.18181818181827" stroke="none" fill="rgba(39, 181, 234, 0.4)"/><circle r="3" cx="294.27272727272725" cy="368.1818181818181" stroke="none" fill="rgba(39, 181, 234, 0.4)"/><circle r="3" cx="316.9090909090909" cy="242.0454545454543" stroke="none" fill="rgba(39, 181, 234, 0.4)"/><circle r="3" cx="784.7272727272726" cy="201.1363636363638" stroke="none" fill="rgba(39, 181, 234, 0.4)"/><circle r="3" cx="286.7272727272728" cy="310.22727272727275" stroke="none" fill="rgba(39, 181, 234, 0.4)"/><circle r="3" cx="422.5454545454545" cy="201.1363636363638" stroke="none" fill="rgba(39, 181, 234, 0.4)"/><circle r="3" cx="135.81818181818178" cy="201.1363636363638" stroke="none" fill="rgba(39, 181, 234, 0.4)"/><circle r="3" cx="445.1818181818182" cy="224.99999999999977" stroke="none" fill="rgba(39, 181, 234, 0.4)"/><circle r="3" cx="347.09090909090907" cy="235.22727272727295" stroke="none" fill="rgba(39, 181, 234, 0.4)"/><circle r="3" cx="279.18181818181813" cy="265.90909090909076" stroke="none" fill="rgba(39, 181, 234, 0.4)"/><circle r="3" cx="90.54545454545456" cy="484.0909090909091" stroke="none" fill="rgba(39, 181, 234, 0.4)"/><circle r="3" cx="347.09090909090907" cy="286.3636363636363" stroke="none" fill="rgba(39, 181, 234, 0.4)"/><circle r="3" cx="98.09090909090908" cy="398.8636363636365" stroke="none" fill="rgba(39, 181, 234, 0.4)"/><circle r="3" cx="211.27272727272734" cy="334.090909090909" stroke="none" fill="rgba(39, 181, 234, 0.4)"/><circle r="3" cx="173.5454545454546" cy="190.90909090909074" stroke="none" fill="rgba(39, 181, 234, 0.4)"/><circle r="3" cx="528.1818181818181" cy="126.13636363636374" stroke="none" fill="rgba(39, 181, 234, 0.4)"/><circle r="3" cx="233.9090909090909" cy="296.59090909090924" stroke="none" fill="rgba(39, 181, 234, 0.4)"/><circle r="3" cx="82.99999999999997" cy="201.1363636363638" stroke="none" fill="rgba(39, 181, 234, 0.4)"/><circle r="3" cx="588.5454545454545" cy="129.54545454545448" stroke="none" fill="rgba(39, 181, 234, 0.4)"/><circle r="3" cx="415" cy="71.59090909090892" stroke="none" fill="rgba(39, 181, 234, 0.4)"/><circle r="3" cx="354.63636363636357" cy="347.7272727272728" stroke="none" fill="rgba(39, 181, 234, 0.4)"/><circle r="3" cx="316.9090909090909" cy="405.6818181818181" stroke="none" fill="rgba(39, 181, 234, 0.4)"/><circle r="3" cx="37.72727272727273" cy="531.8181818181819" stroke="none" fill="rgba(39, 181, 234, 0.4)"/><circle r="3" cx="173.5454545454546" cy="323.8636363636363" stroke="none" fill="rgba(39, 181, 234, 0.4)"/><circle r="3" cx="135.81818181818178" cy="620.4545454545455" stroke="none" fill="rgba(39, 181, 234, 0.4)"/><circle r="3" cx="384.8181818181818" cy="252.27272727272748" stroke="none" fill="rgba(39, 181, 234, 0.4)"/><circle r="3" cx="392.3636363636363" cy="313.63636363636374" stroke="none" fill="rgba(39, 181, 234, 0.4)"/><circle r="3" cx="362.18181818181824" cy="214.7727272727272" stroke="none" fill="rgba(39, 181, 234, 0.4)"/><circle r="3" cx="611.1818181818181" cy="289.77272727272725" stroke="none" fill="rgba(39, 181, 234, 0.4)"/><circle r="3" cx="181.09090909090912" cy="565.909090909091" stroke="none" fill="rgba(39, 181, 234, 0.4)"/><circle r="3" cx="249.00000000000003" cy="170.45454545454547" stroke="none" fill="rgba(39, 181, 234, 0.4)"/><circle r="3" cx="181.09090909090912" cy="242.0454545454543" stroke="none" fill="rgba(39, 181, 234, 0.4)"/><circle r="3" cx="294.27272727272725" cy="248.86363636363626" stroke="none" fill="rgba(39, 181, 234, 0.4)"/><circle r="3" cx="377.27272727272725" cy="160.2272727272728" stroke="none" fill="rgba(39, 181, 234, 0.4)"/><circle r="3" cx="271.63636363636357" cy="228.409090909091" stroke="none" fill="rgba(39, 181, 234, 0.4)"/><circle r="3" cx="347.09090909090907" cy="160.2272727272728" stroke="none" fill="rgba(39, 181, 234, 0.4)"/><circle r="3" cx="422.5454545454545" cy="156.81818181818167" stroke="none" fill="rgba(39, 181, 234, 0.4)"/><circle r="3" cx="188.63636363636363" cy="477.27272727272725" stroke="none" fill="rgba(39, 181, 234, 0.4)"/><circle r="3" cx="286.7272727272728" cy="269.318181818182" stroke="none" fill="rgba(39, 181, 234, 0.4)"/><circle r="3" cx="271.63636363636357" cy="245.45454545454552" stroke="none" fill="rgba(39, 181, 234, 0.4)"/><circle r="3" cx="332" cy="197.72727272727266" stroke="none" fill="rgba(39, 181, 234, 0.4)"/><circle r="3" cx="105.63636363636367" cy="371.590909090909" stroke="none" fill="rgba(39, 181, 234, 0.4)"/><circle r="3" cx="271.63636363636357" cy="221.59090909090907" stroke="none" fill="rgba(39, 181, 234, 0.4)"/><circle r="3" cx="520.6363636363636" cy="92.04545454545467" stroke="none" fill="rgba(39, 181, 234, 0.4)"/><circle r="3" cx="128.27272727272728" cy="361.36363636363643" stroke="none" fill="rgba(39, 181, 234, 0.4)"/><circle r="3" cx="407.4545454545455" cy="201.1363636363638" stroke="none" fill="rgba(39, 181, 234, 0.4)"/><circle r="3" cx="218.81818181818184" cy="150.00000000000023" stroke="none" fill="rgba(39, 181, 234, 0.4)"/><circle r="3" cx="241.4545454545454" cy="221.59090909090907" stroke="none" fill="rgba(39, 181, 234, 0.4)"/><circle r="3" cx="241.4545454545454" cy="347.7272727272728" stroke="none" fill="rgba(39, 181, 234, 0.4)"/><circle r="3" cx="241.4545454545454" cy="313.63636363636374" stroke="none" fill="rgba(39, 181, 234, 0.4)"/><circle r="3" cx="354.63636363636357" cy="317.04545454545445" stroke="none" fill="rgba(39, 181, 234, 0.4)"/><circle r="3" cx="271.63636363636357" cy="242.0454545454543" stroke="none" fill="rgba(39, 181, 234, 0.4)"/><circle r="3" cx="347.09090909090907" cy="364.7727272727273" stroke="none" fill="rgba(39, 181, 234, 0.4)"/><circle r="3" cx="332" cy="235.22727272727295" stroke="none" fill="rgba(39, 181, 234, 0.4)"/><circle r="3" cx="377.27272727272725" cy="139.77272727272705" stroke="none" fill="rgba(39, 181, 234, 0.4)"/><circle r="3" cx="241.4545454545454" cy="412.50000000000006" stroke="none" fill="rgba(39, 181, 234, 0.4)"/><circle r="3" cx="309.3636363636363" cy="255.68181818181822" stroke="none" fill="rgba(39, 181, 234, 0.4)"/><circle r="3" cx="671.5454545454545" cy="184.09090909090926" stroke="none" fill="rgba(39, 181, 234, 0.4)"/><circle r="3" cx="249.00000000000003" cy="252.27272727272748" stroke="none" fill="rgba(39, 181, 234, 0.4)"/><circle r="3" cx="490.4545454545455" cy="187.5" stroke="none" fill="rgba(39, 181, 234, 0.4)"/><circle r="3" cx="233.9090909090909" cy="170.45454545454547" stroke="none" fill="rgba(39, 181, 234, 0.4)"/><circle r="3" cx="467.8181818181818" cy="122.72727272727252" stroke="none" fill="rgba(39, 181, 234, 0.4)"/><circle r="3" cx="369.72727272727275" cy="201.1363636363638" stroke="none" fill="rgba(39, 181, 234, 0.4)"/><circle r="3" cx="271.63636363636357" cy="245.45454545454552" stroke="none" fill="rgba(39, 181, 234, 0.4)"/><circle r="3" cx="82.99999999999997" cy="436.36363636363626" stroke="none" fill="rgba(39, 181, 234, 0.4)"/><circle r="3" cx="286.7272727272728" cy="272.72727272727275" stroke="none" fill="rgba(39, 181, 234, 0.4)"/><circle r="3" cx="135.81818181818178" cy="344.3181818181818" stroke="none" fill="rgba(39, 181, 234, 0.4)"/><circle r="3" cx="196.18181818181816" cy="361.36363636363643" stroke="none" fill="rgba(39, 181, 234, 0.4)"/><circle r="3" cx="165.99999999999994" cy="187.5" stroke="none" fill="rgba(39, 181, 234, 0.4)"/><circle r="3" cx="528.1818181818181" cy="109.09090909090921" stroke="none" fill="rgba(39, 181, 234, 0.4)"/><circle r="3" cx="196.18181818181816" cy="259.09090909090895" stroke="none" fill="rgba(39, 181, 234, 0.4)"/><circle r="3" cx="105.63636363636367" cy="245.45454545454552" stroke="none" fill="rgba(39, 181, 234, 0.4)"/><circle r="3" cx="520.6363636363636" cy="170.45454545454547" stroke="none" fill="rgba(39, 181, 234, 0.4)"/><circle r="3" cx="505.5454545454545" cy="47.727272727272954" stroke="none" fill="rgba(39, 181, 234, 0.4)"/><circle r="3" cx="301.8181818181818" cy="272.72727272727275" stroke="none" fill="rgba(39, 181, 234, 0.4)"/><circle r="3" cx="324.4545454545455" cy="419.31818181818176" stroke="none" fill="rgba(39, 181, 234, 0.4)"/><circle r="3" cx="98.09090909090908" cy="497.72727272727275" stroke="none" fill="rgba(39, 181, 234, 0.4)"/><circle r="3" cx="241.4545454545454" cy="395.4545454545455" stroke="none" fill="rgba(39, 181, 234, 0.4)"/><circle r="3" cx="181.09090909090912" cy="582.9545454545455" stroke="none" fill="rgba(39, 181, 234, 0.4)"/><circle r="3" cx="384.8181818181818" cy="156.81818181818167" stroke="none" fill="rgba(39, 181, 234, 0.4)"/><circle r="3" cx="392.3636363636363" cy="334.090909090909" stroke="none" fill="rgba(39, 181, 234, 0.4)"/><circle r="3" cx="422.5454545454545" cy="214.7727272727272" stroke="none" fill="rgba(39, 181, 234, 0.4)"/><circle r="3" cx="362.18181818181824" cy="293.18181818181824" stroke="none" fill="rgba(39, 181, 234, 0.4)"/><circle r="3" cx="286.7272727272728" cy="473.8636363636364" stroke="none" fill="rgba(39, 181, 234, 0.4)"/><circle r="3" cx="264.09090909090907" cy="173.8636363636362" stroke="none" fill="rgba(39, 181, 234, 0.4)"/><circle r="3" cx="120.7272727272727" cy="214.7727272727272" stroke="none" fill="rgba(39, 181, 234, 0.4)"/><circle r="3" cx="309.3636363636363" cy="279.5454545454547" stroke="none" fill="rgba(39, 181, 234, 0.4)"/><circle r="3" cx="354.63636363636357" cy="187.5" stroke="none" fill="rgba(39, 181, 234, 0.4)"/><circle r="3" cx="324.4545454545455" cy="204.54545454545453" stroke="none" fill="rgba(39, 181, 234, 0.4)"/><circle r="3" cx="490.4545454545455" cy="180.68181818181804" stroke="none" fill="rgba(39, 181, 234, 0.4)"/><circle r="3" cx="399.90909090909093" cy="105.68181818181799" stroke="none" fill="rgba(39, 181, 234, 0.4)"/><circle r="3" cx="279.18181818181813" cy="446.5909090909091" stroke="none" fill="rgba(39, 181, 234, 0.4)"/><circle r="3" cx="309.3636363636363" cy="242.0454545454543" stroke="none" fill="rgba(39, 181, 234, 0.4)"/><circle r="3" cx="264.09090909090907" cy="255.68181818181822" stroke="none" fill="rgba(39, 181, 234, 0.4)"/><circle r="3" cx="332" cy="218.18181818181833" stroke="none" fill="rgba(39, 181, 234, 0.4)"/><circle r="3" cx="158.45454545454544" cy="269.318181818182" stroke="none" fill="rgba(39, 181, 234, 0.4)"/><circle r="3" cx="384.8181818181818" cy="218.18181818181833" stroke="none" fill="rgba(39, 181, 234, 0.4)"/><circle r="3" cx="528.1818181818181" cy="44.31818181818173" stroke="none" fill="rgba(39, 181, 234, 0.4)"/><circle r="3" cx="211.27272727272734" cy="306.8181818181818" stroke="none" fill="rgba(39, 181, 234, 0.4)"/><circle r="3" cx="362.18181818181824" cy="218.18181818181833" stroke="none" fill="rgba(39, 181, 234, 0.4)"/><circle r="3" cx="196.18181818181816" cy="109.09090909090921" stroke="none" fill="rgba(39, 181, 234, 0.4)"/><circle r="3" cx="241.4545454545454" cy="180.68181818181804" stroke="none" fill="rgba(39, 181, 234, 0.4)"/><circle r="3" cx="233.9090909090909" cy="286.3636363636363" stroke="none" fill="rgba(39, 181, 234, 0.4)"/><circle r="3" cx="279.18181818181813" cy="303.4090909090908" stroke="none" fill="rgba(39, 181, 234, 0.4)"/><circle r="3" cx="415" cy="242.0454545454543" stroke="none" fill="rgba(39, 181, 234, 0.4)"/><circle r="3" cx="271.63636363636357" cy="289.77272727272725" stroke="none" fill="rgba(39, 181, 234, 0.4)"/><circle r="3" cx="301.8181818181818" cy="371.590909090909" stroke="none" fill="rgba(39, 181, 234, 0.4)"/><circle r="3" cx="430.090909090909" cy="180.68181818181804" stroke="none" fill="rgba(39, 181, 234, 0.4)"/><circle r="3" cx="452.7272727272727" cy="129.54545454545448" stroke="none" fill="rgba(39, 181, 234, 0.4)"/><circle r="3" cx="226.36363636363635" cy="351.1363636363635" stroke="none" fill="rgba(39, 181, 234, 0.4)"/><circle r="3" cx="392.3636363636363" cy="269.318181818182" stroke="none" fill="rgba(39, 181, 234, 0.4)"/><circle r="3" cx="731.9090909090909" cy="207.95454545454524" stroke="none" fill="rgba(39, 181, 234, 0.4)"/><circle r="3" cx="256.54545454545456" cy="327.2727272727273" stroke="none" fill="rgba(39, 181, 234, 0.4)"/><circle r="3" cx="452.7272727272727" cy="170.45454545454547" stroke="none" fill="rgba(39, 181, 234, 0.4)"/><circle r="3" cx="233.9090909090909" cy="231.81818181818173" stroke="none" fill="rgba(39, 181, 234, 0.4)"/><circle r="3" cx="528.1818181818181" cy="167.04545454545476" stroke="none" fill="rgba(39, 181, 234, 0.4)"/><circle r="3" cx="377.27272727272725" cy="143.18181818181827" stroke="none" fill="rgba(39, 181, 234, 0.4)"/><circle r="3" cx="301.8181818181818" cy="242.0454545454543" stroke="none" fill="rgba(39, 181, 234, 0.4)"/><circle r="3" cx="82.99999999999997" cy="426.13636363636357" stroke="none" fill="rgba(39, 181, 234, 0.4)"/><circle r="3" cx="279.18181818181813" cy="248.86363636363626" stroke="none" fill="rgba(39, 181, 234, 0.4)"/><circle r="3" cx="143.3636363636364" cy="402.27272727272714" stroke="none" fill="rgba(39, 181, 234, 0.4)"/><circle r="3" cx="218.81818181818184" cy="293.18181818181824" stroke="none" fill="rgba(39, 181, 234, 0.4)"/><circle r="3" cx="226.36363636363635" cy="156.81818181818167" stroke="none" fill="rgba(39, 181, 234, 0.4)"/><circle r="3" cx="611.1818181818181" cy="81.81818181818201" stroke="none" fill="rgba(39, 181, 234, 0.4)"/><circle r="3" cx="181.09090909090912" cy="252.27272727272748" stroke="none" fill="rgba(39, 181, 234, 0.4)"/><circle r="3" cx="120.7272727272727" cy="163.6363636363635" stroke="none" fill="rgba(39, 181, 234, 0.4)"/><circle r="3" cx="565.9090909090909" cy="112.49999999999993" stroke="none" fill="rgba(39, 181, 234, 0.4)"/><circle r="3" cx="498" cy="85.22727272727273" stroke="none" fill="rgba(39, 181, 234, 0.4)"/><circle r="3" cx="309.3636363636363" cy="228.409090909091" stroke="none" fill="rgba(39, 181, 234, 0.4)"/><circle r="3" cx="301.8181818181818" cy="398.8636363636365" stroke="none" fill="rgba(39, 181, 234, 0.4)"/><circle r="3" cx="60.36363636363635" cy="525" stroke="none" fill="rgba(39, 181, 234, 0.4)"/><circle r="3" cx="249.00000000000003" cy="354.5454545454545" stroke="none" fill="rgba(39, 181, 234, 0.4)"/><circle r="3" cx="188.63636363636363" cy="600" stroke="none" fill="rgba(39, 181, 234, 0.4)"/><circle r="3" cx="415" cy="177.27272727272734" stroke="none" fill="rgba(39, 181, 234, 0.4)"/><circle r="3" cx="399.90909090909093" cy="269.318181818182" stroke="none" fill="rgba(39, 181, 234, 0.4)"/><circle r="3" cx="399.90909090909093" cy="221.59090909090907" stroke="none" fill="rgba(39, 181, 234, 0.4)"/><circle r="3" cx="452.7272727272727" cy="170.45454545454547" stroke="none" fill="rgba(39, 181, 234, 0.4)"/><circle r="3" cx="188.63636363636363" cy="511.36363636363643" stroke="none" fill="rgba(39, 181, 234, 0.4)"/><circle r="3" cx="211.27272727272734" cy="180.68181818181804" stroke="none" fill="rgba(39, 181, 234, 0.4)"/><circle r="3" cx="158.45454545454544" cy="231.81818181818173" stroke="none" fill="rgba(39, 181, 234, 0.4)"/><circle r="3" cx="294.27272727272725" cy="197.72727272727266" stroke="none" fill="rgba(39, 181, 234, 0.4)"/><circle r="3" cx="407.4545454545455" cy="187.5" stroke="none" fill="rgba(39, 181, 234, 0.4)"/><circle r="3" cx="279.18181818181813" cy="136.36363636363632" stroke="none" fill="rgba(39, 181, 234, 0.4)"/><circle r="3" cx="558.3636363636364" cy="163.6363636363635" stroke="none" fill="rgba(39, 181, 234, 0.4)"/><circle r="3" cx="505.5454545454545" cy="95.45454545454533" stroke="none" fill="rgba(39, 181, 234, 0.4)"/><circle r="3" cx="218.81818181818184" cy="419.31818181818176" stroke="none" fill="rgba(39, 181, 234, 0.4)"/><circle r="3" cx="324.4545454545455" cy="238.63636363636368" stroke="none" fill="rgba(39, 181, 234, 0.4)"/><circle r="3" cx="294.27272727272725" cy="187.5" stroke="none" fill="rgba(39, 181, 234, 0.4)"/><circle r="3" cx="354.63636363636357" cy="197.72727272727266" stroke="none" fill="rgba(39, 181, 234, 0.4)"/><circle r="3" cx="120.7272727272727" cy="313.63636363636374" stroke="none" fill="rgba(39, 181, 234, 0.4)"/><circle r="3" cx="415" cy="194.31818181818196" stroke="none" fill="rgba(39, 181, 234, 0.4)"/><circle r="3" cx="656.4545454545455" cy="64.77272727272748" stroke="none" fill="rgba(39, 181, 234, 0.4)"/><circle r="3" cx="143.3636363636364" cy="375" stroke="none" fill="rgba(39, 181, 234, 0.4)"/><circle r="3" cx="354.63636363636357" cy="211.3636363636365" stroke="none" fill="rgba(39, 181, 234, 0.4)"/><circle r="3" cx="203.7272727272727" cy="170.45454545454547" stroke="none" fill="rgba(39, 181, 234, 0.4)"/><circle r="3" cx="211.27272727272734" cy="170.45454545454547" stroke="none" fill="rgba(39, 181, 234, 0.4)"/><circle r="3" cx="158.45454545454544" cy="286.3636363636363" stroke="none" fill="rgba(39, 181, 234, 0.4)"/><circle r="3" cx="226.36363636363635" cy="293.18181818181824" stroke="none" fill="rgba(39, 181, 234, 0.4)"/><circle r="3" cx="415" cy="255.68181818181822" stroke="none" fill="rgba(39, 181, 234, 0.4)"/><circle r="3" cx="279.18181818181813" cy="248.86363636363626" stroke="none" fill="rgba(39, 181, 234, 0.4)"/><circle r="3" cx="286.7272727272728" cy="426.13636363636357" stroke="none" fill="rgba(39, 181, 234, 0.4)"/><circle r="3" cx="377.27272727272725" cy="187.5" stroke="none" fill="rgba(39, 181, 234, 0.4)"/><circle r="3" cx="430.090909090909" cy="105.68181818181799" stroke="none" fill="rgba(39, 181, 234, 0.4)"/><circle r="3" cx="354.63636363636357" cy="255.68181818181822" stroke="none" fill="rgba(39, 181, 234, 0.4)"/><circle r="3" cx="332" cy="197.72727272727266" stroke="none" fill="rgba(39, 181, 234, 0.4)"/><circle r="3" cx="792.2727272727273" cy="170.45454545454547" stroke="none" fill="rgba(39, 181, 234, 0.4)"/><circle r="3" cx="226.36363636363635" cy="320.45454545454544" stroke="none" fill="rgba(39, 181, 234, 0.4)"/><circle r="3" cx="437.6363636363637" cy="197.72727272727266" stroke="none" fill="rgba(39, 181, 234, 0.4)"/><circle r="3" cx="249.00000000000003" cy="255.68181818181822" stroke="none" fill="rgba(39, 181, 234, 0.4)"/><circle r="3" cx="505.5454545454545" cy="112.49999999999993" stroke="none" fill="rgba(39, 181, 234, 0.4)"/><circle r="3" cx="407.4545454545455" cy="112.49999999999993" stroke="none" fill="rgba(39, 181, 234, 0.4)"/><circle r="3" cx="294.27272727272725" cy="221.59090909090907" stroke="none" fill="rgba(39, 181, 234, 0.4)"/><circle r="3" cx="75.45454545454545" cy="422.72727272727263" stroke="none" fill="rgba(39, 181, 234, 0.4)"/><circle r="3" cx="324.4545454545455" cy="269.318181818182" stroke="none" fill="rgba(39, 181, 234, 0.4)"/><circle r="3" cx="165.99999999999994" cy="412.50000000000006" stroke="none" fill="rgba(39, 181, 234, 0.4)"/><circle r="3" cx="181.09090909090912" cy="323.8636363636363" stroke="none" fill="rgba(39, 181, 234, 0.4)"/><circle r="3" cx="181.09090909090912" cy="204.54545454545453" stroke="none" fill="rgba(39, 181, 234, 0.4)"/><circle r="3" cx="641.3636363636364" cy="30.681818181818336" stroke="none" fill="rgba(39, 181, 234, 0.4)"/><circle r="3" cx="181.09090909090912" cy="224.99999999999977" stroke="none" fill="rgba(39, 181, 234, 0.4)"/></g><g transform="translate(40,20)"><path fill="none" stroke="rgba(39, 181, 234, 0.8)" stroke-width="2" d="M37.72727272727273,418.7753494788244L52.818181818181834,409.8775152611471L60.36363636363635,405.45540779282084L75.45454545454545,396.65649368439546L82.99999999999997,392.2742889024692L90.54545454545456,387.9006024887137L98.09090909090908,383.5339403987003L105.63636363636367,379.17257879953564L120.7272727272727,370.4581744673601L128.27272727272728,366.1015139896915L135.81818181818178,361.7448995835412L143.3636363636364,357.38881422514726L150.9090909090909,353.0330575598982L158.45454545454544,348.6777814433331L165.99999999999994,344.32355833419365L173.5454545454546,339.9727703314031L181.09090909090912,335.6287649555073L188.63636363636363,331.2961274330718L196.18181818181816,326.9801006091267L203.7272727272727,322.68557585958644L211.27272727272734,318.42008908152854L218.81818181818184,314.1945199769743L226.36363636363635,310.0236731371377L233.9090909090909,305.92458211647335L241.4545454545454,301.91331799944675L249.00000000000003,297.99430794889184L256.54545454545456,293.9953996685086L264.09090909090907,290.10961930788886L271.63636363636357,285.8185805386043L279.18181818181813,281.80851848263455L286.7272727272728,277.5411565478999L294.27272727272725,273.2058166187975L301.8181818181818,268.8035341800952L309.3636363636363,264.33079260319533L316.9090909090909,259.78575473427134L324.4545454545455,254.92816374088102L332,249.99315354611022L339.54545454545456,245.21026835095634L347.09090909090907,240.34740043094416L354.63636363636357,235.23777841693848L362.18181818181824,230.13255935233965L369.72727272727275,225.08255339762215L377.27272727272725,219.96081493723793L384.8181818181818,214.8850297073831L392.3636363636363,209.85987993229026L399.90909090909093,204.6619861146778L407.4545454545455,199.66477255915828L415,194.69956672329403L422.5454545454545,189.75752470171082L430.090909090909,184.82937303087687L437.6363636363637,179.9066500072587L445.1818181818182,174.98409542109007L452.7272727272727,170.0583402456627L460.2727272727273,165.1258037807296L467.8181818181818,159.6539189546849L475.3636363636364,154.67867491757252L490.4545454545455,144.68883660781705L498,139.67338658723173L505.5454545454545,134.6443029432975L520.6363636363636,124.54963539874001L528.1818181818181,119.48809876193245L558.3636363636364,99.200084242555L565.9090909090909,94.12924693238764L588.5454545454545,78.95059907708266L611.1818181818181,63.85063069700308L641.3636363636364,43.88000310098242L656.4545454545455,33.9674776727216L671.5454545454545,24.103671559264296L731.9090909090909,-14.88289619079608L784.7272727272726,-48.44097264487623L792.2727272727273,-53.1978760058226"/></g></svg>