<svg viewBox="0,0,900,800" color="rgba(5, 5, 38, 0.5)" width="600" xmlns="http://www.w3.org/2000/svg" xmlns:xlink="http://www.w3.org/1999/xlink"><g transform="translate(40,5)"><rect fill="#F7FBFB" x="0" y="0" width="845" height="765"/></g><g transform="translate(40,770)" fill="none" font-size="10" font-family="sans-serif" text-anchor="middle"><g class="tick" opacity="1" transform="translate(0.5,0)"><line stroke="currentColor" y2="6"/><text fill="currentColor" y="9" dy="0.71em" font-size="12">6</text></g><g class="tick" opacity="1" transform="translate(75.95454545454545,0)"><line stroke="currentColor" y2="6"/><text fill="currentColor" y="9" dy="0.71em" font-size="12">7</text></g><g class="tick" opacity="1" transform="translate(151.4090909090909,0)"><line stroke="currentColor" y2="6"/><text fill="currentColor" y="9" dy="0.71em" font-size="12">8</text></g><g class="tick" opacity="1" transform="translate(226.86363636363635,0)"><line stroke="currentColor" y2="6"/><text fill="currentColor" y="9" dy="0.71em" font-size="12">9</text></g><g class="tick" opacity="1" transform="translate(302.3181818181818,0)"><line stroke="currentColor" y2="6"/><text fill="currentColor" y="9" dy="0.71em" font-size="12">10</text></g><g class="tick" opacity="1" transform="translate(377.77272727272725,0)"><line stroke="currentColor" y2="6"/><text fill="currentColor" y="9" dy="0.71em" font-size="12">11</text></g><g class="tick" opacity="1" transform="translate(453.2272727272727,0)"><line stroke="currentColor" y2="6"/><text fill="currentColor" y="9" dy="0.71em" font-size="12">12</text></g><g class="tick" opacity="1" transform="translate(528.6818181818181,0)"><line stroke="currentColor" y2="6"/><text fill="currentColor" y="9" dy="0.71em" font-size="12">13</text></g><g class="tick" opacity="1" transform="translate(604.1363636363636,0)"><line stroke="currentColor" y2="6"/><text fill="currentColor" y="9" dy="0.71em" font-size="12">14</text></g><g class="tick" opacity="1" transform="translate(679.5909090909091,0)"><line stroke="currentColor" y2="6"/><text fill="currentColor" y="9" dy="0.71em" font-size="12">15</text></g><g class="tick" opacity="1" transform="translate(755.0454545454545,0)"><line stroke="currentColor" y2="6"/><text fill="currentColor" y="9" dy="0.71em" font-size="12">16</text></g><g class="tick" opacity="1" transform="translate(830.5,0)"><line stroke="currentColor" y2="6"/><text fill="currentColor" y="9" dy="0.71em" font-size="12">17</text></g><text fill="rgba(5, 5, 38, 0.5)" font-weight="bold" text-anchor="end" font-size="12" x="830" y="-12">Diabetes</text></g><g transform="translate(40,20)" fill="none" font-size="10" font-family="sans-serif" text-anchor="end"><g class="tick" opacity="1" transform="translate(0,750.5)"><line stroke="currentColor" x2="-6"/><text fill="currentColor" x="-9" dy="0.32em" font-size="12">15</text></g><g class="tick" opacity="1" transform="translate(0,643.3571428571429)"><line stroke="currentColor" x2="-6"/><text fill="currentColor" x="-9" dy="0.32em" font-size="12">20</text></g><g class="tick" opacity="1" transform="translate(0,536.2142857142858)"><line stroke="currentColor" x2="-6"/><text fill="currentColor" x="-9" dy="0.32em" font-size="12">25</text></g><g class="tick" opacity="1" transform="translate(0,429.07142857142856)"><line stroke="currentColor" x2="-6"/><text fill="currentColor" x="-9" dy="0.32em" font-size="12">30</text></g><g class="tick" opacity="1" transform="translate(0,321.92857142857144)"><line stroke="currentColor" x2="-6"/><text fill="currentColor" x="-9" dy="0.32em" font-size="12">35</text></g><g class="tick" opacity="1" transform="translate(0,214.78571428571428)"><line stroke="currentColor" x2="-6"/><text fill="currentColor" x="-9" dy="0.32em" font-size="12">40</text></g><g class="tick" opacity="1" transform="translate(0,107.64285714285718)"><line stroke="currentColor" x2="-6"/><text fill="currentColor" x="-9" dy="0.32em" font-size="12">45</text></g><g class="tick" opacity="1" transform="translate(0,0.5)"><line stroke="currentColor" x2="-6"/><text fill="currentColor" x="-9" dy="0.32em" font-size="12">50</text><text fill="rgba(5, 5, 38, 0.5)" x="8" dy="0.32em" font-size="12" text-anchor="start" font-weight="bold">No leisure exercise</text></g></g><g transform="translate(40,20)"><circle r="3" cx="143.3636363636364" cy="600" stroke="none" fill="rgba(39, 181, 234, 0.4)"/><circle r="3" cx="437.6363636363637" cy="372.85714285714283" stroke="none" fill="rgba(39, 181, 234, 0.4)"/><circle r="3" cx="332" cy="409.2857142857144" stroke="none" fill="rgba(39, 181, 234, 0.4)"/><circle r="3" cx="264.09090909090907" cy="555" stroke="none" fill="rgba(39, 181, 234, 0.4)"/><circle r="3" cx="218.81818181818184" cy="662.1428571428571" stroke="none" fill="rgba(39, 181, 234, 0.4)"/><circle r="3" cx="52.818181818181834" cy="717.8571428571429" stroke="none" fill="rgba(39, 181, 234, 0.4)"/><circle r="3" cx="249.00000000000003" cy="525" stroke="none" fill="rgba(39, 181, 234, 0.4)"/><circle r="3" cx="233.9090909090909" cy="647.1428571428571" stroke="none" fill="rgba(39, 181, 234, 0.4)"/><circle r="3" cx="279.18181818181813" cy="492.85714285714283" stroke="none" fill="rgba(39, 181, 234, 0.4)"/><circle r="3" cx="332" cy="495" stroke="none" fill="rgba(39, 181, 234, 0.4)"/><circle r="3" cx="316.9090909090909" cy="499.2857142857143" stroke="none" fill="rgba(39, 181, 234, 0.4)"/><circle r="3" cx="294.27272727272725" cy="357.8571428571429" stroke="none" fill="rgba(39, 181, 234, 0.4)"/><circle r="3" cx="181.09090909090912" cy="615" stroke="none" fill="rgba(39, 181, 234, 0.4)"/><circle r="3" cx="165.99999999999994" cy="516.4285714285714" stroke="none" fill="rgba(39, 181, 234, 0.4)"/><circle r="3" cx="256.54545454545456" cy="612.8571428571429" stroke="none" fill="rgba(39, 181, 234, 0.4)"/><circle r="3" cx="279.18181818181813" cy="533.5714285714286" stroke="none" fill="rgba(39, 181, 234, 0.4)"/><circle r="3" cx="316.9090909090909" cy="445.7142857142857" stroke="none" fill="rgba(39, 181, 234, 0.4)"/><circle r="3" cx="264.09090909090907" cy="497.1428571428571" stroke="none" fill="rgba(39, 181, 234, 0.4)"/><circle r="3" cx="362.18181818181824" cy="443.57142857142856" stroke="none" fill="rgba(39, 181, 234, 0.4)"/><circle r="3" cx="437.6363636363637" cy="347.1428571428572" stroke="none" fill="rgba(39, 181, 234, 0.4)"/><circle r="3" cx="150.9090909090909" cy="567.8571428571429" stroke="none" fill="rgba(39, 181, 234, 0.4)"/><circle r="3" cx="264.09090909090907" cy="509.99999999999994" stroke="none" fill="rgba(39, 181, 234, 0.4)"/><circle r="3" cx="271.63636363636357" cy="578.5714285714286" stroke="none" fill="rgba(39, 181, 234, 0.4)"/><circle r="3" cx="301.8181818181818" cy="565.7142857142857" stroke="none" fill="rgba(39, 181, 234, 0.4)"/><circle r="3" cx="98.09090909090908" cy="602.1428571428572" stroke="none" fill="rgba(39, 181, 234, 0.4)"/><circle r="3" cx="316.9090909090909" cy="462.8571428571429" stroke="none" fill="rgba(39, 181, 234, 0.4)"/><circle r="3" cx="475.3636363636364" cy="300" stroke="none" fill="rgba(39, 181, 234, 0.4)"/><circle r="3" cx="150.9090909090909" cy="548.5714285714287" stroke="none" fill="rgba(39, 181, 234, 0.4)"/><circle r="3" cx="369.72727272727275" cy="499.2857142857143" stroke="none" fill="rgba(39, 181, 234, 0.4)"/><circle r="3" cx="165.99999999999994" cy="490.71428571428567" stroke="none" fill="rgba(39, 181, 234, 0.4)"/><circle r="3" cx="181.09090909090912" cy="507.8571428571428" stroke="none" fill="rgba(39, 181, 234, 0.4)"/><circle r="3" cx="203.7272727272727" cy="589.2857142857142" stroke="none" fill="rgba(39, 181, 234, 0.4)"/><circle r="3" cx="211.27272727272734" cy="505.7142857142858" stroke="none" fill="rgba(39, 181, 234, 0.4)"/><circle r="3" cx="294.27272727272725" cy="529.2857142857143" stroke="none" fill="rgba(39, 181, 234, 0.4)"/><circle r="3" cx="324.4545454545455" cy="550.7142857142857" stroke="none" fill="rgba(39, 181, 234, 0.4)"/><circle r="3" cx="332" cy="507.8571428571428" stroke="none" fill="rgba(39, 181, 234, 0.4)"/><circle r="3" cx="301.8181818181818" cy="492.85714285714283" stroke="none" fill="rgba(39, 181, 234, 0.4)"/><circle r="3" cx="384.8181818181818" cy="402.85714285714283" stroke="none" fill="rgba(39, 181, 234, 0.4)"/><circle r="3" cx="249.00000000000003" cy="647.1428571428571" stroke="none" fill="rgba(39, 181, 234, 0.4)"/><circle r="3" cx="264.09090909090907" cy="509.99999999999994" stroke="none" fill="rgba(39, 181, 234, 0.4)"/><circle r="3" cx="565.9090909090909" cy="57.85714285714288" stroke="none" fill="rgba(39, 181, 234, 0.4)"/><circle r="3" cx="181.09090909090912" cy="509.99999999999994" stroke="none" fill="rgba(39, 181, 234, 0.4)"/><circle r="3" cx="460.2727272727273" cy="488.5714285714286" stroke="none" fill="rgba(39, 181, 234, 0.4)"/><circle r="3" cx="264.09090909090907" cy="492.85714285714283" stroke="none" fill="rgba(39, 181, 234, 0.4)"/><circle r="3" cx="392.3636363636363" cy="319.2857142857143" stroke="none" fill="rgba(39, 181, 234, 0.4)"/><circle r="3" cx="316.9090909090909" cy="488.5714285714286" stroke="none" fill="rgba(39, 181, 234, 0.4)"/><circle r="3" cx="264.09090909090907" cy="509.99999999999994" stroke="none" fill="rgba(39, 181, 234, 0.4)"/><circle r="3" cx="52.818181818181834" cy="666.4285714285714" stroke="none" fill="rgba(39, 181, 234, 0.4)"/><circle r="3" cx="332" cy="535.7142857142858" stroke="none" fill="rgba(39, 181, 234, 0.4)"/><circle r="3" cx="128.27272727272728" cy="621.4285714285713" stroke="none" fill="rgba(39, 181, 234, 0.4)"/><circle r="3" cx="218.81818181818184" cy="600" stroke="none" fill="rgba(39, 181, 234, 0.4)"/><circle r="3" cx="181.09090909090912" cy="585" stroke="none" fill="rgba(39, 181, 234, 0.4)"/><circle r="3" cx="452.7272727272727" cy="319.2857142857143" stroke="none" fill="rgba(39, 181, 234, 0.4)"/><circle r="3" cx="165.99999999999994" cy="525" stroke="none" fill="rgba(39, 181, 234, 0.4)"/><circle r="3" cx="75.45454545454545" cy="675" stroke="none" fill="rgba(39, 181, 234, 0.4)"/><circle r="3" cx="392.3636363636363" cy="488.5714285714286" stroke="none" fill="rgba(39, 181, 234, 0.4)"/><circle r="3" cx="399.90909090909093" cy="396.42857142857144" stroke="none" fill="rgba(39, 181, 234, 0.4)"/><circle r="3" cx="347.09090909090907" cy="587.1428571428571" stroke="none" fill="rgba(39, 181, 234, 0.4)"/><circle r="3" cx="286.7272727272728" cy="660" stroke="none" fill="rgba(39, 181, 234, 0.4)"/><circle r="3" cx="105.63636363636367" cy="707.1428571428571" stroke="none" fill="rgba(39, 181, 234, 0.4)"/><circle r="3" cx="233.9090909090909" cy="597.8571428571429" stroke="none" fill="rgba(39, 181, 234, 0.4)"/><circle r="3" cx="165.99999999999994" cy="698.5714285714287" stroke="none" fill="rgba(39, 181, 234, 0.4)"/><circle r="3" cx="271.63636363636357" cy="567.8571428571429" stroke="none" fill="rgba(39, 181, 234, 0.4)"/><circle r="3" cx="407.4545454545455" cy="572.1428571428572" stroke="none" fill="rgba(39, 181, 234, 0.4)"/><circle r="3" cx="294.27272727272725" cy="565.7142857142857" stroke="none" fill="rgba(39, 181, 234, 0.4)"/><circle r="3" cx="271.63636363636357" cy="479.99999999999994" stroke="none" fill="rgba(39, 181, 234, 0.4)"/><circle r="3" cx="135.81818181818178" cy="670.7142857142858" stroke="none" fill="rgba(39, 181, 234, 0.4)"/><circle r="3" cx="211.27272727272734" cy="576.4285714285714" stroke="none" fill="rgba(39, 181, 234, 0.4)"/><circle r="3" cx="188.63636363636363" cy="636.4285714285714" stroke="none" fill="rgba(39, 181, 234, 0.4)"/><circle r="3" cx="256.54545454545456" cy="604.2857142857143" stroke="none" fill="rgba(39, 181, 234, 0.4)"/><circle r="3" cx="369.72727272727275" cy="516.4285714285714" stroke="none" fill="rgba(39, 181, 234, 0.4)"/><circle r="3" cx="256.54545454545456" cy="580.7142857142858" stroke="none" fill="rgba(39, 181, 234, 0.4)"/><circle r="3" cx="354.63636363636357" cy="435.00000000000006" stroke="none" fill="rgba(39, 181, 234, 0.4)"/><circle r="3" cx="475.3636363636364" cy="430.7142857142857" stroke="none" fill="rgba(39, 181, 234, 0.4)"/><circle r="3" cx="173.5454545454546" cy="647.1428571428571" stroke="none" fill="rgba(39, 181, 234, 0.4)"/><circle r="3" cx="316.9090909090909" cy="576.4285714285714" stroke="none" fill="rgba(39, 181, 234, 0.4)"/><circle r="3" cx="279.18181818181813" cy="623.5714285714286" stroke="none" fill="rgba(39, 181, 234, 0.4)"/><circle r="3" cx="339.54545454545456" cy="572.1428571428572" stroke="none" fill="rgba(39, 181, 234, 0.4)"/><circle r="3" cx="98.09090909090908" cy="694.2857142857143" stroke="none" fill="rgba(39, 181, 234, 0.4)"/><circle r="3" cx="354.63636363636357" cy="542.1428571428571" stroke="none" fill="rgba(39, 181, 234, 0.4)"/><circle r="3" cx="490.4545454545455" cy="411.4285714285714" stroke="none" fill="rgba(39, 181, 234, 0.4)"/><circle r="3" cx="90.54545454545456" cy="632.1428571428571" stroke="none" fill="rgba(39, 181, 234, 0.4)"/><circle r="3" cx="332" cy="537.8571428571429" stroke="none" fill="rgba(39, 181, 234, 0.4)"/><circle r="3" cx="196.18181818181816" cy="561.4285714285714" stroke="none" fill="rgba(39, 181, 234, 0.4)"/><circle r="3" cx="158.45454545454544" cy="621.4285714285713" stroke="none" fill="rgba(39, 181, 234, 0.4)"/><circle r="3" cx="233.9090909090909" cy="642.8571428571429" stroke="none" fill="rgba(39, 181, 234, 0.4)"/><circle r="3" cx="249.00000000000003" cy="537.8571428571429" stroke="none" fill="rgba(39, 181, 234, 0.4)"/><circle r="3" cx="324.4545454545455" cy="604.2857142857143" stroke="none" fill="rgba(39, 181, 234, 0.4)"/><circle r="3" cx="188.63636363636363" cy="615" stroke="none" fill="rgba(39, 181, 234, 0.4)"/><circle r="3" cx="279.18181818181813" cy="542.1428571428571" stroke="none" fill="rgba(39, 181, 234, 0.4)"/><circle r="3" cx="430.090909090909" cy="529.2857142857143" stroke="none" fill="rgba(39, 181, 234, 0.4)"/><circle r="3" cx="415" cy="465" stroke="none" fill="rgba(39, 181, 234, 0.4)"/><circle r="3" cx="294.27272727272725" cy="722.1428571428571" stroke="none" fill="rgba(39, 181, 234, 0.4)"/><circle r="3" cx="316.9090909090909" cy="567.8571428571429" stroke="none" fill="rgba(39, 181, 234, 0.4)"/><circle r="3" cx="784.7272727272726" cy="162.8571428571429" stroke="none" fill="rgba(39, 181, 234, 0.4)"/><circle r="3" cx="286.7272727272728" cy="565.7142857142857" stroke="none" fill="rgba(39, 181, 234, 0.4)"/><circle r="3" cx="422.5454545454545" cy="533.5714285714286" stroke="none" fill="rgba(39, 181, 234, 0.4)"/><circle r="3" cx="135.81818181818178" cy="589.2857142857142" stroke="none" fill="rgba(39, 181, 234, 0.4)"/><circle r="3" cx="445.1818181818182" cy="458.57142857142856" stroke="none" fill="rgba(39, 181, 234, 0.4)"/><circle r="3" cx="347.09090909090907" cy="488.5714285714286" stroke="none" fill="rgba(39, 181, 234, 0.4)"/><circle r="3" cx="279.18181818181813" cy="580.7142857142858" stroke="none" fill="rgba(39, 181, 234, 0.4)"/><circle r="3" cx="90.54545454545456" cy="717.8571428571429" stroke="none" fill="rgba(39, 181, 234, 0.4)"/><circle r="3" cx="347.09090909090907" cy="589.2857142857142" stroke="none" fill="rgba(39, 181, 234, 0.4)"/><circle r="3" cx="98.09090909090908" cy="702.8571428571429" stroke="none" fill="rgba(39, 181, 234, 0.4)"/><circle r="3" cx="211.27272727272734" cy="664.2857142857142" stroke="none" fill="rgba(39, 181, 234, 0.4)"/><circle r="3" cx="173.5454545454546" cy="634.2857142857143" stroke="none" fill="rgba(39, 181, 234, 0.4)"/><circle r="3" cx="528.1818181818181" cy="407.14285714285717" stroke="none" fill="rgba(39, 181, 234, 0.4)"/><circle r="3" cx="233.9090909090909" cy="619.2857142857142" stroke="none" fill="rgba(39, 181, 234, 0.4)"/><circle r="3" cx="82.99999999999997" cy="593.5714285714286" stroke="none" fill="rgba(39, 181, 234, 0.4)"/><circle r="3" cx="588.5454545454545" cy="396.42857142857144" stroke="none" fill="rgba(39, 181, 234, 0.4)"/><circle r="3" cx="415" cy="334.2857142857143" stroke="none" fill="rgba(39, 181, 234, 0.4)"/><circle r="3" cx="354.63636363636357" cy="531.4285714285714" stroke="none" fill="rgba(39, 181, 234, 0.4)"/><circle r="3" cx="316.9090909090909" cy="612.8571428571429" stroke="none" fill="rgba(39, 181, 234, 0.4)"/><circle r="3" cx="37.72727272727273" cy="687.8571428571429" stroke="none" fill="rgba(39, 181, 234, 0.4)"/><circle r="3" cx="173.5454545454546" cy="537.8571428571429" stroke="none" fill="rgba(39, 181, 234, 0.4)"/><circle r="3" cx="135.81818181818178" cy="653.5714285714286" stroke="none" fill="rgba(39, 181, 234, 0.4)"/><circle r="3" cx="384.8181818181818" cy="475.7142857142858" stroke="none" fill="rgba(39, 181, 234, 0.4)"/><circle r="3" cx="392.3636363636363" cy="477.85714285714295" stroke="none" fill="rgba(39, 181, 234, 0.4)"/><circle r="3" cx="362.18181818181824" cy="488.5714285714286" stroke="none" fill="rgba(39, 181, 234, 0.4)"/><circle r="3" cx="611.1818181818181" cy="364.28571428571433" stroke="none" fill="rgba(39, 181, 234, 0.4)"/><circle r="3" cx="181.09090909090912" cy="597.8571428571429" stroke="none" fill="rgba(39, 181, 234, 0.4)"/><circle r="3" cx="249.00000000000003" cy="460.7142857142857" stroke="none" fill="rgba(39, 181, 234, 0.4)"/><circle r="3" cx="181.09090909090912" cy="563.5714285714286" stroke="none" fill="rgba(39, 181, 234, 0.4)"/><circle r="3" cx="294.27272727272725" cy="533.5714285714286" stroke="none" fill="rgba(39, 181, 234, 0.4)"/><circle r="3" cx="377.27272727272725" cy="407.14285714285717" stroke="none" fill="rgba(39, 181, 234, 0.4)"/><circle r="3" cx="271.63636363636357" cy="503.5714285714286" stroke="none" fill="rgba(39, 181, 234, 0.4)"/><circle r="3" cx="347.09090909090907" cy="424.2857142857143" stroke="none" fill="rgba(39, 181, 234, 0.4)"/><circle r="3" cx="422.5454545454545" cy="381.42857142857133" stroke="none" fill="rgba(39, 181, 234, 0.4)"/><circle r="3" cx="188.63636363636363" cy="567.8571428571429" stroke="none" fill="rgba(39, 181, 234, 0.4)"/><circle r="3" cx="286.7272727272728" cy="529.2857142857143" stroke="none" fill="rgba(39, 181, 234, 0.4)"/><circle r="3" cx="271.63636363636357" cy="572.1428571428572" stroke="none" fill="rgba(39, 181, 234, 0.4)"/><circle r="3" cx="332" cy="548.5714285714287" stroke="none" fill="rgba(39, 181, 234, 0.4)"/><circle r="3" cx="105.63636363636367" cy="567.8571428571429" stroke="none" fill="rgba(39, 181, 234, 0.4)"/><circle r="3" cx="271.63636363636357" cy="465" stroke="none" fill="rgba(39, 181, 234, 0.4)"/><circle r="3" cx="520.6363636363636" cy="254.99999999999997" stroke="none" fill="rgba(39, 181, 234, 0.4)"/><circle r="3" cx="128.27272727272728" cy="589.2857142857142" stroke="none" fill="rgba(39, 181, 234, 0.4)"/><circle r="3" cx="407.4545454545455" cy="501.42857142857144" stroke="none" fill="rgba(39, 181, 234, 0.4)"/><circle r="3" cx="218.81818181818184" cy="479.99999999999994" stroke="none" fill="rgba(39, 181, 234, 0.4)"/><circle r="3" cx="241.4545454545454" cy="529.2857142857143" stroke="none" fill="rgba(39, 181, 234, 0.4)"/><circle r="3" cx="241.4545454545454" cy="591.4285714285714" stroke="none" fill="rgba(39, 181, 234, 0.4)"/><circle r="3" cx="241.4545454545454" cy="497.1428571428571" stroke="none" fill="rgba(39, 181, 234, 0.4)"/><circle r="3" cx="354.63636363636357" cy="550.7142857142857" stroke="none" fill="rgba(39, 181, 234, 0.4)"/><circle r="3" cx="271.63636363636357" cy="563.5714285714286" stroke="none" fill="rgba(39, 181, 234, 0.4)"/><circle r="3" cx="347.09090909090907" cy="499.2857142857143" stroke="none" fill="rgba(39, 181, 234, 0.4)"/><circle r="3" cx="332" cy="460.7142857142857" stroke="none" fill="rgba(39, 181, 234, 0.4)"/><circle r="3" cx="377.27272727272725" cy="364.28571428571433" stroke="none" fill="rgba(39, 181, 234, 0.4)"/><circle r="3" cx="241.4545454545454" cy="675" stroke="none" fill="rgba(39, 181, 234, 0.4)"/><circle r="3" cx="309.3636363636363" cy="507.8571428571428" stroke="none" fill="rgba(39, 181, 234, 0.4)"/><circle r="3" cx="671.5454545454545" cy="42.85714285714287" stroke="none" fill="rgba(39, 181, 234, 0.4)"/><circle r="3" cx="249.00000000000003" cy="495" stroke="none" fill="rgba(39, 181, 234, 0.4)"/><circle r="3" cx="490.4545454545455" cy="495" stroke="none" fill="rgba(39, 181, 234, 0.4)"/><circle r="3" cx="233.9090909090909" cy="561.4285714285714" stroke="none" fill="rgba(39, 181, 234, 0.4)"/><circle r="3" cx="467.8181818181818" cy="274.2857142857142" stroke="none" fill="rgba(39, 181, 234, 0.4)"/><circle r="3" cx="369.72727272727275" cy="426.4285714285714" stroke="none" fill="rgba(39, 181, 234, 0.4)"/><circle r="3" cx="271.63636363636357" cy="529.2857142857143" stroke="none" fill="rgba(39, 181, 234, 0.4)"/><circle r="3" cx="82.99999999999997" cy="630" stroke="none" fill="rgba(39, 181, 234, 0.4)"/><circle r="3" cx="286.7272727272728" cy="525" stroke="none" fill="rgba(39, 181, 234, 0.4)"/><circle r="3" cx="135.81818181818178" cy="632.1428571428571" stroke="none" fill="rgba(39, 181, 234, 0.4)"/><circle r="3" cx="196.18181818181816" cy="642.8571428571429" stroke="none" fill="rgba(39, 181, 234, 0.4)"/><circle r="3" cx="165.99999999999994" cy="561.4285714285714" stroke="none" fill="rgba(39, 181, 234, 0.4)"/><circle r="3" cx="528.1818181818181" cy="398.5714285714286" stroke="none" fill="rgba(39, 181, 234, 0.4)"/><circle r="3" cx="196.18181818181816" cy="533.5714285714286" stroke="none" fill="rgba(39, 181, 234, 0.4)"/><circle r="3" cx="105.63636363636367" cy="660" stroke="none" fill="rgba(39, 181, 234, 0.4)"/><circle r="3" cx="520.6363636363636" cy="479.99999999999994" stroke="none" fill="rgba(39, 181, 234, 0.4)"/><circle r="3" cx="505.5454545454545" cy="413.57142857142856" stroke="none" fill="rgba(39, 181, 234, 0.4)"/><circle r="3" cx="301.8181818181818" cy="617.1428571428571" stroke="none" fill="rgba(39, 181, 234, 0.4)"/><circle r="3" cx="324.4545454545455" cy="606.4285714285714" stroke="none" fill="rgba(39, 181, 234, 0.4)"/><circle r="3" cx="98.09090909090908" cy="720" stroke="none" fill="rgba(39, 181, 234, 0.4)"/><circle r="3" cx="241.4545454545454" cy="630" stroke="none" fill="rgba(39, 181, 234, 0.4)"/><circle r="3" cx="181.09090909090912" cy="625.7142857142858" stroke="none" fill="rgba(39, 181, 234, 0.4)"/><circle r="3" cx="384.8181818181818" cy="537.8571428571429" stroke="none" fill="rgba(39, 181, 234, 0.4)"/><circle r="3" cx="392.3636363636363" cy="563.5714285714286" stroke="none" fill="rgba(39, 181, 234, 0.4)"/><circle r="3" cx="422.5454545454545" cy="565.7142857142857" stroke="none" fill="rgba(39, 181, 234, 0.4)"/><circle r="3" cx="362.18181818181824" cy="477.85714285714295" stroke="none" fill="rgba(39, 181, 234, 0.4)"/><circle r="3" cx="286.7272727272728" cy="651.4285714285714" stroke="none" fill="rgba(39, 181, 234, 0.4)"/><circle r="3" cx="264.09090909090907" cy="587.1428571428571" stroke="none" fill="rgba(39, 181, 234, 0.4)"/><circle r="3" cx="120.7272727272727" cy="670.7142857142858" stroke="none" fill="rgba(39, 181, 234, 0.4)"/><circle r="3" cx="309.3636363636363" cy="559.2857142857143" stroke="none" fill="rgba(39, 181, 234, 0.4)"/><circle r="3" cx="354.63636363636357" cy="512.1428571428571" stroke="none" fill="rgba(39, 181, 234, 0.4)"/><circle r="3" cx="324.4545454545455" cy="561.4285714285714" stroke="none" fill="rgba(39, 181, 234, 0.4)"/><circle r="3" cx="490.4545454545455" cy="467.14285714285717" stroke="none" fill="rgba(39, 181, 234, 0.4)"/><circle r="3" cx="399.90909090909093" cy="439.2857142857142" stroke="none" fill="rgba(39, 181, 234, 0.4)"/><circle r="3" cx="279.18181818181813" cy="640.7142857142857" stroke="none" fill="rgba(39, 181, 234, 0.4)"/><circle r="3" cx="309.3636363636363" cy="612.8571428571429" stroke="none" fill="rgba(39, 181, 234, 0.4)"/><circle r="3" cx="264.09090909090907" cy="649.2857142857143" stroke="none" fill="rgba(39, 181, 234, 0.4)"/><circle r="3" cx="332" cy="525" stroke="none" fill="rgba(39, 181, 234, 0.4)"/><circle r="3" cx="158.45454545454544" cy="638.5714285714286" stroke="none" fill="rgba(39, 181, 234, 0.4)"/><circle r="3" cx="384.8181818181818" cy="535.7142857142858" stroke="none" fill="rgba(39, 181, 234, 0.4)"/><circle r="3" cx="528.1818181818181" cy="394.2857142857143" stroke="none" fill="rgba(39, 181, 234, 0.4)"/><circle r="3" cx="211.27272727272734" cy="651.4285714285714" stroke="none" fill="rgba(39, 181, 234, 0.4)"/><circle r="3" cx="362.18181818181824" cy="574.2857142857143" stroke="none" fill="rgba(39, 181, 234, 0.4)"/><circle r="3" cx="196.18181818181816" cy="615" stroke="none" fill="rgba(39, 181, 234, 0.4)"/><circle r="3" cx="241.4545454545454" cy="615" stroke="none" fill="rgba(39, 181, 234, 0.4)"/><circle r="3" cx="233.9090909090909" cy="657.8571428571429" stroke="none" fill="rgba(39, 181, 234, 0.4)"/><circle r="3" cx="279.18181818181813" cy="572.1428571428572" stroke="none" fill="rgba(39, 181, 234, 0.4)"/><circle r="3" cx="415" cy="572.1428571428572" stroke="none" fill="rgba(39, 181, 234, 0.4)"/><circle r="3" cx="271.63636363636357" cy="589.2857142857142" stroke="none" fill="rgba(39, 181, 234, 0.4)"/><circle r="3" cx="301.8181818181818" cy="516.4285714285714" stroke="none" fill="rgba(39, 181, 234, 0.4)"/><circle r="3" cx="430.090909090909" cy="535.7142857142858" stroke="none" fill="rgba(39, 181, 234, 0.4)"/><circle r="3" cx="452.7272727272727" cy="465" stroke="none" fill="rgba(39, 181, 234, 0.4)"/><circle r="3" cx="226.36363636363635" cy="717.8571428571429" stroke="none" fill="rgba(39, 181, 234, 0.4)"/><circle r="3" cx="392.3636363636363" cy="572.1428571428572" stroke="none" fill="rgba(39, 181, 234, 0.4)"/><circle r="3" cx="731.9090909090909" cy="201.42857142857142" stroke="none" fill="rgba(39, 181, 234, 0.4)"/><circle r="3" cx="256.54545454545456" cy="589.2857142857142" stroke="none" fill="rgba(39, 181, 234, 0.4)"/><circle r="3" cx="452.7272727272727" cy="529.2857142857143" stroke="none" fill="rgba(39, 181, 234, 0.4)"/><circle r="3" cx="233.9090909090909" cy="617.1428571428571" stroke="none" fill="rgba(39, 181, 234, 0.4)"/><circle r="3" cx="528.1818181818181" cy="497.1428571428571" stroke="none" fill="rgba(39, 181, 234, 0.4)"/><circle r="3" cx="377.27272727272725" cy="479.99999999999994" stroke="none" fill="rgba(39, 181, 234, 0.4)"/><circle r="3" cx="301.8181818181818" cy="587.1428571428571" stroke="none" fill="rgba(39, 181, 234, 0.4)"/><circle r="3" cx="82.99999999999997" cy="711.4285714285713" stroke="none" fill="rgba(39, 181, 234, 0.4)"/><circle r="3" cx="279.18181818181813" cy="567.8571428571429" stroke="none" fill="rgba(39, 181, 234, 0.4)"/><circle r="3" cx="143.3636363636364" cy="664.2857142857142" stroke="none" fill="rgba(39, 181, 234, 0.4)"/><circle r="3" cx="218.81818181818184" cy="683.5714285714286" stroke="none" fill="rgba(39, 181, 234, 0.4)"/><circle r="3" cx="226.36363636363635" cy="617.1428571428571" stroke="none" fill="rgba(39, 181, 234, 0.4)"/><circle r="3" cx="611.1818181818181" cy="456.4285714285714" stroke="none" fill="rgba(39, 181, 234, 0.4)"/><circle r="3" cx="181.09090909090912" cy="597.8571428571429" stroke="none" fill="rgba(39, 181, 234, 0.4)"/><circle r="3" cx="120.7272727272727" cy="600" stroke="none" fill="rgba(39, 181, 234, 0.4)"/><circle r="3" cx="565.9090909090909" cy="387.85714285714283" stroke="none" fill="rgba(39, 181, 234, 0.4)"/><circle r="3" cx="498" cy="338.57142857142856" stroke="none" fill="rgba(39, 181, 234, 0.4)"/><circle r="3" cx="309.3636363636363" cy="542.1428571428571" stroke="none" fill="rgba(39, 181, 234, 0.4)"/><circle r="3" cx="301.8181818181818" cy="642.8571428571429" stroke="none" fill="rgba(39, 181, 234, 0.4)"/><circle r="3" cx="60.36363636363635" cy="687.8571428571429" stroke="none" fill="rgba(39, 181, 234, 0.4)"/><circle r="3" cx="249.00000000000003" cy="567.8571428571429" stroke="none" fill="rgba(39, 181, 234, 0.4)"/><circle r="3" cx="188.63636363636363" cy="655.7142857142858" stroke="none" fill="rgba(39, 181, 234, 0.4)"/><circle r="3" cx="415" cy="441.4285714285715" stroke="none" fill="rgba(39, 181, 234, 0.4)"/><circle r="3" cx="399.90909090909093" cy="509.99999999999994" stroke="none" fill="rgba(39, 181, 234, 0.4)"/><circle r="3" cx="399.90909090909093" cy="486.42857142857144" stroke="none" fill="rgba(39, 181, 234, 0.4)"/><circle r="3" cx="452.7272727272727" cy="405" stroke="none" fill="rgba(39, 181, 234, 0.4)"/><circle r="3" cx="188.63636363636363" cy="589.2857142857142" stroke="none" fill="rgba(39, 181, 234, 0.4)"/><circle r="3" cx="211.27272727272734" cy="507.8571428571428" stroke="none" fill="rgba(39, 181, 234, 0.4)"/><circle r="3" cx="158.45454545454544" cy="617.1428571428571" stroke="none" fill="rgba(39, 181, 234, 0.4)"/><circle r="3" cx="294.27272727272725" cy="540" stroke="none" fill="rgba(39, 181, 234, 0.4)"/><circle r="3" cx="407.4545454545455" cy="441.4285714285715" stroke="none" fill="rgba(39, 181, 234, 0.4)"/><circle r="3" cx="279.18181818181813" cy="503.5714285714286" stroke="none" fill="rgba(39, 181, 234, 0.4)"/><circle r="3" cx="558.3636363636364" cy="375" stroke="none" fill="rgba(39, 181, 234, 0.4)"/><circle r="3" cx="505.5454545454545" cy="387.85714285714283" stroke="none" fill="rgba(39, 181, 234, 0.4)"/><circle r="3" cx="218.81818181818184" cy="503.5714285714286" stroke="none" fill="rgba(39, 181, 234, 0.4)"/><circle r="3" cx="324.4545454545455" cy="555" stroke="none" fill="rgba(39, 181, 234, 0.4)"/><circle r="3" cx="294.27272727272725" cy="540" stroke="none" fill="rgba(39, 181, 234, 0.4)"/><circle r="3" cx="354.63636363636357" cy="525" stroke="none" fill="rgba(39, 181, 234, 0.4)"/><circle r="3" cx="120.7272727272727" cy="604.2857142857143" stroke="none" fill="rgba(39, 181, 234, 0.4)"/><circle r="3" cx="415" cy="492.85714285714283" stroke="none" fill="rgba(39, 181, 234, 0.4)"/><circle r="3" cx="656.4545454545455" cy="282.8571428571429" stroke="none" fill="rgba(39, 181, 234, 0.4)"/><circle r="3" cx="143.3636363636364" cy="589.2857142857142" stroke="none" fill="rgba(39, 181, 234, 0.4)"/><circle r="3" cx="354.63636363636357" cy="509.99999999999994" stroke="none" fill="rgba(39, 181, 234, 0.4)"/><circle r="3" cx="203.7272727272727" cy="497.1428571428571" stroke="none" fill="rgba(39, 181, 234, 0.4)"/><circle r="3" cx="211.27272727272734" cy="529.2857142857143" stroke="none" fill="rgba(39, 181, 234, 0.4)"/><circle r="3" cx="158.45454545454544" cy="587.1428571428571" stroke="none" fill="rgba(39, 181, 234, 0.4)"/><circle r="3" cx="226.36363636363635" cy="488.5714285714286" stroke="none" fill="rgba(39, 181, 234, 0.4)"/><circle r="3" cx="415" cy="587.1428571428571" stroke="none" fill="rgba(39, 181, 234, 0.4)"/><circle r="3" cx="279.18181818181813" cy="542.1428571428571" stroke="none" fill="rgba(39, 181, 234, 0.4)"/><circle r="3" cx="286.7272727272728" cy="443.57142857142856" stroke="none" fill="rgba(39, 181, 234, 0.4)"/><circle r="3" cx="377.27272727272725" cy="492.85714285714283" stroke="none" fill="rgba(39, 181, 234, 0.4)"/><circle r="3" cx="430.090909090909" cy="359.9999999999999" stroke="none" fill="rgba(39, 181, 234, 0.4)"/><circle r="3" cx="354.63636363636357" cy="668.5714285714286" stroke="none" fill="rgba(39, 181, 234, 0.4)"/><circle r="3" cx="332" cy="475.7142857142858" stroke="none" fill="rgba(39, 181, 234, 0.4)"/><circle r="3" cx="792.2727272727273" cy="40.7142857142857" stroke="none" fill="rgba(39, 181, 234, 0.4)"/><circle r="3" cx="226.36363636363635" cy="469.2857142857143" stroke="none" fill="rgba(39, 181, 234, 0.4)"/><circle r="3" cx="437.6363636363637" cy="499.2857142857143" stroke="none" fill="rgba(39, 181, 234, 0.4)"/><circle r="3" cx="249.00000000000003" cy="610.7142857142857" stroke="none" fill="rgba(39, 181, 234, 0.4)"/><circle r="3" cx="505.5454545454545" cy="420.00000000000006" stroke="none" fill="rgba(39, 181, 234, 0.4)"/><circle r="3" cx="407.4545454545455" cy="439.2857142857142" stroke="none" fill="rgba(39, 181, 234, 0.4)"/><circle r="3" cx="294.27272727272725" cy="509.99999999999994" stroke="none" fill="rgba(39, 181, 234, 0.4)"/><circle r="3" cx="75.45454545454545" cy="636.4285714285714" stroke="none" fill="rgba(39, 181, 234, 0.4)"/><circle r="3" cx="324.4545454545455" cy="533.5714285714286" stroke="none" fill="rgba(39, 181, 234, 0.4)"/><circle r="3" cx="165.99999999999994" cy="595.7142857142857" stroke="none" fill="rgba(39, 181, 234, 0.4)"/><circle r="3" cx="181.09090909090912" cy="664.2857142857142" stroke="none" fill="rgba(39, 181, 234, 0.4)"/><circle r="3" cx="181.09090909090912" cy="608.5714285714286" stroke="none" fill="rgba(39, 181, 234, 0.4)"/><circle r="3" cx="641.3636363636364" cy="411.4285714285714" stroke="none" fill="rgba(39, 181, 234, 0.4)"/><circle r="3" cx="181.09090909090912" cy="509.99999999999994" stroke="none" fill="rgba(39, 181, 234, 0.4)"/></g><g transform="translate(40,20)"><path fill="none" stroke="rgba(39, 181, 234, 0.8)" stroke-width="2" d="M37.72727272727273,674.5605365514856L52.818181818181834,666.6454835013003L60.36363636363635,662.7054321635002L75.45454545454545,654.8597245688364L82.99999999999997,650.9532437933639L90.54545454545456,647.0570309136734L98.09090909090908,643.1705481933012L105.63636363636367,639.2927816703397L120.7272727272727,631.5555744410548L128.27272727272728,627.6915322224264L135.81818181818178,623.8273735578449L143.3636363636364,619.9607729202363L150.9090909090909,616.0891645307241L158.45454545454544,612.2099766679321L165.99999999999994,608.3210214232704L173.5454545454546,604.4204313098891L181.09090909090912,600.5074396891791L188.63636363636363,596.5820778871948L196.18181818181816,592.6457421455199L203.7272727272727,588.7007327343721L211.27272727272734,584.7507699284994L218.81818181818184,580.8019754306612L226.36363636363635,576.8637069743038L233.9090909090909,572.9492291403956L241.4545454545454,569.076152196741L249.00000000000003,565.2639469429831L256.54545454545456,561.4407871635512L264.09090909090907,557.7306092043092L271.63636363636357,553.7294422640234L279.18181818181813,550.0267577418954L286.7272727272728,546.0924405070067L294.27272727272725,542.085557598137L301.8181818181818,537.9910002691007L309.3636363636363,533.7938040798072L316.9090909090909,529.4820771792007L324.4545454545455,524.7838956291591L332,520.030902906814L339.54545454545456,515.425356422657L347.09090909090907,510.71791963898806L354.63636363636357,505.7836307219287L362.18181818181824,500.77033562627537L369.72727272727275,495.77157293966883L377.27272727272725,490.608915389191L384.8181818181818,485.4315969248855L392.3636363636363,480.27011277550247L399.90909090909093,475.03678675875466L407.4545454545455,469.9042979506128L415,464.79721574260645L422.5454545454545,459.68301977272034L430.090909090909,454.54622737483095L437.6363636363637,449.38074203761335L445.1818181818182,444.18142584515766L452.7272727272727,438.94539092833196L460.2727272727273,433.6742645599981L467.8181818181818,428.0986431533886L475.3636363636364,422.7486850345562L490.4545454545455,411.9769916568031L498,406.5652058950518L505.5454545454545,401.14111994401856L520.6363636363636,390.2673207313863L528.1818181818181,384.82191281209236L558.3636363636364,363.00957230135714L565.9090909090909,357.5495173615602L588.5454545454545,341.15633655147826L611.1818181818181,324.764230839636L641.3636363636364,302.9274596993102L656.4545454545455,292.010238380998L671.5454545454545,281.084788410134L731.9090909090909,237.23035511197006L784.7272727272726,198.65663001219443L792.2727272727273,193.13240455148934"/></g></svg>