<svg viewBox="0,0,900,800" color="rgba(5, 5, 38, 0.5)" width="600" xmlns="http://www.w3.org/2000/svg" xmlns:xlink="http://www.w3.org/1999/xlink"><g transform="translate(40,5)"><rect fill="#F7FBFB" x="0" y="0" width="845" height="765"/></g><g transform="translate(40,770)" fill="none" font-size="10" font-family="sans-serif" text-anchor="middle"><g class="tick" opacity="1" transform="translate(0.5,0)"><line stroke="currentColor" y2="6"/><text fill="currentColor" y="9" dy="0.71em" font-size="12">6</text></g><g class="tick" opacity="1" transform="translate(75.95454545454545,0)"><line stroke="currentColor" y2="6"/><text fill="currentColor" y="9" dy="0.71em" font-size="12">7</text></g><g class="tick" opacity="1" transform="translate(151.4090909090909,0)"><line stroke="currentColor" y2="6"/><text fill="currentColor" y="9" dy="0.71em" font-size="12">8</text></g><g class="tick" opacity="1" transform="translate(226.86363636363635,0)"><line stroke="currentColor" y2="6"/><text fill="currentColor" y="9" dy="0.71em" font-size="12">9</text></g><g class="tick" opacity="1" transform="translate(302.3181818181818,0)"><line stroke="currentColor" y2="6"/><text fill="currentColor" y="9" dy="0.71em" font-size="12">10</text></g><g class="tick" opacity="1" transform="translate(377.77272727272725,0)"><line stroke="currentColor" y2="6"/><text fill="currentColor" y="9" dy="0.71em" font-size="12">11</text></g><g class="tick" opacity="1" transform="translate(453.2272727272727,0)"><line stroke="currentColor" y2="6"/><text fill="currentColor" y="9" dy="0.71em" font-size="12">12</text></g><g class="tick" opacity="1" transform="translate(528.6818181818181,0)"><line stroke="currentColor" y2="6"/><text fill="currentColor" y="9" dy="0.71em" font-size="12">13</text></g><g class="tick" opacity="1" transform="translate(604.1363636363636,0)"><line stroke="currentColor" y2="6"/><text fill="currentColor" y="9" dy="0.71em" font-size="12">14</text></g><g class="tick" opacity="1" transform="translate(679.5909090909091,0)"><line stroke="currentColor" y2="6"/><text fill="currentColor" y="9" dy="0.71em" font-size="12">15</text></g><g class="tick" opacity="1" transform="translate(755.0454545454545,0)"><line stroke="currentColor" y2="6"/><text fill="currentColor" y="9" dy="0.71em" font-size="12">16</text></g><g class="tick" opacity="1" transform="translate(830.5,0)"><line stroke="currentColor" y2="6"/><text fill="currentColor" y="9" dy="0.71em" font-size="12">17</text></g><text fill="rgba(5, 5, 38, 0.5)" font-weight="bold" text-anchor="end" font-size="12" x="830" y="-12">Diabetes</text></g><g transform="translate(40,20)" fill="none" font-size="10" font-family="sans-serif" text-anchor="end"><g class="tick" opacity="1" transform="translate(0,750.5)"><line stroke="currentColor" x2="-6"/><text fill="currentColor" x="-9" dy="0.32em" font-size="12">26</text></g><g class="tick" opacity="1" transform="translate(0,675.5)"><line stroke="currentColor" x2="-6"/><text fill="currentColor" x="-9" dy="0.32em" font-size="12">28</text></g><g class="tick" opacity="1" transform="translate(0,600.5)"><line stroke="currentColor" x2="-6"/><text fill="currentColor" x="-9" dy="0.32em" font-size="12">30</text></g><g class="tick" opacity="1" transform="translate(0,525.5)"><line stroke="currentColor" x2="-6"/><text fill="currentColor" x="-9" dy="0.32em" font-size="12">32</text></g><g class="tick" opacity="1" transform="translate(0,450.5)"><line stroke="currentColor" x2="-6"/><text fill="currentColor" x="-9" dy="0.32em" font-size="12">34</text></g><g class="tick" opacity="1" transform="translate(0,375.5)"><line stroke="currentColor" x2="-6"/><text fill="currentColor" x="-9" dy="0.32em" font-size="12">36</text></g><g class="tick" opacity="1" transform="translate(0,300.5)"><line stroke="currentColor" x2="-6"/><text fill="currentColor" x="-9" dy="0.32em" font-size="12">38</text></g><g class="tick" opacity="1" transform="translate(0,225.50000000000003)"><line stroke="currentColor" x2="-6"/><text fill="currentColor" x="-9" dy="0.32em" font-size="12">40</text></g><g class="tick" opacity="1" transform="translate(0,150.49999999999997)"><line stroke="currentColor" x2="-6"/><text fill="currentColor" x="-9" dy="0.32em" font-size="12">42</text></g><g class="tick" opacity="1" transform="translate(0,75.49999999999999)"><line stroke="currentColor" x2="-6"/><text fill="currentColor" x="-9" dy="0.32em" font-size="12">44</text></g><g class="tick" opacity="1" transform="translate(0,0.5)"><line stroke="currentColor" x2="-6"/><text fill="currentColor" x="-9" dy="0.32em" font-size="12">46</text><text fill="rgba(5, 5, 38, 0.5)" x="8" dy="0.32em" font-size="12" text-anchor="start" font-weight="bold">Healthy weight</text></g></g><g transform="translate(40,20)"><circle r="3" cx="143.3636363636364" cy="513.7500000000001" stroke="none" fill="rgba(232, 108, 9, 0.4)"/><circle r="3" cx="437.6363636363637" cy="551.25" stroke="none" fill="rgba(232, 108, 9, 0.4)"/><circle r="3" cx="332" cy="495.0000000000001" stroke="none" fill="rgba(232, 108, 9, 0.4)"/><circle r="3" cx="264.09090909090907" cy="408.74999999999994" stroke="none" fill="rgba(232, 108, 9, 0.4)"/><circle r="3" cx="218.81818181818184" cy="311.2499999999999" stroke="none" fill="rgba(232, 108, 9, 0.4)"/><circle r="3" cx="52.818181818181834" cy="164.99999999999997" stroke="none" fill="rgba(232, 108, 9, 0.4)"/><circle r="3" cx="249.00000000000003" cy="285.0000000000001" stroke="none" fill="rgba(232, 108, 9, 0.4)"/><circle r="3" cx="233.9090909090909" cy="22.50000000000002" stroke="none" fill="rgba(232, 108, 9, 0.4)"/><circle r="3" cx="279.18181818181813" cy="427.49999999999994" stroke="none" fill="rgba(232, 108, 9, 0.4)"/><circle r="3" cx="332" cy="416.25000000000006" stroke="none" fill="rgba(232, 108, 9, 0.4)"/><circle r="3" cx="316.9090909090909" cy="401.2500000000001" stroke="none" fill="rgba(232, 108, 9, 0.4)"/><circle r="3" cx="294.27272727272725" cy="446.25" stroke="none" fill="rgba(232, 108, 9, 0.4)"/><circle r="3" cx="181.09090909090912" cy="164.99999999999997" stroke="none" fill="rgba(232, 108, 9, 0.4)"/><circle r="3" cx="165.99999999999994" cy="461.2499999999999" stroke="none" fill="rgba(232, 108, 9, 0.4)"/><circle r="3" cx="256.54545454545456" cy="393.75" stroke="none" fill="rgba(232, 108, 9, 0.4)"/><circle r="3" cx="279.18181818181813" cy="446.25" stroke="none" fill="rgba(232, 108, 9, 0.4)"/><circle r="3" cx="316.9090909090909" cy="510.00000000000006" stroke="none" fill="rgba(232, 108, 9, 0.4)"/><circle r="3" cx="264.09090909090907" cy="457.50000000000006" stroke="none" fill="rgba(232, 108, 9, 0.4)"/><circle r="3" cx="362.18181818181824" cy="540" stroke="none" fill="rgba(232, 108, 9, 0.4)"/><circle r="3" cx="437.6363636363637" cy="577.4999999999999" stroke="none" fill="rgba(232, 108, 9, 0.4)"/><circle r="3" cx="150.9090909090909" cy="270.00000000000006" stroke="none" fill="rgba(232, 108, 9, 0.4)"/><circle r="3" cx="264.09090909090907" cy="453.75000000000006" stroke="none" fill="rgba(232, 108, 9, 0.4)"/><circle r="3" cx="271.63636363636357" cy="472.5000000000001" stroke="none" fill="rgba(232, 108, 9, 0.4)"/><circle r="3" cx="301.8181818181818" cy="487.5" stroke="none" fill="rgba(232, 108, 9, 0.4)"/><circle r="3" cx="98.09090909090908" cy="382.5000000000001" stroke="none" fill="rgba(232, 108, 9, 0.4)"/><circle r="3" cx="316.9090909090909" cy="464.9999999999999" stroke="none" fill="rgba(232, 108, 9, 0.4)"/><circle r="3" cx="475.3636363636364" cy="641.2500000000001" stroke="none" fill="rgba(232, 108, 9, 0.4)"/><circle r="3" cx="150.9090909090909" cy="288.7500000000001" stroke="none" fill="rgba(232, 108, 9, 0.4)"/><circle r="3" cx="369.72727272727275" cy="476.2500000000001" stroke="none" fill="rgba(232, 108, 9, 0.4)"/><circle r="3" cx="165.99999999999994" cy="431.24999999999994" stroke="none" fill="rgba(232, 108, 9, 0.4)"/><circle r="3" cx="181.09090909090912" cy="468.75" stroke="none" fill="rgba(232, 108, 9, 0.4)"/><circle r="3" cx="203.7272727272727" cy="356.25" stroke="none" fill="rgba(232, 108, 9, 0.4)"/><circle r="3" cx="211.27272727272734" cy="345.0000000000001" stroke="none" fill="rgba(232, 108, 9, 0.4)"/><circle r="3" cx="294.27272727272725" cy="393.75" stroke="none" fill="rgba(232, 108, 9, 0.4)"/><circle r="3" cx="324.4545454545455" cy="329.9999999999999" stroke="none" fill="rgba(232, 108, 9, 0.4)"/><circle r="3" cx="332" cy="314.99999999999994" stroke="none" fill="rgba(232, 108, 9, 0.4)"/><circle r="3" cx="301.8181818181818" cy="510.00000000000006" stroke="none" fill="rgba(232, 108, 9, 0.4)"/><circle r="3" cx="384.8181818181818" cy="502.49999999999994" stroke="none" fill="rgba(232, 108, 9, 0.4)"/><circle r="3" cx="249.00000000000003" cy="360.00000000000006" stroke="none" fill="rgba(232, 108, 9, 0.4)"/><circle r="3" cx="264.09090909090907" cy="453.75000000000006" stroke="none" fill="rgba(232, 108, 9, 0.4)"/><circle r="3" cx="565.9090909090909" cy="528.75" stroke="none" fill="rgba(232, 108, 9, 0.4)"/><circle r="3" cx="181.09090909090912" cy="363.75000000000006" stroke="none" fill="rgba(232, 108, 9, 0.4)"/><circle r="3" cx="460.2727272727273" cy="513.7500000000001" stroke="none" fill="rgba(232, 108, 9, 0.4)"/><circle r="3" cx="264.09090909090907" cy="438.7500000000001" stroke="none" fill="rgba(232, 108, 9, 0.4)"/><circle r="3" cx="392.3636363636363" cy="547.5000000000001" stroke="none" fill="rgba(232, 108, 9, 0.4)"/><circle r="3" cx="316.9090909090909" cy="510.00000000000006" stroke="none" fill="rgba(232, 108, 9, 0.4)"/><circle r="3" cx="264.09090909090907" cy="431.24999999999994" stroke="none" fill="rgba(232, 108, 9, 0.4)"/><circle r="3" cx="52.818181818181834" cy="270.00000000000006" stroke="none" fill="rgba(232, 108, 9, 0.4)"/><circle r="3" cx="332" cy="393.75" stroke="none" fill="rgba(232, 108, 9, 0.4)"/><circle r="3" cx="128.27272727272728" cy="277.4999999999999" stroke="none" fill="rgba(232, 108, 9, 0.4)"/><circle r="3" cx="218.81818181818184" cy="337.49999999999994" stroke="none" fill="rgba(232, 108, 9, 0.4)"/><circle r="3" cx="181.09090909090912" cy="435.00000000000006" stroke="none" fill="rgba(232, 108, 9, 0.4)"/><circle r="3" cx="452.7272727272727" cy="652.4999999999999" stroke="none" fill="rgba(232, 108, 9, 0.4)"/><circle r="3" cx="165.99999999999994" cy="337.49999999999994" stroke="none" fill="rgba(232, 108, 9, 0.4)"/><circle r="3" cx="75.45454545454545" cy="435.00000000000006" stroke="none" fill="rgba(232, 108, 9, 0.4)"/><circle r="3" cx="392.3636363636363" cy="577.4999999999999" stroke="none" fill="rgba(232, 108, 9, 0.4)"/><circle r="3" cx="399.90909090909093" cy="618.75" stroke="none" fill="rgba(232, 108, 9, 0.4)"/><circle r="3" cx="347.09090909090907" cy="389.99999999999994" stroke="none" fill="rgba(232, 108, 9, 0.4)"/><circle r="3" cx="286.7272727272728" cy="307.5000000000001" stroke="none" fill="rgba(232, 108, 9, 0.4)"/><circle r="3" cx="105.63636363636367" cy="149.99999999999997" stroke="none" fill="rgba(232, 108, 9, 0.4)"/><circle r="3" cx="233.9090909090909" cy="371.2499999999999" stroke="none" fill="rgba(232, 108, 9, 0.4)"/><circle r="3" cx="165.99999999999994" cy="0" stroke="none" fill="rgba(232, 108, 9, 0.4)"/><circle r="3" cx="271.63636363636357" cy="506.25000000000006" stroke="none" fill="rgba(232, 108, 9, 0.4)"/><circle r="3" cx="407.4545454545455" cy="360.00000000000006" stroke="none" fill="rgba(232, 108, 9, 0.4)"/><circle r="3" cx="294.27272727272725" cy="476.2500000000001" stroke="none" fill="rgba(232, 108, 9, 0.4)"/><circle r="3" cx="271.63636363636357" cy="389.99999999999994" stroke="none" fill="rgba(232, 108, 9, 0.4)"/><circle r="3" cx="135.81818181818178" cy="179.99999999999991" stroke="none" fill="rgba(232, 108, 9, 0.4)"/><circle r="3" cx="211.27272727272734" cy="468.75" stroke="none" fill="rgba(232, 108, 9, 0.4)"/><circle r="3" cx="188.63636363636363" cy="386.24999999999994" stroke="none" fill="rgba(232, 108, 9, 0.4)"/><circle r="3" cx="256.54545454545456" cy="457.50000000000006" stroke="none" fill="rgba(232, 108, 9, 0.4)"/><circle r="3" cx="369.72727272727275" cy="495.0000000000001" stroke="none" fill="rgba(232, 108, 9, 0.4)"/><circle r="3" cx="256.54545454545456" cy="510.00000000000006" stroke="none" fill="rgba(232, 108, 9, 0.4)"/><circle r="3" cx="354.63636363636357" cy="558.7499999999999" stroke="none" fill="rgba(232, 108, 9, 0.4)"/><circle r="3" cx="475.3636363636364" cy="656.25" stroke="none" fill="rgba(232, 108, 9, 0.4)"/><circle r="3" cx="173.5454545454546" cy="254.9999999999999" stroke="none" fill="rgba(232, 108, 9, 0.4)"/><circle r="3" cx="316.9090909090909" cy="442.4999999999999" stroke="none" fill="rgba(232, 108, 9, 0.4)"/><circle r="3" cx="279.18181818181813" cy="438.7500000000001" stroke="none" fill="rgba(232, 108, 9, 0.4)"/><circle r="3" cx="339.54545454545456" cy="495.0000000000001" stroke="none" fill="rgba(232, 108, 9, 0.4)"/><circle r="3" cx="98.09090909090908" cy="397.5" stroke="none" fill="rgba(232, 108, 9, 0.4)"/><circle r="3" cx="354.63636363636357" cy="510.00000000000006" stroke="none" fill="rgba(232, 108, 9, 0.4)"/><circle r="3" cx="490.4545454545455" cy="626.25" stroke="none" fill="rgba(232, 108, 9, 0.4)"/><circle r="3" cx="90.54545454545456" cy="333.74999999999994" stroke="none" fill="rgba(232, 108, 9, 0.4)"/><circle r="3" cx="332" cy="510.00000000000006" stroke="none" fill="rgba(232, 108, 9, 0.4)"/><circle r="3" cx="196.18181818181816" cy="525" stroke="none" fill="rgba(232, 108, 9, 0.4)"/><circle r="3" cx="158.45454545454544" cy="476.2500000000001" stroke="none" fill="rgba(232, 108, 9, 0.4)"/><circle r="3" cx="233.9090909090909" cy="356.25" stroke="none" fill="rgba(232, 108, 9, 0.4)"/><circle r="3" cx="249.00000000000003" cy="356.25" stroke="none" fill="rgba(232, 108, 9, 0.4)"/><circle r="3" cx="324.4545454545455" cy="412.50000000000006" stroke="none" fill="rgba(232, 108, 9, 0.4)"/><circle r="3" cx="188.63636363636363" cy="420.0000000000001" stroke="none" fill="rgba(232, 108, 9, 0.4)"/><circle r="3" cx="279.18181818181813" cy="341.25000000000006" stroke="none" fill="rgba(232, 108, 9, 0.4)"/><circle r="3" cx="430.090909090909" cy="491.25" stroke="none" fill="rgba(232, 108, 9, 0.4)"/><circle r="3" cx="415" cy="588.7499999999999" stroke="none" fill="rgba(232, 108, 9, 0.4)"/><circle r="3" cx="294.27272727272725" cy="329.9999999999999" stroke="none" fill="rgba(232, 108, 9, 0.4)"/><circle r="3" cx="316.9090909090909" cy="476.2500000000001" stroke="none" fill="rgba(232, 108, 9, 0.4)"/><circle r="3" cx="784.7272727272726" cy="536.2500000000001" stroke="none" fill="rgba(232, 108, 9, 0.4)"/><circle r="3" cx="286.7272727272728" cy="393.75" stroke="none" fill="rgba(232, 108, 9, 0.4)"/><circle r="3" cx="422.5454545454545" cy="510.00000000000006" stroke="none" fill="rgba(232, 108, 9, 0.4)"/><circle r="3" cx="135.81818181818178" cy="510.00000000000006" stroke="none" fill="rgba(232, 108, 9, 0.4)"/><circle r="3" cx="445.1818181818182" cy="498.7499999999999" stroke="none" fill="rgba(232, 108, 9, 0.4)"/><circle r="3" cx="347.09090909090907" cy="479.99999999999994" stroke="none" fill="rgba(232, 108, 9, 0.4)"/><circle r="3" cx="279.18181818181813" cy="442.4999999999999" stroke="none" fill="rgba(232, 108, 9, 0.4)"/><circle r="3" cx="90.54545454545456" cy="210.00000000000003" stroke="none" fill="rgba(232, 108, 9, 0.4)"/><circle r="3" cx="347.09090909090907" cy="435.00000000000006" stroke="none" fill="rgba(232, 108, 9, 0.4)"/><circle r="3" cx="98.09090909090908" cy="300" stroke="none" fill="rgba(232, 108, 9, 0.4)"/><circle r="3" cx="211.27272727272734" cy="375" stroke="none" fill="rgba(232, 108, 9, 0.4)"/><circle r="3" cx="173.5454545454546" cy="532.5" stroke="none" fill="rgba(232, 108, 9, 0.4)"/><circle r="3" cx="528.1818181818181" cy="600" stroke="none" fill="rgba(232, 108, 9, 0.4)"/><circle r="3" cx="233.9090909090909" cy="408.74999999999994" stroke="none" fill="rgba(232, 108, 9, 0.4)"/><circle r="3" cx="82.99999999999997" cy="495.0000000000001" stroke="none" fill="rgba(232, 108, 9, 0.4)"/><circle r="3" cx="588.5454545454545" cy="581.25" stroke="none" fill="rgba(232, 108, 9, 0.4)"/><circle r="3" cx="415" cy="686.25" stroke="none" fill="rgba(232, 108, 9, 0.4)"/><circle r="3" cx="354.63636363636357" cy="382.5000000000001" stroke="none" fill="rgba(232, 108, 9, 0.4)"/><circle r="3" cx="316.9090909090909" cy="303.75" stroke="none" fill="rgba(232, 108, 9, 0.4)"/><circle r="3" cx="37.72727272727273" cy="164.99999999999997" stroke="none" fill="rgba(232, 108, 9, 0.4)"/><circle r="3" cx="173.5454545454546" cy="389.99999999999994" stroke="none" fill="rgba(232, 108, 9, 0.4)"/><circle r="3" cx="135.81818181818178" cy="112.50000000000001" stroke="none" fill="rgba(232, 108, 9, 0.4)"/><circle r="3" cx="384.8181818181818" cy="464.9999999999999" stroke="none" fill="rgba(232, 108, 9, 0.4)"/><circle r="3" cx="392.3636363636363" cy="412.50000000000006" stroke="none" fill="rgba(232, 108, 9, 0.4)"/><circle r="3" cx="362.18181818181824" cy="510.00000000000006" stroke="none" fill="rgba(232, 108, 9, 0.4)"/><circle r="3" cx="611.1818181818181" cy="435.00000000000006" stroke="none" fill="rgba(232, 108, 9, 0.4)"/><circle r="3" cx="181.09090909090912" cy="138.7500000000001" stroke="none" fill="rgba(232, 108, 9, 0.4)"/><circle r="3" cx="249.00000000000003" cy="540" stroke="none" fill="rgba(232, 108, 9, 0.4)"/><circle r="3" cx="181.09090909090912" cy="479.99999999999994" stroke="none" fill="rgba(232, 108, 9, 0.4)"/><circle r="3" cx="294.27272727272725" cy="487.5" stroke="none" fill="rgba(232, 108, 9, 0.4)"/><circle r="3" cx="377.27272727272725" cy="558.7499999999999" stroke="none" fill="rgba(232, 108, 9, 0.4)"/><circle r="3" cx="271.63636363636357" cy="487.5" stroke="none" fill="rgba(232, 108, 9, 0.4)"/><circle r="3" cx="347.09090909090907" cy="577.4999999999999" stroke="none" fill="rgba(232, 108, 9, 0.4)"/><circle r="3" cx="422.5454545454545" cy="577.4999999999999" stroke="none" fill="rgba(232, 108, 9, 0.4)"/><circle r="3" cx="188.63636363636363" cy="221.24999999999994" stroke="none" fill="rgba(232, 108, 9, 0.4)"/><circle r="3" cx="286.7272727272728" cy="446.25" stroke="none" fill="rgba(232, 108, 9, 0.4)"/><circle r="3" cx="271.63636363636357" cy="461.2499999999999" stroke="none" fill="rgba(232, 108, 9, 0.4)"/><circle r="3" cx="332" cy="506.25000000000006" stroke="none" fill="rgba(232, 108, 9, 0.4)"/><circle r="3" cx="105.63636363636367" cy="329.9999999999999" stroke="none" fill="rgba(232, 108, 9, 0.4)"/><circle r="3" cx="271.63636363636357" cy="502.49999999999994" stroke="none" fill="rgba(232, 108, 9, 0.4)"/><circle r="3" cx="520.6363636363636" cy="633.75" stroke="none" fill="rgba(232, 108, 9, 0.4)"/><circle r="3" cx="128.27272727272728" cy="337.49999999999994" stroke="none" fill="rgba(232, 108, 9, 0.4)"/><circle r="3" cx="407.4545454545455" cy="517.4999999999999" stroke="none" fill="rgba(232, 108, 9, 0.4)"/><circle r="3" cx="218.81818181818184" cy="566.2500000000001" stroke="none" fill="rgba(232, 108, 9, 0.4)"/><circle r="3" cx="241.4545454545454" cy="506.25000000000006" stroke="none" fill="rgba(232, 108, 9, 0.4)"/><circle r="3" cx="241.4545454545454" cy="360.00000000000006" stroke="none" fill="rgba(232, 108, 9, 0.4)"/><circle r="3" cx="241.4545454545454" cy="397.5" stroke="none" fill="rgba(232, 108, 9, 0.4)"/><circle r="3" cx="354.63636363636357" cy="401.2500000000001" stroke="none" fill="rgba(232, 108, 9, 0.4)"/><circle r="3" cx="271.63636363636357" cy="472.5000000000001" stroke="none" fill="rgba(232, 108, 9, 0.4)"/><circle r="3" cx="347.09090909090907" cy="363.75000000000006" stroke="none" fill="rgba(232, 108, 9, 0.4)"/><circle r="3" cx="332" cy="483.74999999999994" stroke="none" fill="rgba(232, 108, 9, 0.4)"/><circle r="3" cx="377.27272727272725" cy="596.25" stroke="none" fill="rgba(232, 108, 9, 0.4)"/><circle r="3" cx="241.4545454545454" cy="300" stroke="none" fill="rgba(232, 108, 9, 0.4)"/><circle r="3" cx="309.3636363636363" cy="461.2499999999999" stroke="none" fill="rgba(232, 108, 9, 0.4)"/><circle r="3" cx="671.5454545454545" cy="562.5" stroke="none" fill="rgba(232, 108, 9, 0.4)"/><circle r="3" cx="249.00000000000003" cy="464.9999999999999" stroke="none" fill="rgba(232, 108, 9, 0.4)"/><circle r="3" cx="490.4545454545455" cy="521.25" stroke="none" fill="rgba(232, 108, 9, 0.4)"/><circle r="3" cx="233.9090909090909" cy="547.5000000000001" stroke="none" fill="rgba(232, 108, 9, 0.4)"/><circle r="3" cx="467.8181818181818" cy="607.5" stroke="none" fill="rgba(232, 108, 9, 0.4)"/><circle r="3" cx="369.72727272727275" cy="528.75" stroke="none" fill="rgba(232, 108, 9, 0.4)"/><circle r="3" cx="271.63636363636357" cy="472.5000000000001" stroke="none" fill="rgba(232, 108, 9, 0.4)"/><circle r="3" cx="82.99999999999997" cy="277.4999999999999" stroke="none" fill="rgba(232, 108, 9, 0.4)"/><circle r="3" cx="286.7272727272728" cy="442.4999999999999" stroke="none" fill="rgba(232, 108, 9, 0.4)"/><circle r="3" cx="135.81818181818178" cy="352.5" stroke="none" fill="rgba(232, 108, 9, 0.4)"/><circle r="3" cx="196.18181818181816" cy="348.7499999999999" stroke="none" fill="rgba(232, 108, 9, 0.4)"/><circle r="3" cx="165.99999999999994" cy="547.5000000000001" stroke="none" fill="rgba(232, 108, 9, 0.4)"/><circle r="3" cx="528.1818181818181" cy="618.75" stroke="none" fill="rgba(232, 108, 9, 0.4)"/><circle r="3" cx="196.18181818181816" cy="446.25" stroke="none" fill="rgba(232, 108, 9, 0.4)"/><circle r="3" cx="105.63636363636367" cy="450" stroke="none" fill="rgba(232, 108, 9, 0.4)"/><circle r="3" cx="520.6363636363636" cy="547.5000000000001" stroke="none" fill="rgba(232, 108, 9, 0.4)"/><circle r="3" cx="505.5454545454545" cy="690" stroke="none" fill="rgba(232, 108, 9, 0.4)"/><circle r="3" cx="301.8181818181818" cy="457.50000000000006" stroke="none" fill="rgba(232, 108, 9, 0.4)"/><circle r="3" cx="324.4545454545455" cy="311.2499999999999" stroke="none" fill="rgba(232, 108, 9, 0.4)"/><circle r="3" cx="98.09090909090908" cy="206.25000000000003" stroke="none" fill="rgba(232, 108, 9, 0.4)"/><circle r="3" cx="241.4545454545454" cy="296.24999999999994" stroke="none" fill="rgba(232, 108, 9, 0.4)"/><circle r="3" cx="181.09090909090912" cy="108.74999999999993" stroke="none" fill="rgba(232, 108, 9, 0.4)"/><circle r="3" cx="384.8181818181818" cy="558.7499999999999" stroke="none" fill="rgba(232, 108, 9, 0.4)"/><circle r="3" cx="392.3636363636363" cy="386.24999999999994" stroke="none" fill="rgba(232, 108, 9, 0.4)"/><circle r="3" cx="422.5454545454545" cy="517.4999999999999" stroke="none" fill="rgba(232, 108, 9, 0.4)"/><circle r="3" cx="362.18181818181824" cy="468.75" stroke="none" fill="rgba(232, 108, 9, 0.4)"/><circle r="3" cx="286.7272727272728" cy="243.74999999999997" stroke="none" fill="rgba(232, 108, 9, 0.4)"/><circle r="3" cx="264.09090909090907" cy="536.2500000000001" stroke="none" fill="rgba(232, 108, 9, 0.4)"/><circle r="3" cx="120.7272727272727" cy="495.0000000000001" stroke="none" fill="rgba(232, 108, 9, 0.4)"/><circle r="3" cx="309.3636363636363" cy="442.4999999999999" stroke="none" fill="rgba(232, 108, 9, 0.4)"/><circle r="3" cx="354.63636363636357" cy="547.5000000000001" stroke="none" fill="rgba(232, 108, 9, 0.4)"/><circle r="3" cx="324.4545454545455" cy="513.7500000000001" stroke="none" fill="rgba(232, 108, 9, 0.4)"/><circle r="3" cx="490.4545454545455" cy="570" stroke="none" fill="rgba(232, 108, 9, 0.4)"/><circle r="3" cx="399.90909090909093" cy="615" stroke="none" fill="rgba(232, 108, 9, 0.4)"/><circle r="3" cx="279.18181818181813" cy="273.7499999999999" stroke="none" fill="rgba(232, 108, 9, 0.4)"/><circle r="3" cx="309.3636363636363" cy="468.75" stroke="none" fill="rgba(232, 108, 9, 0.4)"/><circle r="3" cx="264.09090909090907" cy="457.50000000000006" stroke="none" fill="rgba(232, 108, 9, 0.4)"/><circle r="3" cx="332" cy="506.25000000000006" stroke="none" fill="rgba(232, 108, 9, 0.4)"/><circle r="3" cx="158.45454545454544" cy="431.24999999999994" stroke="none" fill="rgba(232, 108, 9, 0.4)"/><circle r="3" cx="384.8181818181818" cy="491.25" stroke="none" fill="rgba(232, 108, 9, 0.4)"/><circle r="3" cx="528.1818181818181" cy="686.25" stroke="none" fill="rgba(232, 108, 9, 0.4)"/><circle r="3" cx="211.27272727272734" cy="404.9999999999999" stroke="none" fill="rgba(232, 108, 9, 0.4)"/><circle r="3" cx="362.18181818181824" cy="506.25000000000006" stroke="none" fill="rgba(232, 108, 9, 0.4)"/><circle r="3" cx="196.18181818181816" cy="607.5" stroke="none" fill="rgba(232, 108, 9, 0.4)"/><circle r="3" cx="241.4545454545454" cy="536.2500000000001" stroke="none" fill="rgba(232, 108, 9, 0.4)"/><circle r="3" cx="233.9090909090909" cy="412.50000000000006" stroke="none" fill="rgba(232, 108, 9, 0.4)"/><circle r="3" cx="279.18181818181813" cy="408.74999999999994" stroke="none" fill="rgba(232, 108, 9, 0.4)"/><circle r="3" cx="415" cy="472.5000000000001" stroke="none" fill="rgba(232, 108, 9, 0.4)"/><circle r="3" cx="271.63636363636357" cy="450" stroke="none" fill="rgba(232, 108, 9, 0.4)"/><circle r="3" cx="301.8181818181818" cy="337.49999999999994" stroke="none" fill="rgba(232, 108, 9, 0.4)"/><circle r="3" cx="430.090909090909" cy="540" stroke="none" fill="rgba(232, 108, 9, 0.4)"/><circle r="3" cx="452.7272727272727" cy="603.75" stroke="none" fill="rgba(232, 108, 9, 0.4)"/><circle r="3" cx="226.36363636363635" cy="378.7500000000001" stroke="none" fill="rgba(232, 108, 9, 0.4)"/><circle r="3" cx="392.3636363636363" cy="446.25" stroke="none" fill="rgba(232, 108, 9, 0.4)"/><circle r="3" cx="731.9090909090909" cy="528.75" stroke="none" fill="rgba(232, 108, 9, 0.4)"/><circle r="3" cx="256.54545454545456" cy="371.2499999999999" stroke="none" fill="rgba(232, 108, 9, 0.4)"/><circle r="3" cx="452.7272727272727" cy="547.5000000000001" stroke="none" fill="rgba(232, 108, 9, 0.4)"/><circle r="3" cx="233.9090909090909" cy="472.5000000000001" stroke="none" fill="rgba(232, 108, 9, 0.4)"/><circle r="3" cx="528.1818181818181" cy="558.7499999999999" stroke="none" fill="rgba(232, 108, 9, 0.4)"/><circle r="3" cx="377.27272727272725" cy="585" stroke="none" fill="rgba(232, 108, 9, 0.4)"/><circle r="3" cx="301.8181818181818" cy="472.5000000000001" stroke="none" fill="rgba(232, 108, 9, 0.4)"/><circle r="3" cx="82.99999999999997" cy="292.49999999999994" stroke="none" fill="rgba(232, 108, 9, 0.4)"/><circle r="3" cx="279.18181818181813" cy="468.75" stroke="none" fill="rgba(232, 108, 9, 0.4)"/><circle r="3" cx="143.3636363636364" cy="300" stroke="none" fill="rgba(232, 108, 9, 0.4)"/><circle r="3" cx="218.81818181818184" cy="431.24999999999994" stroke="none" fill="rgba(232, 108, 9, 0.4)"/><circle r="3" cx="226.36363636363635" cy="555" stroke="none" fill="rgba(232, 108, 9, 0.4)"/><circle r="3" cx="611.1818181818181" cy="660.0000000000001" stroke="none" fill="rgba(232, 108, 9, 0.4)"/><circle r="3" cx="181.09090909090912" cy="479.99999999999994" stroke="none" fill="rgba(232, 108, 9, 0.4)"/><circle r="3" cx="120.7272727272727" cy="532.5" stroke="none" fill="rgba(232, 108, 9, 0.4)"/><circle r="3" cx="565.9090909090909" cy="641.2500000000001" stroke="none" fill="rgba(232, 108, 9, 0.4)"/><circle r="3" cx="498" cy="667.5" stroke="none" fill="rgba(232, 108, 9, 0.4)"/><circle r="3" cx="309.3636363636363" cy="502.49999999999994" stroke="none" fill="rgba(232, 108, 9, 0.4)"/><circle r="3" cx="301.8181818181818" cy="300" stroke="none" fill="rgba(232, 108, 9, 0.4)"/><circle r="3" cx="60.36363636363635" cy="179.99999999999991" stroke="none" fill="rgba(232, 108, 9, 0.4)"/><circle r="3" cx="249.00000000000003" cy="363.75000000000006" stroke="none" fill="rgba(232, 108, 9, 0.4)"/><circle r="3" cx="188.63636363636363" cy="93.75" stroke="none" fill="rgba(232, 108, 9, 0.4)"/><circle r="3" cx="415" cy="536.2500000000001" stroke="none" fill="rgba(232, 108, 9, 0.4)"/><circle r="3" cx="399.90909090909093" cy="453.75000000000006" stroke="none" fill="rgba(232, 108, 9, 0.4)"/><circle r="3" cx="399.90909090909093" cy="498.7499999999999" stroke="none" fill="rgba(232, 108, 9, 0.4)"/><circle r="3" cx="452.7272727272727" cy="555" stroke="none" fill="rgba(232, 108, 9, 0.4)"/><circle r="3" cx="188.63636363636363" cy="195.00000000000009" stroke="none" fill="rgba(232, 108, 9, 0.4)"/><circle r="3" cx="211.27272727272734" cy="525" stroke="none" fill="rgba(232, 108, 9, 0.4)"/><circle r="3" cx="158.45454545454544" cy="491.25" stroke="none" fill="rgba(232, 108, 9, 0.4)"/><circle r="3" cx="294.27272727272725" cy="510.00000000000006" stroke="none" fill="rgba(232, 108, 9, 0.4)"/><circle r="3" cx="407.4545454545455" cy="532.5" stroke="none" fill="rgba(232, 108, 9, 0.4)"/><circle r="3" cx="279.18181818181813" cy="603.75" stroke="none" fill="rgba(232, 108, 9, 0.4)"/><circle r="3" cx="558.3636363636364" cy="566.2500000000001" stroke="none" fill="rgba(232, 108, 9, 0.4)"/><circle r="3" cx="505.5454545454545" cy="648.75" stroke="none" fill="rgba(232, 108, 9, 0.4)"/><circle r="3" cx="218.81818181818184" cy="285.0000000000001" stroke="none" fill="rgba(232, 108, 9, 0.4)"/><circle r="3" cx="324.4545454545455" cy="495.0000000000001" stroke="none" fill="rgba(232, 108, 9, 0.4)"/><circle r="3" cx="294.27272727272725" cy="525" stroke="none" fill="rgba(232, 108, 9, 0.4)"/><circle r="3" cx="354.63636363636357" cy="521.25" stroke="none" fill="rgba(232, 108, 9, 0.4)"/><circle r="3" cx="120.7272727272727" cy="389.99999999999994" stroke="none" fill="rgba(232, 108, 9, 0.4)"/><circle r="3" cx="415" cy="536.2500000000001" stroke="none" fill="rgba(232, 108, 9, 0.4)"/><circle r="3" cx="656.4545454545455" cy="667.5" stroke="none" fill="rgba(232, 108, 9, 0.4)"/><circle r="3" cx="143.3636363636364" cy="326.2500000000001" stroke="none" fill="rgba(232, 108, 9, 0.4)"/><circle r="3" cx="354.63636363636357" cy="498.7499999999999" stroke="none" fill="rgba(232, 108, 9, 0.4)"/><circle r="3" cx="203.7272727272727" cy="532.5" stroke="none" fill="rgba(232, 108, 9, 0.4)"/><circle r="3" cx="211.27272727272734" cy="562.5" stroke="none" fill="rgba(232, 108, 9, 0.4)"/><circle r="3" cx="158.45454545454544" cy="408.74999999999994" stroke="none" fill="rgba(232, 108, 9, 0.4)"/><circle r="3" cx="226.36363636363635" cy="412.50000000000006" stroke="none" fill="rgba(232, 108, 9, 0.4)"/><circle r="3" cx="415" cy="450" stroke="none" fill="rgba(232, 108, 9, 0.4)"/><circle r="3" cx="279.18181818181813" cy="464.9999999999999" stroke="none" fill="rgba(232, 108, 9, 0.4)"/><circle r="3" cx="286.7272727272728" cy="285.0000000000001" stroke="none" fill="rgba(232, 108, 9, 0.4)"/><circle r="3" cx="377.27272727272725" cy="536.2500000000001" stroke="none" fill="rgba(232, 108, 9, 0.4)"/><circle r="3" cx="430.090909090909" cy="615" stroke="none" fill="rgba(232, 108, 9, 0.4)"/><circle r="3" cx="354.63636363636357" cy="468.75" stroke="none" fill="rgba(232, 108, 9, 0.4)"/><circle r="3" cx="332" cy="521.25" stroke="none" fill="rgba(232, 108, 9, 0.4)"/><circle r="3" cx="792.2727272727273" cy="573.75" stroke="none" fill="rgba(232, 108, 9, 0.4)"/><circle r="3" cx="226.36363636363635" cy="378.7500000000001" stroke="none" fill="rgba(232, 108, 9, 0.4)"/><circle r="3" cx="437.6363636363637" cy="525" stroke="none" fill="rgba(232, 108, 9, 0.4)"/><circle r="3" cx="249.00000000000003" cy="438.7500000000001" stroke="none" fill="rgba(232, 108, 9, 0.4)"/><circle r="3" cx="505.5454545454545" cy="603.75" stroke="none" fill="rgba(232, 108, 9, 0.4)"/><circle r="3" cx="407.4545454545455" cy="618.75" stroke="none" fill="rgba(232, 108, 9, 0.4)"/><circle r="3" cx="294.27272727272725" cy="498.7499999999999" stroke="none" fill="rgba(232, 108, 9, 0.4)"/><circle r="3" cx="75.45454545454545" cy="288.7500000000001" stroke="none" fill="rgba(232, 108, 9, 0.4)"/><circle r="3" cx="324.4545454545455" cy="450" stroke="none" fill="rgba(232, 108, 9, 0.4)"/><circle r="3" cx="165.99999999999994" cy="281.25" stroke="none" fill="rgba(232, 108, 9, 0.4)"/><circle r="3" cx="181.09090909090912" cy="378.7500000000001" stroke="none" fill="rgba(232, 108, 9, 0.4)"/><circle r="3" cx="181.09090909090912" cy="498.7499999999999" stroke="none" fill="rgba(232, 108, 9, 0.4)"/><circle r="3" cx="641.3636363636364" cy="716.25" stroke="none" fill="rgba(232, 108, 9, 0.4)"/><circle r="3" cx="181.09090909090912" cy="491.25" stroke="none" fill="rgba(232, 108, 9, 0.4)"/></g><g transform="translate(40,20)"><path fill="none" stroke="rgba(232, 108, 9, 0.8)" stroke-width="2" d="M37.72727272727273,280.5864413490058L52.818181818181834,290.4764246568672L60.36363636363635,295.39741361018804L75.45454545454545,305.1995688674492L82.99999999999997,310.08594405131436L90.54545454545456,314.96541314584374L98.09090909090908,319.83933807466514L105.63636363636367,324.70933828791533L120.7272727272727,334.4447922459608L128.27272727272728,339.31375453728623L135.81818181818178,344.183841947695L143.3636363636364,349.05462468937384L150.9090909090909,353.92622866508924L158.45454545454544,358.7984470678234L165.99999999999994,363.67076687982296L173.5454545454546,368.54092697295255L181.09090909090912,373.4057929945125L188.63636363636363,378.2610197992136L196.18181818181816,383.10166499302505L203.7272727272727,387.9232194505549L211.27272727272734,392.71862015753163L218.81818181818184,397.4776421465658L226.36363636363635,402.1862951389614L233.9090909090909,406.8285068070416L241.4545454545454,411.3893878440023L249.00000000000003,415.8660142967301L256.54545454545456,420.43464406021775L264.09090909090907,424.88964000684007L271.63636363636357,429.7493013536262L279.18181818181813,434.32989621513946L286.7272727272728,439.16504195055614L294.27272727272725,444.0678634139586L301.8181818181818,449.03869355311826L309.3636363636363,454.0830524409856L316.9090909090909,459.20441597971023L324.4545454545455,464.64438838714625L332,470.16347400181303L339.54545454545456,475.52968330288553L347.09090909090907,480.97380677167376L354.63636363636357,486.64811127404283L362.18181818181824,492.29888754791835L369.72727272727275,497.8924665421949L377.27272727272725,503.5167870146227L384.8181818181818,509.06879779638103L392.3636363636363,514.5470313379217L399.90909090909093,520.1949265420844L407.4545454545455,525.6050263738907L415,530.9675966435332L422.5454545454545,536.2924512470153L430.090909090909,541.5913448323807L437.6363636363637,546.8754571856531L445.1818181818182,552.1516323047231L452.7272727272727,557.4241475494005L460.2727272727273,562.6977318236296L467.8181818181818,568.4164893981483L475.3636363636364,573.7100544600947L490.4545454545455,584.3277512233358L498,589.6537027835318L505.5454545454545,594.9913253028535L520.6363636363636,605.6969093082026L528.1818181818181,611.060468793929L558.3636363636364,632.5301097410386L565.9090909090909,637.8889873378953L588.5454545454545,653.9121949018164L611.1818181818181,669.8265260659435L641.3636363636364,690.8376102145251L656.4545454545455,701.2520358779769L671.5454545454545,711.6057397834938L731.9090909090909,752.4440358347771L784.7272727272726,787.5104645639116L792.2727272727273,792.4763594836318"/></g></svg>