<svg viewBox="0,0,900,800" color="rgba(5, 5, 38, 0.5)" width="600" xmlns="http://www.w3.org/2000/svg" xmlns:xlink="http://www.w3.org/1999/xlink"><g transform="translate(40,5)"><rect fill="#F7FBFB" x="0" y="0" width="845" height="765"/></g><g transform="translate(40,770)" fill="none" font-size="10" font-family="sans-serif" text-anchor="middle"><g class="tick" opacity="1" transform="translate(0.5,0)"><line stroke="currentColor" y2="6"/><text fill="currentColor" y="9" dy="0.71em" font-size="12">6</text></g><g class="tick" opacity="1" transform="translate(75.95454545454545,0)"><line stroke="currentColor" y2="6"/><text fill="currentColor" y="9" dy="0.71em" font-size="12">7</text></g><g class="tick" opacity="1" transform="translate(151.4090909090909,0)"><line stroke="currentColor" y2="6"/><text fill="currentColor" y="9" dy="0.71em" font-size="12">8</text></g><g class="tick" opacity="1" transform="translate(226.86363636363635,0)"><line stroke="currentColor" y2="6"/><text fill="currentColor" y="9" dy="0.71em" font-size="12">9</text></g><g class="tick" opacity="1" transform="translate(302.3181818181818,0)"><line stroke="currentColor" y2="6"/><text fill="currentColor" y="9" dy="0.71em" font-size="12">10</text></g><g class="tick" opacity="1" transform="translate(377.77272727272725,0)"><line stroke="currentColor" y2="6"/><text fill="currentColor" y="9" dy="0.71em" font-size="12">11</text></g><g class="tick" opacity="1" transform="translate(453.2272727272727,0)"><line stroke="currentColor" y2="6"/><text fill="currentColor" y="9" dy="0.71em" font-size="12">12</text></g><g class="tick" opacity="1" transform="translate(528.6818181818181,0)"><line stroke="currentColor" y2="6"/><text fill="currentColor" y="9" dy="0.71em" font-size="12">13</text></g><g class="tick" opacity="1" transform="translate(604.1363636363636,0)"><line stroke="currentColor" y2="6"/><text fill="currentColor" y="9" dy="0.71em" font-size="12">14</text></g><g class="tick" opacity="1" transform="translate(679.5909090909091,0)"><line stroke="currentColor" y2="6"/><text fill="currentColor" y="9" dy="0.71em" font-size="12">15</text></g><g class="tick" opacity="1" transform="translate(755.0454545454545,0)"><line stroke="currentColor" y2="6"/><text fill="currentColor" y="9" dy="0.71em" font-size="12">16</text></g><g class="tick" opacity="1" transform="translate(830.5,0)"><line stroke="currentColor" y2="6"/><text fill="currentColor" y="9" dy="0.71em" font-size="12">17</text></g><text fill="rgba(5, 5, 38, 0.5)" font-weight="bold" text-anchor="end" font-size="12" x="830" y="-12">Diabetes</text></g><g transform="translate(40,20)" fill="none" font-size="10" font-family="sans-serif" text-anchor="end"><g class="tick" opacity="1" transform="translate(0,750.5)"><line stroke="currentColor" x2="-6"/><text fill="currentColor" x="-9" dy="0.32em" font-size="12">20</text></g><g class="tick" opacity="1" transform="translate(0,667.1666666666666)"><line stroke="currentColor" x2="-6"/><text fill="currentColor" x="-9" dy="0.32em" font-size="12">22</text></g><g class="tick" opacity="1" transform="translate(0,583.8333333333334)"><line stroke="currentColor" x2="-6"/><text fill="currentColor" x="-9" dy="0.32em" font-size="12">24</text></g><g class="tick" opacity="1" transform="translate(0,500.50000000000006)"><line stroke="currentColor" x2="-6"/><text fill="currentColor" x="-9" dy="0.32em" font-size="12">26</text></g><g class="tick" opacity="1" transform="translate(0,417.1666666666667)"><line stroke="currentColor" x2="-6"/><text fill="currentColor" x="-9" dy="0.32em" font-size="12">28</text></g><g class="tick" opacity="1" transform="translate(0,333.8333333333333)"><line stroke="currentColor" x2="-6"/><text fill="currentColor" x="-9" dy="0.32em" font-size="12">30</text></g><g class="tick" opacity="1" transform="translate(0,250.50000000000003)"><line stroke="currentColor" x2="-6"/><text fill="currentColor" x="-9" dy="0.32em" font-size="12">32</text></g><g class="tick" opacity="1" transform="translate(0,167.16666666666666)"><line stroke="currentColor" x2="-6"/><text fill="currentColor" x="-9" dy="0.32em" font-size="12">34</text></g><g class="tick" opacity="1" transform="translate(0,83.83333333333337)"><line stroke="currentColor" x2="-6"/><text fill="currentColor" x="-9" dy="0.32em" font-size="12">36</text></g><g class="tick" opacity="1" transform="translate(0,0.5)"><line stroke="currentColor" x2="-6"/><text fill="currentColor" x="-9" dy="0.32em" font-size="12">38</text><text fill="rgba(5, 5, 38, 0.5)" x="8" dy="0.32em" font-size="12" text-anchor="start" font-weight="bold">Obese</text></g></g><g transform="translate(40,20)"><circle r="3" cx="143.3636363636364" cy="441.66666666666674" stroke="none" fill="rgba(39, 181, 234, 0.4)"/><circle r="3" cx="437.6363636363637" cy="250.00000000000003" stroke="none" fill="rgba(39, 181, 234, 0.4)"/><circle r="3" cx="332" cy="295.83333333333337" stroke="none" fill="rgba(39, 181, 234, 0.4)"/><circle r="3" cx="264.09090909090907" cy="537.4999999999999" stroke="none" fill="rgba(39, 181, 234, 0.4)"/><circle r="3" cx="218.81818181818184" cy="591.6666666666666" stroke="none" fill="rgba(39, 181, 234, 0.4)"/><circle r="3" cx="52.818181818181834" cy="720.8333333333334" stroke="none" fill="rgba(39, 181, 234, 0.4)"/><circle r="3" cx="249.00000000000003" cy="562.5" stroke="none" fill="rgba(39, 181, 234, 0.4)"/><circle r="3" cx="233.9090909090909" cy="595.8333333333334" stroke="none" fill="rgba(39, 181, 234, 0.4)"/><circle r="3" cx="279.18181818181813" cy="383.3333333333333" stroke="none" fill="rgba(39, 181, 234, 0.4)"/><circle r="3" cx="332" cy="475" stroke="none" fill="rgba(39, 181, 234, 0.4)"/><circle r="3" cx="316.9090909090909" cy="416.6666666666667" stroke="none" fill="rgba(39, 181, 234, 0.4)"/><circle r="3" cx="294.27272727272725" cy="441.66666666666674" stroke="none" fill="rgba(39, 181, 234, 0.4)"/><circle r="3" cx="181.09090909090912" cy="674.9999999999999" stroke="none" fill="rgba(39, 181, 234, 0.4)"/><circle r="3" cx="165.99999999999994" cy="375" stroke="none" fill="rgba(39, 181, 234, 0.4)"/><circle r="3" cx="256.54545454545456" cy="458.33333333333337" stroke="none" fill="rgba(39, 181, 234, 0.4)"/><circle r="3" cx="279.18181818181813" cy="454.1666666666666" stroke="none" fill="rgba(39, 181, 234, 0.4)"/><circle r="3" cx="316.9090909090909" cy="299.99999999999994" stroke="none" fill="rgba(39, 181, 234, 0.4)"/><circle r="3" cx="264.09090909090907" cy="349.99999999999994" stroke="none" fill="rgba(39, 181, 234, 0.4)"/><circle r="3" cx="362.18181818181824" cy="316.6666666666667" stroke="none" fill="rgba(39, 181, 234, 0.4)"/><circle r="3" cx="437.6363636363637" cy="191.66666666666674" stroke="none" fill="rgba(39, 181, 234, 0.4)"/><circle r="3" cx="150.9090909090909" cy="637.5000000000001" stroke="none" fill="rgba(39, 181, 234, 0.4)"/><circle r="3" cx="264.09090909090907" cy="404.16666666666663" stroke="none" fill="rgba(39, 181, 234, 0.4)"/><circle r="3" cx="271.63636363636357" cy="425" stroke="none" fill="rgba(39, 181, 234, 0.4)"/><circle r="3" cx="301.8181818181818" cy="279.1666666666667" stroke="none" fill="rgba(39, 181, 234, 0.4)"/><circle r="3" cx="98.09090909090908" cy="512.5" stroke="none" fill="rgba(39, 181, 234, 0.4)"/><circle r="3" cx="316.9090909090909" cy="320.83333333333326" stroke="none" fill="rgba(39, 181, 234, 0.4)"/><circle r="3" cx="475.3636363636364" cy="129.1666666666667" stroke="none" fill="rgba(39, 181, 234, 0.4)"/><circle r="3" cx="150.9090909090909" cy="558.3333333333333" stroke="none" fill="rgba(39, 181, 234, 0.4)"/><circle r="3" cx="369.72727272727275" cy="370.83333333333326" stroke="none" fill="rgba(39, 181, 234, 0.4)"/><circle r="3" cx="165.99999999999994" cy="425" stroke="none" fill="rgba(39, 181, 234, 0.4)"/><circle r="3" cx="181.09090909090912" cy="400.00000000000006" stroke="none" fill="rgba(39, 181, 234, 0.4)"/><circle r="3" cx="203.7272727272727" cy="491.66666666666674" stroke="none" fill="rgba(39, 181, 234, 0.4)"/><circle r="3" cx="211.27272727272734" cy="595.8333333333334" stroke="none" fill="rgba(39, 181, 234, 0.4)"/><circle r="3" cx="294.27272727272725" cy="487.49999999999994" stroke="none" fill="rgba(39, 181, 234, 0.4)"/><circle r="3" cx="324.4545454545455" cy="562.5" stroke="none" fill="rgba(39, 181, 234, 0.4)"/><circle r="3" cx="332" cy="562.5" stroke="none" fill="rgba(39, 181, 234, 0.4)"/><circle r="3" cx="301.8181818181818" cy="349.99999999999994" stroke="none" fill="rgba(39, 181, 234, 0.4)"/><circle r="3" cx="384.8181818181818" cy="287.5" stroke="none" fill="rgba(39, 181, 234, 0.4)"/><circle r="3" cx="249.00000000000003" cy="470.8333333333333" stroke="none" fill="rgba(39, 181, 234, 0.4)"/><circle r="3" cx="264.09090909090907" cy="391.66666666666663" stroke="none" fill="rgba(39, 181, 234, 0.4)"/><circle r="3" cx="565.9090909090909" cy="487.49999999999994" stroke="none" fill="rgba(39, 181, 234, 0.4)"/><circle r="3" cx="181.09090909090912" cy="525" stroke="none" fill="rgba(39, 181, 234, 0.4)"/><circle r="3" cx="460.2727272727273" cy="299.99999999999994" stroke="none" fill="rgba(39, 181, 234, 0.4)"/><circle r="3" cx="264.09090909090907" cy="412.49999999999994" stroke="none" fill="rgba(39, 181, 234, 0.4)"/><circle r="3" cx="392.3636363636363" cy="366.6666666666667" stroke="none" fill="rgba(39, 181, 234, 0.4)"/><circle r="3" cx="316.9090909090909" cy="316.6666666666667" stroke="none" fill="rgba(39, 181, 234, 0.4)"/><circle r="3" cx="264.09090909090907" cy="425" stroke="none" fill="rgba(39, 181, 234, 0.4)"/><circle r="3" cx="52.818181818181834" cy="566.6666666666667" stroke="none" fill="rgba(39, 181, 234, 0.4)"/><circle r="3" cx="332" cy="366.6666666666667" stroke="none" fill="rgba(39, 181, 234, 0.4)"/><circle r="3" cx="128.27272727272728" cy="525" stroke="none" fill="rgba(39, 181, 234, 0.4)"/><circle r="3" cx="218.81818181818184" cy="479.16666666666663" stroke="none" fill="rgba(39, 181, 234, 0.4)"/><circle r="3" cx="181.09090909090912" cy="429.16666666666663" stroke="none" fill="rgba(39, 181, 234, 0.4)"/><circle r="3" cx="452.7272727272727" cy="233.33333333333343" stroke="none" fill="rgba(39, 181, 234, 0.4)"/><circle r="3" cx="165.99999999999994" cy="541.6666666666666" stroke="none" fill="rgba(39, 181, 234, 0.4)"/><circle r="3" cx="75.45454545454545" cy="512.5" stroke="none" fill="rgba(39, 181, 234, 0.4)"/><circle r="3" cx="392.3636363636363" cy="208.33333333333334" stroke="none" fill="rgba(39, 181, 234, 0.4)"/><circle r="3" cx="399.90909090909093" cy="145.83333333333331" stroke="none" fill="rgba(39, 181, 234, 0.4)"/><circle r="3" cx="347.09090909090907" cy="500.00000000000006" stroke="none" fill="rgba(39, 181, 234, 0.4)"/><circle r="3" cx="286.7272727272728" cy="541.6666666666666" stroke="none" fill="rgba(39, 181, 234, 0.4)"/><circle r="3" cx="105.63636363636367" cy="729.1666666666666" stroke="none" fill="rgba(39, 181, 234, 0.4)"/><circle r="3" cx="233.9090909090909" cy="516.6666666666666" stroke="none" fill="rgba(39, 181, 234, 0.4)"/><circle r="3" cx="165.99999999999994" cy="670.8333333333334" stroke="none" fill="rgba(39, 181, 234, 0.4)"/><circle r="3" cx="271.63636363636357" cy="462.5" stroke="none" fill="rgba(39, 181, 234, 0.4)"/><circle r="3" cx="407.4545454545455" cy="533.3333333333334" stroke="none" fill="rgba(39, 181, 234, 0.4)"/><circle r="3" cx="294.27272727272725" cy="370.83333333333326" stroke="none" fill="rgba(39, 181, 234, 0.4)"/><circle r="3" cx="271.63636363636357" cy="370.83333333333326" stroke="none" fill="rgba(39, 181, 234, 0.4)"/><circle r="3" cx="135.81818181818178" cy="600" stroke="none" fill="rgba(39, 181, 234, 0.4)"/><circle r="3" cx="211.27272727272734" cy="316.6666666666667" stroke="none" fill="rgba(39, 181, 234, 0.4)"/><circle r="3" cx="188.63636363636363" cy="466.6666666666667" stroke="none" fill="rgba(39, 181, 234, 0.4)"/><circle r="3" cx="256.54545454545456" cy="412.49999999999994" stroke="none" fill="rgba(39, 181, 234, 0.4)"/><circle r="3" cx="369.72727272727275" cy="275" stroke="none" fill="rgba(39, 181, 234, 0.4)"/><circle r="3" cx="256.54545454545456" cy="341.66666666666663" stroke="none" fill="rgba(39, 181, 234, 0.4)"/><circle r="3" cx="354.63636363636357" cy="279.1666666666667" stroke="none" fill="rgba(39, 181, 234, 0.4)"/><circle r="3" cx="475.3636363636364" cy="137.49999999999986" stroke="none" fill="rgba(39, 181, 234, 0.4)"/><circle r="3" cx="173.5454545454546" cy="629.1666666666667" stroke="none" fill="rgba(39, 181, 234, 0.4)"/><circle r="3" cx="316.9090909090909" cy="433.3333333333333" stroke="none" fill="rgba(39, 181, 234, 0.4)"/><circle r="3" cx="279.18181818181813" cy="404.16666666666663" stroke="none" fill="rgba(39, 181, 234, 0.4)"/><circle r="3" cx="339.54545454545456" cy="287.5" stroke="none" fill="rgba(39, 181, 234, 0.4)"/><circle r="3" cx="98.09090909090908" cy="512.5" stroke="none" fill="rgba(39, 181, 234, 0.4)"/><circle r="3" cx="354.63636363636357" cy="349.99999999999994" stroke="none" fill="rgba(39, 181, 234, 0.4)"/><circle r="3" cx="490.4545454545455" cy="141.66666666666657" stroke="none" fill="rgba(39, 181, 234, 0.4)"/><circle r="3" cx="90.54545454545456" cy="570.8333333333333" stroke="none" fill="rgba(39, 181, 234, 0.4)"/><circle r="3" cx="332" cy="349.99999999999994" stroke="none" fill="rgba(39, 181, 234, 0.4)"/><circle r="3" cx="196.18181818181816" cy="345.83333333333337" stroke="none" fill="rgba(39, 181, 234, 0.4)"/><circle r="3" cx="158.45454545454544" cy="391.66666666666663" stroke="none" fill="rgba(39, 181, 234, 0.4)"/><circle r="3" cx="233.9090909090909" cy="445.83333333333326" stroke="none" fill="rgba(39, 181, 234, 0.4)"/><circle r="3" cx="249.00000000000003" cy="558.3333333333333" stroke="none" fill="rgba(39, 181, 234, 0.4)"/><circle r="3" cx="324.4545454545455" cy="454.1666666666666" stroke="none" fill="rgba(39, 181, 234, 0.4)"/><circle r="3" cx="188.63636363636363" cy="491.66666666666674" stroke="none" fill="rgba(39, 181, 234, 0.4)"/><circle r="3" cx="279.18181818181813" cy="600" stroke="none" fill="rgba(39, 181, 234, 0.4)"/><circle r="3" cx="430.090909090909" cy="329.1666666666666" stroke="none" fill="rgba(39, 181, 234, 0.4)"/><circle r="3" cx="415" cy="241.66666666666654" stroke="none" fill="rgba(39, 181, 234, 0.4)"/><circle r="3" cx="294.27272727272725" cy="445.83333333333326" stroke="none" fill="rgba(39, 181, 234, 0.4)"/><circle r="3" cx="316.9090909090909" cy="370.83333333333326" stroke="none" fill="rgba(39, 181, 234, 0.4)"/><circle r="3" cx="784.7272727272726" cy="400.00000000000006" stroke="none" fill="rgba(39, 181, 234, 0.4)"/><circle r="3" cx="286.7272727272728" cy="512.5" stroke="none" fill="rgba(39, 181, 234, 0.4)"/><circle r="3" cx="422.5454545454545" cy="266.66666666666663" stroke="none" fill="rgba(39, 181, 234, 0.4)"/><circle r="3" cx="135.81818181818178" cy="412.49999999999994" stroke="none" fill="rgba(39, 181, 234, 0.4)"/><circle r="3" cx="445.1818181818182" cy="287.5" stroke="none" fill="rgba(39, 181, 234, 0.4)"/><circle r="3" cx="347.09090909090907" cy="366.6666666666667" stroke="none" fill="rgba(39, 181, 234, 0.4)"/><circle r="3" cx="279.18181818181813" cy="433.3333333333333" stroke="none" fill="rgba(39, 181, 234, 0.4)"/><circle r="3" cx="90.54545454545456" cy="570.8333333333333" stroke="none" fill="rgba(39, 181, 234, 0.4)"/><circle r="3" cx="347.09090909090907" cy="441.66666666666674" stroke="none" fill="rgba(39, 181, 234, 0.4)"/><circle r="3" cx="98.09090909090908" cy="595.8333333333334" stroke="none" fill="rgba(39, 181, 234, 0.4)"/><circle r="3" cx="211.27272727272734" cy="466.6666666666667" stroke="none" fill="rgba(39, 181, 234, 0.4)"/><circle r="3" cx="173.5454545454546" cy="345.83333333333337" stroke="none" fill="rgba(39, 181, 234, 0.4)"/><circle r="3" cx="528.1818181818181" cy="175.0000000000001" stroke="none" fill="rgba(39, 181, 234, 0.4)"/><circle r="3" cx="233.9090909090909" cy="558.3333333333333" stroke="none" fill="rgba(39, 181, 234, 0.4)"/><circle r="3" cx="82.99999999999997" cy="400.00000000000006" stroke="none" fill="rgba(39, 181, 234, 0.4)"/><circle r="3" cx="588.5454545454545" cy="233.33333333333343" stroke="none" fill="rgba(39, 181, 234, 0.4)"/><circle r="3" cx="415" cy="141.66666666666657" stroke="none" fill="rgba(39, 181, 234, 0.4)"/><circle r="3" cx="354.63636363636357" cy="466.6666666666667" stroke="none" fill="rgba(39, 181, 234, 0.4)"/><circle r="3" cx="316.9090909090909" cy="579.1666666666666" stroke="none" fill="rgba(39, 181, 234, 0.4)"/><circle r="3" cx="37.72727272727273" cy="695.8333333333333" stroke="none" fill="rgba(39, 181, 234, 0.4)"/><circle r="3" cx="173.5454545454546" cy="545.8333333333334" stroke="none" fill="rgba(39, 181, 234, 0.4)"/><circle r="3" cx="135.81818181818178" cy="633.3333333333334" stroke="none" fill="rgba(39, 181, 234, 0.4)"/><circle r="3" cx="384.8181818181818" cy="291.66666666666663" stroke="none" fill="rgba(39, 181, 234, 0.4)"/><circle r="3" cx="392.3636363636363" cy="483.3333333333334" stroke="none" fill="rgba(39, 181, 234, 0.4)"/><circle r="3" cx="362.18181818181824" cy="320.83333333333326" stroke="none" fill="rgba(39, 181, 234, 0.4)"/><circle r="3" cx="611.1818181818181" cy="458.33333333333337" stroke="none" fill="rgba(39, 181, 234, 0.4)"/><circle r="3" cx="181.09090909090912" cy="674.9999999999999" stroke="none" fill="rgba(39, 181, 234, 0.4)"/><circle r="3" cx="249.00000000000003" cy="279.1666666666667" stroke="none" fill="rgba(39, 181, 234, 0.4)"/><circle r="3" cx="181.09090909090912" cy="349.99999999999994" stroke="none" fill="rgba(39, 181, 234, 0.4)"/><circle r="3" cx="294.27272727272725" cy="358.33333333333337" stroke="none" fill="rgba(39, 181, 234, 0.4)"/><circle r="3" cx="377.27272727272725" cy="258.3333333333333" stroke="none" fill="rgba(39, 181, 234, 0.4)"/><circle r="3" cx="271.63636363636357" cy="333.3333333333333" stroke="none" fill="rgba(39, 181, 234, 0.4)"/><circle r="3" cx="347.09090909090907" cy="199.9999999999999" stroke="none" fill="rgba(39, 181, 234, 0.4)"/><circle r="3" cx="422.5454545454545" cy="204.1666666666666" stroke="none" fill="rgba(39, 181, 234, 0.4)"/><circle r="3" cx="188.63636363636363" cy="600" stroke="none" fill="rgba(39, 181, 234, 0.4)"/><circle r="3" cx="286.7272727272728" cy="404.16666666666663" stroke="none" fill="rgba(39, 181, 234, 0.4)"/><circle r="3" cx="271.63636363636357" cy="379.16666666666674" stroke="none" fill="rgba(39, 181, 234, 0.4)"/><circle r="3" cx="332" cy="270.83333333333337" stroke="none" fill="rgba(39, 181, 234, 0.4)"/><circle r="3" cx="105.63636363636367" cy="520.8333333333334" stroke="none" fill="rgba(39, 181, 234, 0.4)"/><circle r="3" cx="271.63636363636357" cy="316.6666666666667" stroke="none" fill="rgba(39, 181, 234, 0.4)"/><circle r="3" cx="520.6363636363636" cy="120.83333333333324" stroke="none" fill="rgba(39, 181, 234, 0.4)"/><circle r="3" cx="128.27272727272728" cy="558.3333333333333" stroke="none" fill="rgba(39, 181, 234, 0.4)"/><circle r="3" cx="407.4545454545455" cy="358.33333333333337" stroke="none" fill="rgba(39, 181, 234, 0.4)"/><circle r="3" cx="218.81818181818184" cy="291.66666666666663" stroke="none" fill="rgba(39, 181, 234, 0.4)"/><circle r="3" cx="241.4545454545454" cy="349.99999999999994" stroke="none" fill="rgba(39, 181, 234, 0.4)"/><circle r="3" cx="241.4545454545454" cy="470.8333333333333" stroke="none" fill="rgba(39, 181, 234, 0.4)"/><circle r="3" cx="241.4545454545454" cy="487.49999999999994" stroke="none" fill="rgba(39, 181, 234, 0.4)"/><circle r="3" cx="354.63636363636357" cy="483.3333333333334" stroke="none" fill="rgba(39, 181, 234, 0.4)"/><circle r="3" cx="271.63636363636357" cy="491.66666666666674" stroke="none" fill="rgba(39, 181, 234, 0.4)"/><circle r="3" cx="347.09090909090907" cy="525" stroke="none" fill="rgba(39, 181, 234, 0.4)"/><circle r="3" cx="332" cy="316.6666666666667" stroke="none" fill="rgba(39, 181, 234, 0.4)"/><circle r="3" cx="377.27272727272725" cy="229.16666666666669" stroke="none" fill="rgba(39, 181, 234, 0.4)"/><circle r="3" cx="241.4545454545454" cy="479.16666666666663" stroke="none" fill="rgba(39, 181, 234, 0.4)"/><circle r="3" cx="309.3636363636363" cy="333.3333333333333" stroke="none" fill="rgba(39, 181, 234, 0.4)"/><circle r="3" cx="671.5454545454545" cy="420.8333333333333" stroke="none" fill="rgba(39, 181, 234, 0.4)"/><circle r="3" cx="249.00000000000003" cy="445.83333333333326" stroke="none" fill="rgba(39, 181, 234, 0.4)"/><circle r="3" cx="490.4545454545455" cy="262.50000000000006" stroke="none" fill="rgba(39, 181, 234, 0.4)"/><circle r="3" cx="233.9090909090909" cy="337.50000000000006" stroke="none" fill="rgba(39, 181, 234, 0.4)"/><circle r="3" cx="467.8181818181818" cy="179.16666666666654" stroke="none" fill="rgba(39, 181, 234, 0.4)"/><circle r="3" cx="369.72727272727275" cy="295.83333333333337" stroke="none" fill="rgba(39, 181, 234, 0.4)"/><circle r="3" cx="271.63636363636357" cy="358.33333333333337" stroke="none" fill="rgba(39, 181, 234, 0.4)"/><circle r="3" cx="82.99999999999997" cy="579.1666666666666" stroke="none" fill="rgba(39, 181, 234, 0.4)"/><circle r="3" cx="286.7272727272728" cy="450.00000000000006" stroke="none" fill="rgba(39, 181, 234, 0.4)"/><circle r="3" cx="135.81818181818178" cy="554.1666666666667" stroke="none" fill="rgba(39, 181, 234, 0.4)"/><circle r="3" cx="196.18181818181816" cy="450.00000000000006" stroke="none" fill="rgba(39, 181, 234, 0.4)"/><circle r="3" cx="165.99999999999994" cy="341.66666666666663" stroke="none" fill="rgba(39, 181, 234, 0.4)"/><circle r="3" cx="528.1818181818181" cy="120.83333333333324" stroke="none" fill="rgba(39, 181, 234, 0.4)"/><circle r="3" cx="196.18181818181816" cy="425" stroke="none" fill="rgba(39, 181, 234, 0.4)"/><circle r="3" cx="105.63636363636367" cy="345.83333333333337" stroke="none" fill="rgba(39, 181, 234, 0.4)"/><circle r="3" cx="520.6363636363636" cy="187.5" stroke="none" fill="rgba(39, 181, 234, 0.4)"/><circle r="3" cx="505.5454545454545" cy="87.50000000000003" stroke="none" fill="rgba(39, 181, 234, 0.4)"/><circle r="3" cx="301.8181818181818" cy="379.16666666666674" stroke="none" fill="rgba(39, 181, 234, 0.4)"/><circle r="3" cx="324.4545454545455" cy="554.1666666666667" stroke="none" fill="rgba(39, 181, 234, 0.4)"/><circle r="3" cx="98.09090909090908" cy="695.8333333333333" stroke="none" fill="rgba(39, 181, 234, 0.4)"/><circle r="3" cx="241.4545454545454" cy="487.49999999999994" stroke="none" fill="rgba(39, 181, 234, 0.4)"/><circle r="3" cx="181.09090909090912" cy="679.1666666666666" stroke="none" fill="rgba(39, 181, 234, 0.4)"/><circle r="3" cx="384.8181818181818" cy="304.1666666666667" stroke="none" fill="rgba(39, 181, 234, 0.4)"/><circle r="3" cx="392.3636363636363" cy="491.66666666666674" stroke="none" fill="rgba(39, 181, 234, 0.4)"/><circle r="3" cx="422.5454545454545" cy="312.5" stroke="none" fill="rgba(39, 181, 234, 0.4)"/><circle r="3" cx="362.18181818181824" cy="416.6666666666667" stroke="none" fill="rgba(39, 181, 234, 0.4)"/><circle r="3" cx="286.7272727272728" cy="662.5" stroke="none" fill="rgba(39, 181, 234, 0.4)"/><circle r="3" cx="264.09090909090907" cy="295.83333333333337" stroke="none" fill="rgba(39, 181, 234, 0.4)"/><circle r="3" cx="120.7272727272727" cy="379.16666666666674" stroke="none" fill="rgba(39, 181, 234, 0.4)"/><circle r="3" cx="309.3636363636363" cy="362.49999999999994" stroke="none" fill="rgba(39, 181, 234, 0.4)"/><circle r="3" cx="354.63636363636357" cy="220.8333333333332" stroke="none" fill="rgba(39, 181, 234, 0.4)"/><circle r="3" cx="324.4545454545455" cy="279.1666666666667" stroke="none" fill="rgba(39, 181, 234, 0.4)"/><circle r="3" cx="490.4545454545455" cy="266.66666666666663" stroke="none" fill="rgba(39, 181, 234, 0.4)"/><circle r="3" cx="399.90909090909093" cy="129.1666666666667" stroke="none" fill="rgba(39, 181, 234, 0.4)"/><circle r="3" cx="279.18181818181813" cy="612.5" stroke="none" fill="rgba(39, 181, 234, 0.4)"/><circle r="3" cx="309.3636363636363" cy="349.99999999999994" stroke="none" fill="rgba(39, 181, 234, 0.4)"/><circle r="3" cx="264.09090909090907" cy="408.33333333333337" stroke="none" fill="rgba(39, 181, 234, 0.4)"/><circle r="3" cx="332" cy="304.1666666666667" stroke="none" fill="rgba(39, 181, 234, 0.4)"/><circle r="3" cx="158.45454545454544" cy="433.3333333333333" stroke="none" fill="rgba(39, 181, 234, 0.4)"/><circle r="3" cx="384.8181818181818" cy="316.6666666666667" stroke="none" fill="rgba(39, 181, 234, 0.4)"/><circle r="3" cx="528.1818181818181" cy="104.16666666666663" stroke="none" fill="rgba(39, 181, 234, 0.4)"/><circle r="3" cx="211.27272727272734" cy="483.3333333333334" stroke="none" fill="rgba(39, 181, 234, 0.4)"/><circle r="3" cx="362.18181818181824" cy="345.83333333333337" stroke="none" fill="rgba(39, 181, 234, 0.4)"/><circle r="3" cx="196.18181818181816" cy="241.66666666666654" stroke="none" fill="rgba(39, 181, 234, 0.4)"/><circle r="3" cx="241.4545454545454" cy="325" stroke="none" fill="rgba(39, 181, 234, 0.4)"/><circle r="3" cx="233.9090909090909" cy="441.66666666666674" stroke="none" fill="rgba(39, 181, 234, 0.4)"/><circle r="3" cx="279.18181818181813" cy="462.5" stroke="none" fill="rgba(39, 181, 234, 0.4)"/><circle r="3" cx="415" cy="400.00000000000006" stroke="none" fill="rgba(39, 181, 234, 0.4)"/><circle r="3" cx="271.63636363636357" cy="429.16666666666663" stroke="none" fill="rgba(39, 181, 234, 0.4)"/><circle r="3" cx="301.8181818181818" cy="458.33333333333337" stroke="none" fill="rgba(39, 181, 234, 0.4)"/><circle r="3" cx="430.090909090909" cy="224.99999999999994" stroke="none" fill="rgba(39, 181, 234, 0.4)"/><circle r="3" cx="452.7272727272727" cy="208.33333333333334" stroke="none" fill="rgba(39, 181, 234, 0.4)"/><circle r="3" cx="226.36363636363635" cy="420.8333333333333" stroke="none" fill="rgba(39, 181, 234, 0.4)"/><circle r="3" cx="392.3636363636363" cy="325" stroke="none" fill="rgba(39, 181, 234, 0.4)"/><circle r="3" cx="731.9090909090909" cy="404.16666666666663" stroke="none" fill="rgba(39, 181, 234, 0.4)"/><circle r="3" cx="256.54545454545456" cy="458.33333333333337" stroke="none" fill="rgba(39, 181, 234, 0.4)"/><circle r="3" cx="452.7272727272727" cy="245.8333333333333" stroke="none" fill="rgba(39, 181, 234, 0.4)"/><circle r="3" cx="233.9090909090909" cy="341.66666666666663" stroke="none" fill="rgba(39, 181, 234, 0.4)"/><circle r="3" cx="528.1818181818181" cy="283.3333333333333" stroke="none" fill="rgba(39, 181, 234, 0.4)"/><circle r="3" cx="377.27272727272725" cy="254.16666666666677" stroke="none" fill="rgba(39, 181, 234, 0.4)"/><circle r="3" cx="301.8181818181818" cy="349.99999999999994" stroke="none" fill="rgba(39, 181, 234, 0.4)"/><circle r="3" cx="82.99999999999997" cy="512.5" stroke="none" fill="rgba(39, 181, 234, 0.4)"/><circle r="3" cx="279.18181818181813" cy="395.8333333333333" stroke="none" fill="rgba(39, 181, 234, 0.4)"/><circle r="3" cx="143.3636363636364" cy="550" stroke="none" fill="rgba(39, 181, 234, 0.4)"/><circle r="3" cx="218.81818181818184" cy="445.83333333333326" stroke="none" fill="rgba(39, 181, 234, 0.4)"/><circle r="3" cx="226.36363636363635" cy="283.3333333333333" stroke="none" fill="rgba(39, 181, 234, 0.4)"/><circle r="3" cx="611.1818181818181" cy="95.83333333333324" stroke="none" fill="rgba(39, 181, 234, 0.4)"/><circle r="3" cx="181.09090909090912" cy="354.1666666666667" stroke="none" fill="rgba(39, 181, 234, 0.4)"/><circle r="3" cx="120.7272727272727" cy="341.66666666666663" stroke="none" fill="rgba(39, 181, 234, 0.4)"/><circle r="3" cx="565.9090909090909" cy="99.99999999999997" stroke="none" fill="rgba(39, 181, 234, 0.4)"/><circle r="3" cx="498" cy="145.83333333333331" stroke="none" fill="rgba(39, 181, 234, 0.4)"/><circle r="3" cx="309.3636363636363" cy="400.00000000000006" stroke="none" fill="rgba(39, 181, 234, 0.4)"/><circle r="3" cx="301.8181818181818" cy="575" stroke="none" fill="rgba(39, 181, 234, 0.4)"/><circle r="3" cx="60.36363636363635" cy="741.6666666666667" stroke="none" fill="rgba(39, 181, 234, 0.4)"/><circle r="3" cx="249.00000000000003" cy="529.1666666666666" stroke="none" fill="rgba(39, 181, 234, 0.4)"/><circle r="3" cx="188.63636363636363" cy="662.5" stroke="none" fill="rgba(39, 181, 234, 0.4)"/><circle r="3" cx="415" cy="345.83333333333337" stroke="none" fill="rgba(39, 181, 234, 0.4)"/><circle r="3" cx="399.90909090909093" cy="466.6666666666667" stroke="none" fill="rgba(39, 181, 234, 0.4)"/><circle r="3" cx="399.90909090909093" cy="304.1666666666667" stroke="none" fill="rgba(39, 181, 234, 0.4)"/><circle r="3" cx="452.7272727272727" cy="266.66666666666663" stroke="none" fill="rgba(39, 181, 234, 0.4)"/><circle r="3" cx="188.63636363636363" cy="637.5000000000001" stroke="none" fill="rgba(39, 181, 234, 0.4)"/><circle r="3" cx="211.27272727272734" cy="245.8333333333333" stroke="none" fill="rgba(39, 181, 234, 0.4)"/><circle r="3" cx="158.45454545454544" cy="391.66666666666663" stroke="none" fill="rgba(39, 181, 234, 0.4)"/><circle r="3" cx="294.27272727272725" cy="299.99999999999994" stroke="none" fill="rgba(39, 181, 234, 0.4)"/><circle r="3" cx="407.4545454545455" cy="279.1666666666667" stroke="none" fill="rgba(39, 181, 234, 0.4)"/><circle r="3" cx="279.18181818181813" cy="158.3333333333332" stroke="none" fill="rgba(39, 181, 234, 0.4)"/><circle r="3" cx="558.3636363636364" cy="141.66666666666657" stroke="none" fill="rgba(39, 181, 234, 0.4)"/><circle r="3" cx="505.5454545454545" cy="74.9999999999999" stroke="none" fill="rgba(39, 181, 234, 0.4)"/><circle r="3" cx="218.81818181818184" cy="570.8333333333333" stroke="none" fill="rgba(39, 181, 234, 0.4)"/><circle r="3" cx="324.4545454545455" cy="379.16666666666674" stroke="none" fill="rgba(39, 181, 234, 0.4)"/><circle r="3" cx="294.27272727272725" cy="333.3333333333333" stroke="none" fill="rgba(39, 181, 234, 0.4)"/><circle r="3" cx="354.63636363636357" cy="283.3333333333333" stroke="none" fill="rgba(39, 181, 234, 0.4)"/><circle r="3" cx="120.7272727272727" cy="495.83333333333326" stroke="none" fill="rgba(39, 181, 234, 0.4)"/><circle r="3" cx="415" cy="233.33333333333343" stroke="none" fill="rgba(39, 181, 234, 0.4)"/><circle r="3" cx="656.4545454545455" cy="99.99999999999997" stroke="none" fill="rgba(39, 181, 234, 0.4)"/><circle r="3" cx="143.3636363636364" cy="600" stroke="none" fill="rgba(39, 181, 234, 0.4)"/><circle r="3" cx="354.63636363636357" cy="329.1666666666666" stroke="none" fill="rgba(39, 181, 234, 0.4)"/><circle r="3" cx="203.7272727272727" cy="291.66666666666663" stroke="none" fill="rgba(39, 181, 234, 0.4)"/><circle r="3" cx="211.27272727272734" cy="275" stroke="none" fill="rgba(39, 181, 234, 0.4)"/><circle r="3" cx="158.45454545454544" cy="487.49999999999994" stroke="none" fill="rgba(39, 181, 234, 0.4)"/><circle r="3" cx="226.36363636363635" cy="516.6666666666666" stroke="none" fill="rgba(39, 181, 234, 0.4)"/><circle r="3" cx="415" cy="383.3333333333333" stroke="none" fill="rgba(39, 181, 234, 0.4)"/><circle r="3" cx="279.18181818181813" cy="470.8333333333333" stroke="none" fill="rgba(39, 181, 234, 0.4)"/><circle r="3" cx="286.7272727272728" cy="541.6666666666666" stroke="none" fill="rgba(39, 181, 234, 0.4)"/><circle r="3" cx="377.27272727272725" cy="341.66666666666663" stroke="none" fill="rgba(39, 181, 234, 0.4)"/><circle r="3" cx="430.090909090909" cy="170.8333333333334" stroke="none" fill="rgba(39, 181, 234, 0.4)"/><circle r="3" cx="354.63636363636357" cy="329.1666666666666" stroke="none" fill="rgba(39, 181, 234, 0.4)"/><circle r="3" cx="332" cy="333.3333333333333" stroke="none" fill="rgba(39, 181, 234, 0.4)"/><circle r="3" cx="792.2727272727273" cy="354.1666666666667" stroke="none" fill="rgba(39, 181, 234, 0.4)"/><circle r="3" cx="226.36363636363635" cy="500.00000000000006" stroke="none" fill="rgba(39, 181, 234, 0.4)"/><circle r="3" cx="437.6363636363637" cy="262.50000000000006" stroke="none" fill="rgba(39, 181, 234, 0.4)"/><circle r="3" cx="249.00000000000003" cy="316.6666666666667" stroke="none" fill="rgba(39, 181, 234, 0.4)"/><circle r="3" cx="505.5454545454545" cy="175.0000000000001" stroke="none" fill="rgba(39, 181, 234, 0.4)"/><circle r="3" cx="407.4545454545455" cy="233.33333333333343" stroke="none" fill="rgba(39, 181, 234, 0.4)"/><circle r="3" cx="294.27272727272725" cy="341.66666666666663" stroke="none" fill="rgba(39, 181, 234, 0.4)"/><circle r="3" cx="75.45454545454545" cy="562.5" stroke="none" fill="rgba(39, 181, 234, 0.4)"/><circle r="3" cx="324.4545454545455" cy="366.6666666666667" stroke="none" fill="rgba(39, 181, 234, 0.4)"/><circle r="3" cx="165.99999999999994" cy="537.4999999999999" stroke="none" fill="rgba(39, 181, 234, 0.4)"/><circle r="3" cx="181.09090909090912" cy="483.3333333333334" stroke="none" fill="rgba(39, 181, 234, 0.4)"/><circle r="3" cx="181.09090909090912" cy="304.1666666666667" stroke="none" fill="rgba(39, 181, 234, 0.4)"/><circle r="3" cx="641.3636363636364" cy="99.99999999999997" stroke="none" fill="rgba(39, 181, 234, 0.4)"/><circle r="3" cx="181.09090909090912" cy="375" stroke="none" fill="rgba(39, 181, 234, 0.4)"/></g><g transform="translate(40,20)"><path fill="none" stroke="rgba(39, 181, 234, 0.8)" stroke-width="2" d="M37.72727272727273,591.7384641145459L52.818181818181834,580.1286057232427L60.36363636363635,574.3546853704892L75.45454545454545,562.8620356009812L82.99999999999997,557.1380729323615L90.54545454545456,551.4257040345342L98.09090909090908,545.7233334139921L105.63636363636367,540.0291895286363L120.7272727272727,528.6555931807958L128.27272727272728,522.9713299018848L135.81818181818178,517.2873347982344L143.3636363636364,511.603212215332L150.9090909090909,505.9181955754498L158.45454545454544,500.231275004126L165.99999999999994,494.54129214668893L173.5454545454546,488.8485508424442L181.09090909090912,483.154631187381L188.63636363636363,477.4620931318429L196.18181818181816,471.7745888313064L203.7272727272727,466.0959865505302L211.27272727272734,460.43323864593924L218.81818181818184,454.7972268051383L226.36363636363635,449.20376470834816L233.9090909090909,443.67208252151914L241.4545454545454,438.2223760960126L249.00000000000003,432.86675983813126L256.54545454545456,427.39992669829104L264.09090909090907,422.1005258189905L271.63636363636357,416.25887379279135L279.18181818181813,410.85133166803223L286.7272727272728,405.0835405389188L294.27272727272725,399.21843094180684L301.8181818181818,393.24450134833177L309.3636363636363,387.1395543091417L316.9090909090909,380.8833967642982L324.4545454545455,373.99244146032896L332,366.8936774563233L339.54545454545456,360.06869702860126L347.09090909090907,353.0576756176367L354.63636363636357,345.54570638198595L362.18181818181824,338.0750840695107L369.72727272727275,330.7488112946563L377.27272727272725,323.35888351447113L384.8181818181818,316.13295864754116L392.3636363636363,309.07181723272845L399.90909090909093,301.7303042585503L407.4545454545455,294.8538563635868L415,288.10675909984343L422.5454545454545,281.4833670595774L430.090909090909,274.9602652077369L437.6363636363637,268.510689777279L445.1818181818182,262.13688198202055L452.7272727272727,255.85107002759233L460.2727272727273,249.64691708714932L467.8181818181818,242.68260519176334L475.3636363636364,236.63986293316813L490.4545454545455,225.04602374416885L498,219.5030715465404L505.5454545454545,214.10314478285386L520.6363636363636,203.6254116485926L528.1818181818181,198.49933896394455L558.3636363636364,178.36214018131892L565.9090909090909,173.37423569281484L588.5454545454545,158.4655320522952L611.1818181818181,143.63925245806774L641.3636363636364,124.07886859430539L656.4545454545455,114.426651221302L671.5454545454545,104.88663234354334L731.9090909090909,68.19451062497353L784.7272727272726,38.439795635249574L792.2727272727273,34.38321707175557"/></g></svg>