<svg viewBox="0,0,900,800" color="rgba(5, 5, 38, 0.5)" width="600" xmlns="http://www.w3.org/2000/svg" xmlns:xlink="http://www.w3.org/1999/xlink"><g transform="translate(40,5)"><rect fill="#F7FBFB" x="0" y="0" width="845" height="765"/></g><g transform="translate(40,770)" fill="none" font-size="10" font-family="sans-serif" text-anchor="middle"><g class="tick" opacity="1" transform="translate(0.5,0)"><line stroke="currentColor" y2="6"/><text fill="currentColor" y="9" dy="0.71em" font-size="12">6</text></g><g class="tick" opacity="1" transform="translate(75.95454545454545,0)"><line stroke="currentColor" y2="6"/><text fill="currentColor" y="9" dy="0.71em" font-size="12">7</text></g><g class="tick" opacity="1" transform="translate(151.4090909090909,0)"><line stroke="currentColor" y2="6"/><text fill="currentColor" y="9" dy="0.71em" font-size="12">8</text></g><g class="tick" opacity="1" transform="translate(226.86363636363635,0)"><line stroke="currentColor" y2="6"/><text fill="currentColor" y="9" dy="0.71em" font-size="12">9</text></g><g class="tick" opacity="1" transform="translate(302.3181818181818,0)"><line stroke="currentColor" y2="6"/><text fill="currentColor" y="9" dy="0.71em" font-size="12">10</text></g><g class="tick" opacity="1" transform="translate(377.77272727272725,0)"><line stroke="currentColor" y2="6"/><text fill="currentColor" y="9" dy="0.71em" font-size="12">11</text></g><g class="tick" opacity="1" transform="translate(453.2272727272727,0)"><line stroke="currentColor" y2="6"/><text fill="currentColor" y="9" dy="0.71em" font-size="12">12</text></g><g class="tick" opacity="1" transform="translate(528.6818181818181,0)"><line stroke="currentColor" y2="6"/><text fill="currentColor" y="9" dy="0.71em" font-size="12">13</text></g><g class="tick" opacity="1" transform="translate(604.1363636363636,0)"><line stroke="currentColor" y2="6"/><text fill="currentColor" y="9" dy="0.71em" font-size="12">14</text></g><g class="tick" opacity="1" transform="translate(679.5909090909091,0)"><line stroke="currentColor" y2="6"/><text fill="currentColor" y="9" dy="0.71em" font-size="12">15</text></g><g class="tick" opacity="1" transform="translate(755.0454545454545,0)"><line stroke="currentColor" y2="6"/><text fill="currentColor" y="9" dy="0.71em" font-size="12">16</text></g><g class="tick" opacity="1" transform="translate(830.5,0)"><line stroke="currentColor" y2="6"/><text fill="currentColor" y="9" dy="0.71em" font-size="12">17</text></g><text fill="rgba(5, 5, 38, 0.5)" font-weight="bold" text-anchor="end" font-size="12" x="830" y="-12">Diabetes</text></g><g transform="translate(40,20)" fill="none" font-size="10" font-family="sans-serif" text-anchor="end"><g class="tick" opacity="1" transform="translate(0,750.5)"><line stroke="currentColor" x2="-6"/><text fill="currentColor" x="-9" dy="0.32em" font-size="12">3</text></g><g class="tick" opacity="1" transform="translate(0,682.3181818181818)"><line stroke="currentColor" x2="-6"/><text fill="currentColor" x="-9" dy="0.32em" font-size="12">4</text></g><g class="tick" opacity="1" transform="translate(0,614.1363636363636)"><line stroke="currentColor" x2="-6"/><text fill="currentColor" x="-9" dy="0.32em" font-size="12">5</text></g><g class="tick" opacity="1" transform="translate(0,545.9545454545455)"><line stroke="currentColor" x2="-6"/><text fill="currentColor" x="-9" dy="0.32em" font-size="12">6</text></g><g class="tick" opacity="1" transform="translate(0,477.77272727272725)"><line stroke="currentColor" x2="-6"/><text fill="currentColor" x="-9" dy="0.32em" font-size="12">7</text></g><g class="tick" opacity="1" transform="translate(0,409.59090909090907)"><line stroke="currentColor" x2="-6"/><text fill="currentColor" x="-9" dy="0.32em" font-size="12">8</text></g><g class="tick" opacity="1" transform="translate(0,341.40909090909093)"><line stroke="currentColor" x2="-6"/><text fill="currentColor" x="-9" dy="0.32em" font-size="12">9</text></g><g class="tick" opacity="1" transform="translate(0,273.22727272727275)"><line stroke="currentColor" x2="-6"/><text fill="currentColor" x="-9" dy="0.32em" font-size="12">10</text></g><g class="tick" opacity="1" transform="translate(0,205.04545454545453)"><line stroke="currentColor" x2="-6"/><text fill="currentColor" x="-9" dy="0.32em" font-size="12">11</text></g><g class="tick" opacity="1" transform="translate(0,136.86363636363632)"><line stroke="currentColor" x2="-6"/><text fill="currentColor" x="-9" dy="0.32em" font-size="12">12</text></g><g class="tick" opacity="1" transform="translate(0,68.6818181818182)"><line stroke="currentColor" x2="-6"/><text fill="currentColor" x="-9" dy="0.32em" font-size="12">13</text></g><g class="tick" opacity="1" transform="translate(0,0.5)"><line stroke="currentColor" x2="-6"/><text fill="currentColor" x="-9" dy="0.32em" font-size="12">14</text><text fill="rgba(5, 5, 38, 0.5)" x="8" dy="0.32em" font-size="12" text-anchor="start" font-weight="bold">Pulmonary disease</text></g></g><g transform="translate(40,20)"><circle r="3" cx="143.3636363636364" cy="600" stroke="none" fill="rgba(39, 181, 234, 0.4)"/><circle r="3" cx="437.6363636363637" cy="300" stroke="none" fill="rgba(39, 181, 234, 0.4)"/><circle r="3" cx="332" cy="409.09090909090907" stroke="none" fill="rgba(39, 181, 234, 0.4)"/><circle r="3" cx="264.09090909090907" cy="593.1818181818181" stroke="none" fill="rgba(39, 181, 234, 0.4)"/><circle r="3" cx="218.81818181818184" cy="640.909090909091" stroke="none" fill="rgba(39, 181, 234, 0.4)"/><circle r="3" cx="52.818181818181834" cy="640.909090909091" stroke="none" fill="rgba(39, 181, 234, 0.4)"/><circle r="3" cx="249.00000000000003" cy="538.6363636363637" stroke="none" fill="rgba(39, 181, 234, 0.4)"/><circle r="3" cx="233.9090909090909" cy="640.909090909091" stroke="none" fill="rgba(39, 181, 234, 0.4)"/><circle r="3" cx="279.18181818181813" cy="600" stroke="none" fill="rgba(39, 181, 234, 0.4)"/><circle r="3" cx="332" cy="415.9090909090908" stroke="none" fill="rgba(39, 181, 234, 0.4)"/><circle r="3" cx="316.9090909090909" cy="477.27272727272725" stroke="none" fill="rgba(39, 181, 234, 0.4)"/><circle r="3" cx="294.27272727272725" cy="702.2727272727273" stroke="none" fill="rgba(39, 181, 234, 0.4)"/><circle r="3" cx="181.09090909090912" cy="654.5454545454545" stroke="none" fill="rgba(39, 181, 234, 0.4)"/><circle r="3" cx="165.99999999999994" cy="606.8181818181818" stroke="none" fill="rgba(39, 181, 234, 0.4)"/><circle r="3" cx="256.54545454545456" cy="600" stroke="none" fill="rgba(39, 181, 234, 0.4)"/><circle r="3" cx="279.18181818181813" cy="538.6363636363637" stroke="none" fill="rgba(39, 181, 234, 0.4)"/><circle r="3" cx="316.9090909090909" cy="388.63636363636357" stroke="none" fill="rgba(39, 181, 234, 0.4)"/><circle r="3" cx="264.09090909090907" cy="504.5454545454546" stroke="none" fill="rgba(39, 181, 234, 0.4)"/><circle r="3" cx="362.18181818181824" cy="286.3636363636363" stroke="none" fill="rgba(39, 181, 234, 0.4)"/><circle r="3" cx="437.6363636363637" cy="484.0909090909091" stroke="none" fill="rgba(39, 181, 234, 0.4)"/><circle r="3" cx="150.9090909090909" cy="559.0909090909091" stroke="none" fill="rgba(39, 181, 234, 0.4)"/><circle r="3" cx="264.09090909090907" cy="552.2727272727273" stroke="none" fill="rgba(39, 181, 234, 0.4)"/><circle r="3" cx="271.63636363636357" cy="422.7272727272728" stroke="none" fill="rgba(39, 181, 234, 0.4)"/><circle r="3" cx="301.8181818181818" cy="409.09090909090907" stroke="none" fill="rgba(39, 181, 234, 0.4)"/><circle r="3" cx="98.09090909090908" cy="675" stroke="none" fill="rgba(39, 181, 234, 0.4)"/><circle r="3" cx="316.9090909090909" cy="402.2727272727273" stroke="none" fill="rgba(39, 181, 234, 0.4)"/><circle r="3" cx="475.3636363636364" cy="388.63636363636357" stroke="none" fill="rgba(39, 181, 234, 0.4)"/><circle r="3" cx="150.9090909090909" cy="545.4545454545455" stroke="none" fill="rgba(39, 181, 234, 0.4)"/><circle r="3" cx="369.72727272727275" cy="484.0909090909091" stroke="none" fill="rgba(39, 181, 234, 0.4)"/><circle r="3" cx="165.99999999999994" cy="634.0909090909091" stroke="none" fill="rgba(39, 181, 234, 0.4)"/><circle r="3" cx="181.09090909090912" cy="613.6363636363636" stroke="none" fill="rgba(39, 181, 234, 0.4)"/><circle r="3" cx="203.7272727272727" cy="518.1818181818182" stroke="none" fill="rgba(39, 181, 234, 0.4)"/><circle r="3" cx="211.27272727272734" cy="606.8181818181818" stroke="none" fill="rgba(39, 181, 234, 0.4)"/><circle r="3" cx="294.27272727272725" cy="531.8181818181818" stroke="none" fill="rgba(39, 181, 234, 0.4)"/><circle r="3" cx="324.4545454545455" cy="456.81818181818187" stroke="none" fill="rgba(39, 181, 234, 0.4)"/><circle r="3" cx="332" cy="552.2727272727273" stroke="none" fill="rgba(39, 181, 234, 0.4)"/><circle r="3" cx="301.8181818181818" cy="429.54545454545456" stroke="none" fill="rgba(39, 181, 234, 0.4)"/><circle r="3" cx="384.8181818181818" cy="368.18181818181824" stroke="none" fill="rgba(39, 181, 234, 0.4)"/><circle r="3" cx="249.00000000000003" cy="552.2727272727273" stroke="none" fill="rgba(39, 181, 234, 0.4)"/><circle r="3" cx="264.09090909090907" cy="497.7272727272727" stroke="none" fill="rgba(39, 181, 234, 0.4)"/><circle r="3" cx="565.9090909090909" cy="743.1818181818181" stroke="none" fill="rgba(39, 181, 234, 0.4)"/><circle r="3" cx="181.09090909090912" cy="525" stroke="none" fill="rgba(39, 181, 234, 0.4)"/><circle r="3" cx="460.2727272727273" cy="436.3636363636363" stroke="none" fill="rgba(39, 181, 234, 0.4)"/><circle r="3" cx="264.09090909090907" cy="579.5454545454545" stroke="none" fill="rgba(39, 181, 234, 0.4)"/><circle r="3" cx="392.3636363636363" cy="327.2727272727273" stroke="none" fill="rgba(39, 181, 234, 0.4)"/><circle r="3" cx="316.9090909090909" cy="579.5454545454545" stroke="none" fill="rgba(39, 181, 234, 0.4)"/><circle r="3" cx="264.09090909090907" cy="538.6363636363637" stroke="none" fill="rgba(39, 181, 234, 0.4)"/><circle r="3" cx="52.818181818181834" cy="681.8181818181818" stroke="none" fill="rgba(39, 181, 234, 0.4)"/><circle r="3" cx="332" cy="531.8181818181818" stroke="none" fill="rgba(39, 181, 234, 0.4)"/><circle r="3" cx="128.27272727272728" cy="613.6363636363636" stroke="none" fill="rgba(39, 181, 234, 0.4)"/><circle r="3" cx="218.81818181818184" cy="675" stroke="none" fill="rgba(39, 181, 234, 0.4)"/><circle r="3" cx="181.09090909090912" cy="586.3636363636363" stroke="none" fill="rgba(39, 181, 234, 0.4)"/><circle r="3" cx="452.7272727272727" cy="354.5454545454545" stroke="none" fill="rgba(39, 181, 234, 0.4)"/><circle r="3" cx="165.99999999999994" cy="538.6363636363637" stroke="none" fill="rgba(39, 181, 234, 0.4)"/><circle r="3" cx="75.45454545454545" cy="606.8181818181818" stroke="none" fill="rgba(39, 181, 234, 0.4)"/><circle r="3" cx="392.3636363636363" cy="279.5454545454545" stroke="none" fill="rgba(39, 181, 234, 0.4)"/><circle r="3" cx="399.90909090909093" cy="354.5454545454545" stroke="none" fill="rgba(39, 181, 234, 0.4)"/><circle r="3" cx="347.09090909090907" cy="545.4545454545455" stroke="none" fill="rgba(39, 181, 234, 0.4)"/><circle r="3" cx="286.7272727272728" cy="640.909090909091" stroke="none" fill="rgba(39, 181, 234, 0.4)"/><circle r="3" cx="105.63636363636367" cy="627.2727272727274" stroke="none" fill="rgba(39, 181, 234, 0.4)"/><circle r="3" cx="233.9090909090909" cy="586.3636363636363" stroke="none" fill="rgba(39, 181, 234, 0.4)"/><circle r="3" cx="165.99999999999994" cy="647.7272727272727" stroke="none" fill="rgba(39, 181, 234, 0.4)"/><circle r="3" cx="271.63636363636357" cy="470.4545454545455" stroke="none" fill="rgba(39, 181, 234, 0.4)"/><circle r="3" cx="407.4545454545455" cy="436.3636363636363" stroke="none" fill="rgba(39, 181, 234, 0.4)"/><circle r="3" cx="294.27272727272725" cy="470.4545454545455" stroke="none" fill="rgba(39, 181, 234, 0.4)"/><circle r="3" cx="271.63636363636357" cy="620.4545454545455" stroke="none" fill="rgba(39, 181, 234, 0.4)"/><circle r="3" cx="135.81818181818178" cy="709.0909090909091" stroke="none" fill="rgba(39, 181, 234, 0.4)"/><circle r="3" cx="211.27272727272734" cy="531.8181818181818" stroke="none" fill="rgba(39, 181, 234, 0.4)"/><circle r="3" cx="188.63636363636363" cy="593.1818181818181" stroke="none" fill="rgba(39, 181, 234, 0.4)"/><circle r="3" cx="256.54545454545456" cy="545.4545454545455" stroke="none" fill="rgba(39, 181, 234, 0.4)"/><circle r="3" cx="369.72727272727275" cy="436.3636363636363" stroke="none" fill="rgba(39, 181, 234, 0.4)"/><circle r="3" cx="256.54545454545456" cy="545.4545454545455" stroke="none" fill="rgba(39, 181, 234, 0.4)"/><circle r="3" cx="354.63636363636357" cy="190.90909090909096" stroke="none" fill="rgba(39, 181, 234, 0.4)"/><circle r="3" cx="475.3636363636364" cy="443.18181818181813" stroke="none" fill="rgba(39, 181, 234, 0.4)"/><circle r="3" cx="173.5454545454546" cy="586.3636363636363" stroke="none" fill="rgba(39, 181, 234, 0.4)"/><circle r="3" cx="316.9090909090909" cy="579.5454545454545" stroke="none" fill="rgba(39, 181, 234, 0.4)"/><circle r="3" cx="279.18181818181813" cy="422.7272727272728" stroke="none" fill="rgba(39, 181, 234, 0.4)"/><circle r="3" cx="339.54545454545456" cy="450" stroke="none" fill="rgba(39, 181, 234, 0.4)"/><circle r="3" cx="98.09090909090908" cy="661.3636363636364" stroke="none" fill="rgba(39, 181, 234, 0.4)"/><circle r="3" cx="354.63636363636357" cy="402.2727272727273" stroke="none" fill="rgba(39, 181, 234, 0.4)"/><circle r="3" cx="490.4545454545455" cy="497.7272727272727" stroke="none" fill="rgba(39, 181, 234, 0.4)"/><circle r="3" cx="90.54545454545456" cy="538.6363636363637" stroke="none" fill="rgba(39, 181, 234, 0.4)"/><circle r="3" cx="332" cy="490.9090909090909" stroke="none" fill="rgba(39, 181, 234, 0.4)"/><circle r="3" cx="196.18181818181816" cy="668.1818181818181" stroke="none" fill="rgba(39, 181, 234, 0.4)"/><circle r="3" cx="158.45454545454544" cy="593.1818181818181" stroke="none" fill="rgba(39, 181, 234, 0.4)"/><circle r="3" cx="233.9090909090909" cy="552.2727272727273" stroke="none" fill="rgba(39, 181, 234, 0.4)"/><circle r="3" cx="249.00000000000003" cy="572.7272727272727" stroke="none" fill="rgba(39, 181, 234, 0.4)"/><circle r="3" cx="324.4545454545455" cy="497.7272727272727" stroke="none" fill="rgba(39, 181, 234, 0.4)"/><circle r="3" cx="188.63636363636363" cy="443.18181818181813" stroke="none" fill="rgba(39, 181, 234, 0.4)"/><circle r="3" cx="279.18181818181813" cy="531.8181818181818" stroke="none" fill="rgba(39, 181, 234, 0.4)"/><circle r="3" cx="430.090909090909" cy="368.18181818181824" stroke="none" fill="rgba(39, 181, 234, 0.4)"/><circle r="3" cx="415" cy="443.18181818181813" stroke="none" fill="rgba(39, 181, 234, 0.4)"/><circle r="3" cx="294.27272727272725" cy="531.8181818181818" stroke="none" fill="rgba(39, 181, 234, 0.4)"/><circle r="3" cx="316.9090909090909" cy="497.7272727272727" stroke="none" fill="rgba(39, 181, 234, 0.4)"/><circle r="3" cx="784.7272727272726" cy="709.0909090909091" stroke="none" fill="rgba(39, 181, 234, 0.4)"/><circle r="3" cx="286.7272727272728" cy="511.36363636363643" stroke="none" fill="rgba(39, 181, 234, 0.4)"/><circle r="3" cx="422.5454545454545" cy="443.18181818181813" stroke="none" fill="rgba(39, 181, 234, 0.4)"/><circle r="3" cx="135.81818181818178" cy="620.4545454545455" stroke="none" fill="rgba(39, 181, 234, 0.4)"/><circle r="3" cx="445.1818181818182" cy="313.63636363636357" stroke="none" fill="rgba(39, 181, 234, 0.4)"/><circle r="3" cx="347.09090909090907" cy="600" stroke="none" fill="rgba(39, 181, 234, 0.4)"/><circle r="3" cx="279.18181818181813" cy="531.8181818181818" stroke="none" fill="rgba(39, 181, 234, 0.4)"/><circle r="3" cx="90.54545454545456" cy="695.4545454545454" stroke="none" fill="rgba(39, 181, 234, 0.4)"/><circle r="3" cx="347.09090909090907" cy="538.6363636363637" stroke="none" fill="rgba(39, 181, 234, 0.4)"/><circle r="3" cx="98.09090909090908" cy="545.4545454545455" stroke="none" fill="rgba(39, 181, 234, 0.4)"/><circle r="3" cx="211.27272727272734" cy="565.9090909090909" stroke="none" fill="rgba(39, 181, 234, 0.4)"/><circle r="3" cx="173.5454545454546" cy="606.8181818181818" stroke="none" fill="rgba(39, 181, 234, 0.4)"/><circle r="3" cx="528.1818181818181" cy="238.63636363636368" stroke="none" fill="rgba(39, 181, 234, 0.4)"/><circle r="3" cx="233.9090909090909" cy="477.27272727272725" stroke="none" fill="rgba(39, 181, 234, 0.4)"/><circle r="3" cx="82.99999999999997" cy="579.5454545454545" stroke="none" fill="rgba(39, 181, 234, 0.4)"/><circle r="3" cx="588.5454545454545" cy="252.27272727272722" stroke="none" fill="rgba(39, 181, 234, 0.4)"/><circle r="3" cx="415" cy="340.90909090909093" stroke="none" fill="rgba(39, 181, 234, 0.4)"/><circle r="3" cx="354.63636363636357" cy="470.4545454545455" stroke="none" fill="rgba(39, 181, 234, 0.4)"/><circle r="3" cx="316.9090909090909" cy="640.909090909091" stroke="none" fill="rgba(39, 181, 234, 0.4)"/><circle r="3" cx="37.72727272727273" cy="640.909090909091" stroke="none" fill="rgba(39, 181, 234, 0.4)"/><circle r="3" cx="173.5454545454546" cy="552.2727272727273" stroke="none" fill="rgba(39, 181, 234, 0.4)"/><circle r="3" cx="135.81818181818178" cy="559.0909090909091" stroke="none" fill="rgba(39, 181, 234, 0.4)"/><circle r="3" cx="384.8181818181818" cy="545.4545454545455" stroke="none" fill="rgba(39, 181, 234, 0.4)"/><circle r="3" cx="392.3636363636363" cy="450" stroke="none" fill="rgba(39, 181, 234, 0.4)"/><circle r="3" cx="362.18181818181824" cy="511.36363636363643" stroke="none" fill="rgba(39, 181, 234, 0.4)"/><circle r="3" cx="611.1818181818181" cy="572.7272727272727" stroke="none" fill="rgba(39, 181, 234, 0.4)"/><circle r="3" cx="181.09090909090912" cy="634.0909090909091" stroke="none" fill="rgba(39, 181, 234, 0.4)"/><circle r="3" cx="249.00000000000003" cy="525" stroke="none" fill="rgba(39, 181, 234, 0.4)"/><circle r="3" cx="181.09090909090912" cy="654.5454545454545" stroke="none" fill="rgba(39, 181, 234, 0.4)"/><circle r="3" cx="294.27272727272725" cy="613.6363636363636" stroke="none" fill="rgba(39, 181, 234, 0.4)"/><circle r="3" cx="377.27272727272725" cy="409.09090909090907" stroke="none" fill="rgba(39, 181, 234, 0.4)"/><circle r="3" cx="271.63636363636357" cy="531.8181818181818" stroke="none" fill="rgba(39, 181, 234, 0.4)"/><circle r="3" cx="347.09090909090907" cy="211.36363636363632" stroke="none" fill="rgba(39, 181, 234, 0.4)"/><circle r="3" cx="422.5454545454545" cy="443.18181818181813" stroke="none" fill="rgba(39, 181, 234, 0.4)"/><circle r="3" cx="188.63636363636363" cy="565.9090909090909" stroke="none" fill="rgba(39, 181, 234, 0.4)"/><circle r="3" cx="286.7272727272728" cy="586.3636363636363" stroke="none" fill="rgba(39, 181, 234, 0.4)"/><circle r="3" cx="271.63636363636357" cy="470.4545454545455" stroke="none" fill="rgba(39, 181, 234, 0.4)"/><circle r="3" cx="332" cy="354.5454545454545" stroke="none" fill="rgba(39, 181, 234, 0.4)"/><circle r="3" cx="105.63636363636367" cy="661.3636363636364" stroke="none" fill="rgba(39, 181, 234, 0.4)"/><circle r="3" cx="271.63636363636357" cy="436.3636363636363" stroke="none" fill="rgba(39, 181, 234, 0.4)"/><circle r="3" cx="520.6363636363636" cy="361.36363636363643" stroke="none" fill="rgba(39, 181, 234, 0.4)"/><circle r="3" cx="128.27272727272728" cy="511.36363636363643" stroke="none" fill="rgba(39, 181, 234, 0.4)"/><circle r="3" cx="407.4545454545455" cy="450" stroke="none" fill="rgba(39, 181, 234, 0.4)"/><circle r="3" cx="218.81818181818184" cy="627.2727272727274" stroke="none" fill="rgba(39, 181, 234, 0.4)"/><circle r="3" cx="241.4545454545454" cy="593.1818181818181" stroke="none" fill="rgba(39, 181, 234, 0.4)"/><circle r="3" cx="241.4545454545454" cy="470.4545454545455" stroke="none" fill="rgba(39, 181, 234, 0.4)"/><circle r="3" cx="241.4545454545454" cy="552.2727272727273" stroke="none" fill="rgba(39, 181, 234, 0.4)"/><circle r="3" cx="354.63636363636357" cy="552.2727272727273" stroke="none" fill="rgba(39, 181, 234, 0.4)"/><circle r="3" cx="271.63636363636357" cy="497.7272727272727" stroke="none" fill="rgba(39, 181, 234, 0.4)"/><circle r="3" cx="347.09090909090907" cy="565.9090909090909" stroke="none" fill="rgba(39, 181, 234, 0.4)"/><circle r="3" cx="332" cy="388.63636363636357" stroke="none" fill="rgba(39, 181, 234, 0.4)"/><circle r="3" cx="377.27272727272725" cy="422.7272727272728" stroke="none" fill="rgba(39, 181, 234, 0.4)"/><circle r="3" cx="241.4545454545454" cy="511.36363636363643" stroke="none" fill="rgba(39, 181, 234, 0.4)"/><circle r="3" cx="309.3636363636363" cy="470.4545454545455" stroke="none" fill="rgba(39, 181, 234, 0.4)"/><circle r="3" cx="671.5454545454545" cy="695.4545454545454" stroke="none" fill="rgba(39, 181, 234, 0.4)"/><circle r="3" cx="249.00000000000003" cy="450" stroke="none" fill="rgba(39, 181, 234, 0.4)"/><circle r="3" cx="490.4545454545455" cy="402.2727272727273" stroke="none" fill="rgba(39, 181, 234, 0.4)"/><circle r="3" cx="233.9090909090909" cy="647.7272727272727" stroke="none" fill="rgba(39, 181, 234, 0.4)"/><circle r="3" cx="467.8181818181818" cy="306.8181818181818" stroke="none" fill="rgba(39, 181, 234, 0.4)"/><circle r="3" cx="369.72727272727275" cy="586.3636363636363" stroke="none" fill="rgba(39, 181, 234, 0.4)"/><circle r="3" cx="271.63636363636357" cy="511.36363636363643" stroke="none" fill="rgba(39, 181, 234, 0.4)"/><circle r="3" cx="82.99999999999997" cy="681.8181818181818" stroke="none" fill="rgba(39, 181, 234, 0.4)"/><circle r="3" cx="286.7272727272728" cy="504.5454545454546" stroke="none" fill="rgba(39, 181, 234, 0.4)"/><circle r="3" cx="135.81818181818178" cy="565.9090909090909" stroke="none" fill="rgba(39, 181, 234, 0.4)"/><circle r="3" cx="196.18181818181816" cy="572.7272727272727" stroke="none" fill="rgba(39, 181, 234, 0.4)"/><circle r="3" cx="165.99999999999994" cy="565.9090909090909" stroke="none" fill="rgba(39, 181, 234, 0.4)"/><circle r="3" cx="528.1818181818181" cy="231.8181818181818" stroke="none" fill="rgba(39, 181, 234, 0.4)"/><circle r="3" cx="196.18181818181816" cy="470.4545454545455" stroke="none" fill="rgba(39, 181, 234, 0.4)"/><circle r="3" cx="105.63636363636367" cy="654.5454545454545" stroke="none" fill="rgba(39, 181, 234, 0.4)"/><circle r="3" cx="520.6363636363636" cy="259.0909090909092" stroke="none" fill="rgba(39, 181, 234, 0.4)"/><circle r="3" cx="505.5454545454545" cy="340.90909090909093" stroke="none" fill="rgba(39, 181, 234, 0.4)"/><circle r="3" cx="301.8181818181818" cy="484.0909090909091" stroke="none" fill="rgba(39, 181, 234, 0.4)"/><circle r="3" cx="324.4545454545455" cy="620.4545454545455" stroke="none" fill="rgba(39, 181, 234, 0.4)"/><circle r="3" cx="98.09090909090908" cy="681.8181818181818" stroke="none" fill="rgba(39, 181, 234, 0.4)"/><circle r="3" cx="241.4545454545454" cy="606.8181818181818" stroke="none" fill="rgba(39, 181, 234, 0.4)"/><circle r="3" cx="181.09090909090912" cy="572.7272727272727" stroke="none" fill="rgba(39, 181, 234, 0.4)"/><circle r="3" cx="384.8181818181818" cy="511.36363636363643" stroke="none" fill="rgba(39, 181, 234, 0.4)"/><circle r="3" cx="392.3636363636363" cy="436.3636363636363" stroke="none" fill="rgba(39, 181, 234, 0.4)"/><circle r="3" cx="422.5454545454545" cy="450" stroke="none" fill="rgba(39, 181, 234, 0.4)"/><circle r="3" cx="362.18181818181824" cy="736.3636363636364" stroke="none" fill="rgba(39, 181, 234, 0.4)"/><circle r="3" cx="286.7272727272728" cy="695.4545454545454" stroke="none" fill="rgba(39, 181, 234, 0.4)"/><circle r="3" cx="264.09090909090907" cy="565.9090909090909" stroke="none" fill="rgba(39, 181, 234, 0.4)"/><circle r="3" cx="120.7272727272727" cy="620.4545454545455" stroke="none" fill="rgba(39, 181, 234, 0.4)"/><circle r="3" cx="309.3636363636363" cy="559.0909090909091" stroke="none" fill="rgba(39, 181, 234, 0.4)"/><circle r="3" cx="354.63636363636357" cy="361.36363636363643" stroke="none" fill="rgba(39, 181, 234, 0.4)"/><circle r="3" cx="324.4545454545455" cy="504.5454545454546" stroke="none" fill="rgba(39, 181, 234, 0.4)"/><circle r="3" cx="490.4545454545455" cy="115.90909090909082" stroke="none" fill="rgba(39, 181, 234, 0.4)"/><circle r="3" cx="399.90909090909093" cy="436.3636363636363" stroke="none" fill="rgba(39, 181, 234, 0.4)"/><circle r="3" cx="279.18181818181813" cy="511.36363636363643" stroke="none" fill="rgba(39, 181, 234, 0.4)"/><circle r="3" cx="309.3636363636363" cy="565.9090909090909" stroke="none" fill="rgba(39, 181, 234, 0.4)"/><circle r="3" cx="264.09090909090907" cy="422.7272727272728" stroke="none" fill="rgba(39, 181, 234, 0.4)"/><circle r="3" cx="332" cy="354.5454545454545" stroke="none" fill="rgba(39, 181, 234, 0.4)"/><circle r="3" cx="158.45454545454544" cy="654.5454545454545" stroke="none" fill="rgba(39, 181, 234, 0.4)"/><circle r="3" cx="384.8181818181818" cy="395.4545454545455" stroke="none" fill="rgba(39, 181, 234, 0.4)"/><circle r="3" cx="528.1818181818181" cy="450" stroke="none" fill="rgba(39, 181, 234, 0.4)"/><circle r="3" cx="211.27272727272734" cy="490.9090909090909" stroke="none" fill="rgba(39, 181, 234, 0.4)"/><circle r="3" cx="362.18181818181824" cy="422.7272727272728" stroke="none" fill="rgba(39, 181, 234, 0.4)"/><circle r="3" cx="196.18181818181816" cy="634.0909090909091" stroke="none" fill="rgba(39, 181, 234, 0.4)"/><circle r="3" cx="241.4545454545454" cy="559.0909090909091" stroke="none" fill="rgba(39, 181, 234, 0.4)"/><circle r="3" cx="233.9090909090909" cy="511.36363636363643" stroke="none" fill="rgba(39, 181, 234, 0.4)"/><circle r="3" cx="279.18181818181813" cy="572.7272727272727" stroke="none" fill="rgba(39, 181, 234, 0.4)"/><circle r="3" cx="415" cy="565.9090909090909" stroke="none" fill="rgba(39, 181, 234, 0.4)"/><circle r="3" cx="271.63636363636357" cy="484.0909090909091" stroke="none" fill="rgba(39, 181, 234, 0.4)"/><circle r="3" cx="301.8181818181818" cy="559.0909090909091" stroke="none" fill="rgba(39, 181, 234, 0.4)"/><circle r="3" cx="430.090909090909" cy="395.4545454545455" stroke="none" fill="rgba(39, 181, 234, 0.4)"/><circle r="3" cx="452.7272727272727" cy="409.09090909090907" stroke="none" fill="rgba(39, 181, 234, 0.4)"/><circle r="3" cx="226.36363636363635" cy="565.9090909090909" stroke="none" fill="rgba(39, 181, 234, 0.4)"/><circle r="3" cx="392.3636363636363" cy="490.9090909090909" stroke="none" fill="rgba(39, 181, 234, 0.4)"/><circle r="3" cx="731.9090909090909" cy="695.4545454545454" stroke="none" fill="rgba(39, 181, 234, 0.4)"/><circle r="3" cx="256.54545454545456" cy="565.9090909090909" stroke="none" fill="rgba(39, 181, 234, 0.4)"/><circle r="3" cx="452.7272727272727" cy="436.3636363636363" stroke="none" fill="rgba(39, 181, 234, 0.4)"/><circle r="3" cx="233.9090909090909" cy="572.7272727272727" stroke="none" fill="rgba(39, 181, 234, 0.4)"/><circle r="3" cx="528.1818181818181" cy="225.00000000000003" stroke="none" fill="rgba(39, 181, 234, 0.4)"/><circle r="3" cx="377.27272727272725" cy="593.1818181818181" stroke="none" fill="rgba(39, 181, 234, 0.4)"/><circle r="3" cx="301.8181818181818" cy="511.36363636363643" stroke="none" fill="rgba(39, 181, 234, 0.4)"/><circle r="3" cx="82.99999999999997" cy="709.0909090909091" stroke="none" fill="rgba(39, 181, 234, 0.4)"/><circle r="3" cx="279.18181818181813" cy="518.1818181818182" stroke="none" fill="rgba(39, 181, 234, 0.4)"/><circle r="3" cx="143.3636363636364" cy="525" stroke="none" fill="rgba(39, 181, 234, 0.4)"/><circle r="3" cx="218.81818181818184" cy="545.4545454545455" stroke="none" fill="rgba(39, 181, 234, 0.4)"/><circle r="3" cx="226.36363636363635" cy="600" stroke="none" fill="rgba(39, 181, 234, 0.4)"/><circle r="3" cx="611.1818181818181" cy="34.09090909090906" stroke="none" fill="rgba(39, 181, 234, 0.4)"/><circle r="3" cx="181.09090909090912" cy="497.7272727272727" stroke="none" fill="rgba(39, 181, 234, 0.4)"/><circle r="3" cx="120.7272727272727" cy="681.8181818181818" stroke="none" fill="rgba(39, 181, 234, 0.4)"/><circle r="3" cx="565.9090909090909" cy="238.63636363636368" stroke="none" fill="rgba(39, 181, 234, 0.4)"/><circle r="3" cx="498" cy="286.3636363636363" stroke="none" fill="rgba(39, 181, 234, 0.4)"/><circle r="3" cx="309.3636363636363" cy="518.1818181818182" stroke="none" fill="rgba(39, 181, 234, 0.4)"/><circle r="3" cx="301.8181818181818" cy="681.8181818181818" stroke="none" fill="rgba(39, 181, 234, 0.4)"/><circle r="3" cx="60.36363636363635" cy="661.3636363636364" stroke="none" fill="rgba(39, 181, 234, 0.4)"/><circle r="3" cx="249.00000000000003" cy="606.8181818181818" stroke="none" fill="rgba(39, 181, 234, 0.4)"/><circle r="3" cx="188.63636363636363" cy="593.1818181818181" stroke="none" fill="rgba(39, 181, 234, 0.4)"/><circle r="3" cx="415" cy="470.4545454545455" stroke="none" fill="rgba(39, 181, 234, 0.4)"/><circle r="3" cx="399.90909090909093" cy="477.27272727272725" stroke="none" fill="rgba(39, 181, 234, 0.4)"/><circle r="3" cx="399.90909090909093" cy="484.0909090909091" stroke="none" fill="rgba(39, 181, 234, 0.4)"/><circle r="3" cx="452.7272727272727" cy="715.909090909091" stroke="none" fill="rgba(39, 181, 234, 0.4)"/><circle r="3" cx="188.63636363636363" cy="661.3636363636364" stroke="none" fill="rgba(39, 181, 234, 0.4)"/><circle r="3" cx="211.27272727272734" cy="565.9090909090909" stroke="none" fill="rgba(39, 181, 234, 0.4)"/><circle r="3" cx="158.45454545454544" cy="620.4545454545455" stroke="none" fill="rgba(39, 181, 234, 0.4)"/><circle r="3" cx="294.27272727272725" cy="559.0909090909091" stroke="none" fill="rgba(39, 181, 234, 0.4)"/><circle r="3" cx="407.4545454545455" cy="409.09090909090907" stroke="none" fill="rgba(39, 181, 234, 0.4)"/><circle r="3" cx="279.18181818181813" cy="531.8181818181818" stroke="none" fill="rgba(39, 181, 234, 0.4)"/><circle r="3" cx="558.3636363636364" cy="129.54545454545456" stroke="none" fill="rgba(39, 181, 234, 0.4)"/><circle r="3" cx="505.5454545454545" cy="436.3636363636363" stroke="none" fill="rgba(39, 181, 234, 0.4)"/><circle r="3" cx="218.81818181818184" cy="565.9090909090909" stroke="none" fill="rgba(39, 181, 234, 0.4)"/><circle r="3" cx="324.4545454545455" cy="538.6363636363637" stroke="none" fill="rgba(39, 181, 234, 0.4)"/><circle r="3" cx="294.27272727272725" cy="402.2727272727273" stroke="none" fill="rgba(39, 181, 234, 0.4)"/><circle r="3" cx="354.63636363636357" cy="429.54545454545456" stroke="none" fill="rgba(39, 181, 234, 0.4)"/><circle r="3" cx="120.7272727272727" cy="647.7272727272727" stroke="none" fill="rgba(39, 181, 234, 0.4)"/><circle r="3" cx="415" cy="381.81818181818176" stroke="none" fill="rgba(39, 181, 234, 0.4)"/><circle r="3" cx="656.4545454545455" cy="422.7272727272728" stroke="none" fill="rgba(39, 181, 234, 0.4)"/><circle r="3" cx="143.3636363636364" cy="565.9090909090909" stroke="none" fill="rgba(39, 181, 234, 0.4)"/><circle r="3" cx="354.63636363636357" cy="450" stroke="none" fill="rgba(39, 181, 234, 0.4)"/><circle r="3" cx="203.7272727272727" cy="606.8181818181818" stroke="none" fill="rgba(39, 181, 234, 0.4)"/><circle r="3" cx="211.27272727272734" cy="586.3636363636363" stroke="none" fill="rgba(39, 181, 234, 0.4)"/><circle r="3" cx="158.45454545454544" cy="504.5454545454546" stroke="none" fill="rgba(39, 181, 234, 0.4)"/><circle r="3" cx="226.36363636363635" cy="613.6363636363636" stroke="none" fill="rgba(39, 181, 234, 0.4)"/><circle r="3" cx="415" cy="538.6363636363637" stroke="none" fill="rgba(39, 181, 234, 0.4)"/><circle r="3" cx="279.18181818181813" cy="504.5454545454546" stroke="none" fill="rgba(39, 181, 234, 0.4)"/><circle r="3" cx="286.7272727272728" cy="565.9090909090909" stroke="none" fill="rgba(39, 181, 234, 0.4)"/><circle r="3" cx="377.27272727272725" cy="415.9090909090908" stroke="none" fill="rgba(39, 181, 234, 0.4)"/><circle r="3" cx="430.090909090909" cy="361.36363636363643" stroke="none" fill="rgba(39, 181, 234, 0.4)"/><circle r="3" cx="354.63636363636357" cy="572.7272727272727" stroke="none" fill="rgba(39, 181, 234, 0.4)"/><circle r="3" cx="332" cy="477.27272727272725" stroke="none" fill="rgba(39, 181, 234, 0.4)"/><circle r="3" cx="792.2727272727273" cy="681.8181818181818" stroke="none" fill="rgba(39, 181, 234, 0.4)"/><circle r="3" cx="226.36363636363635" cy="531.8181818181818" stroke="none" fill="rgba(39, 181, 234, 0.4)"/><circle r="3" cx="437.6363636363637" cy="463.6363636363636" stroke="none" fill="rgba(39, 181, 234, 0.4)"/><circle r="3" cx="249.00000000000003" cy="572.7272727272727" stroke="none" fill="rgba(39, 181, 234, 0.4)"/><circle r="3" cx="505.5454545454545" cy="300" stroke="none" fill="rgba(39, 181, 234, 0.4)"/><circle r="3" cx="407.4545454545455" cy="606.8181818181818" stroke="none" fill="rgba(39, 181, 234, 0.4)"/><circle r="3" cx="294.27272727272725" cy="531.8181818181818" stroke="none" fill="rgba(39, 181, 234, 0.4)"/><circle r="3" cx="75.45454545454545" cy="702.2727272727273" stroke="none" fill="rgba(39, 181, 234, 0.4)"/><circle r="3" cx="324.4545454545455" cy="565.9090909090909" stroke="none" fill="rgba(39, 181, 234, 0.4)"/><circle r="3" cx="165.99999999999994" cy="531.8181818181818" stroke="none" fill="rgba(39, 181, 234, 0.4)"/><circle r="3" cx="181.09090909090912" cy="538.6363636363637" stroke="none" fill="rgba(39, 181, 234, 0.4)"/><circle r="3" cx="181.09090909090912" cy="634.0909090909091" stroke="none" fill="rgba(39, 181, 234, 0.4)"/><circle r="3" cx="641.3636363636364" cy="47.7272727272727" stroke="none" fill="rgba(39, 181, 234, 0.4)"/><circle r="3" cx="181.09090909090912" cy="463.6363636363636" stroke="none" fill="rgba(39, 181, 234, 0.4)"/></g><g transform="translate(40,20)"><path fill="none" stroke="rgba(39, 181, 234, 0.8)" stroke-width="2" d="M37.72727272727273,667.6314941559775L52.818181818181834,659.0115766265477L60.36363636363635,654.699173461704L75.45454545454545,646.068484163861L82.99999999999997,641.7495486397647L90.54545454545456,637.4275345158303L98.09090909090908,633.1016199940686L105.63636363636367,628.7710139168141L120.7272727272727,620.0913025281093L128.27272727272728,615.739193391915L135.81818181818178,611.3763728639718L143.3636363636364,607.0010480607319L150.9090909090909,602.611518559465L158.45454545454544,598.2065859329479L165.99999999999994,593.7855494435714L173.5454545454546,589.3479377428049L181.09090909090912,584.8935215920602L188.63636363636363,580.4223599433101L196.18181818181816,575.9349904339746L203.7272727272727,571.432470217519L211.27272727272734,566.9162295314438L218.81818181818184,562.3884088666772L226.36363636363635,557.8520287063741L233.9090909090909,553.3100785181116L241.4545454545454,548.7657800539569L249.00000000000003,544.2228204158423L256.54545454545456,539.5272844116735L264.09090909090907,534.9679568740844L271.63636363636357,530.0631627708079L279.18181818181813,525.4403230970879L286.7272727272728,520.6289128072718L294.27272727272725,515.7799096770377L301.8181818181818,510.8822190584379L309.3636363636363,505.9226046663738L316.9090909090909,500.8882399733595L324.4545454545455,495.6822188838277L332,490.3649062356805L339.54545454545456,485.037926815353L347.09090909090907,479.59724296492175L354.63636363636357,473.9674903294387L362.18181818181824,468.26871777517886L369.72727272727275,462.553219319908L377.27272727272725,456.74565605247716L384.8181818181818,450.91894895339533L392.3636363636363,445.08260251406205L399.90909090909093,439.149454186041L407.4545454545455,433.27841491925426L415,427.4163647093965L422.5454545454545,421.5654412061544L430.090909090909,415.72556630930205L437.6363636363637,409.89573029072733L445.1818181818182,404.0752375778895L452.7272727272727,398.26338726121804L460.2727272727273,392.4593590315415L467.8181818181818,386.36346800009693L475.3636363636364,380.5486356402702L490.4545454545455,368.91503648656203L498,363.0900278186831L505.5454545454545,357.25638051487147L520.6363636363636,345.55770644858245L528.1818181818181,339.69035032696576L558.3636363636364,316.09560055040845L565.9090909090909,310.16790814583914L588.5454545454545,292.3237096653132L611.1818181818181,274.3959054619162L641.3636363636364,250.3779837833293L656.4545454545455,238.3255119054529L671.5454545454545,226.24688764812234L731.9090909090909,177.70687157592326L784.7272727272726,134.99290722752934L792.2727272727273,128.87572558316535"/></g></svg>